<?xml version="1.0" encoding="UTF-8" standalone="no"?><!DOCTYPE svg PUBLIC "-//W3C//DTD SVG 1.1//EN" "http://www.w3.org/Graphics/SVG/1.1/DTD/svg11.dtd"><svg width="100%" height="100%" viewBox="0 0 289 120" version="1.1" xmlns="http://www.w3.org/2000/svg" xmlns:xlink="http://www.w3.org/1999/xlink" xml:space="preserve" xmlns:serif="http://www.serif.com/" style="fill-rule:evenodd;clip-rule:evenodd;stroke-linejoin:round;stroke-miterlimit:2;"><rect id="Full-Logo" serif:id="Full Logo" x="0.172" y="0" width="288.721" height="119.689" style="fill:none;"/><g id="Logo"><g><path id="Open-Background" serif:id="Open Background" d="M43.665,8.097c3.545,0.019 7.399,0.574 9.661,3.421c1.667,2.098 1.573,6.159 1.744,8.987c-0,0 -0.116,-0.032 0.258,0.121c1.341,0.563 2.415,1.57 3.107,2.935c-0,0 1.974,0.082 3.538,0.22c10.977,0.966 20.024,3.836 27.203,12.225c2.592,3.027 4.489,5.86 5.497,9.13c0.584,1.896 0.816,4.037 -0.924,4.107c-0.001,0 -0.267,12.71 -0.789,14.856c-2.125,8.731 -4.75,21.696 -9.547,29.227c-0.643,1.01 -1.661,1.083 -3.63,1.981c-0.605,0.276 1.758,2.104 -0.337,2.875c-2.799,1.03 -5.55,3.403 -6.596,5.912c-0.596,1.427 -0.52,5.705 -0.971,6.369c-1.144,1.684 -3.187,1.365 -4.776,-0.16c-0.619,-0.593 -0.977,-1.369 -1.493,-2.046c-1.719,-2.257 -4.137,-3.956 -6.832,-4.859c-4.798,-1.607 -9.963,-1.157 -14.897,-2.221c-4.137,-0.892 -8.087,-2.534 -11.508,-5.157c-4.504,-3.452 -7.977,-8.082 -11.002,-12.817c-4.638,-7.26 -8.017,-15.428 -8.842,-23.919c-0.745,-7.682 0.826,-15.843 5.995,-22.002c2.413,-2.875 5.391,-5.242 8.589,-7.181l0.169,-0.102l-0.473,-0.19c-0.459,-0.324 -0.924,-0.657 -1.241,-1.116c-0.477,-0.691 -0.604,-1.543 -0.621,-2.397l1.163,-11.875c0.151,-0.704 0.134,-0.913 0.518,-1.538c0.834,-1.353 2.594,-1.77 4.249,-2.305c3.456,-1.115 6.988,-2.239 10.535,-2.422c0.751,-0.038 1.503,-0.061 2.253,-0.059Z" style="fill:#fff;"/><path id="Head" d="M20.971,39.974c13.139,-16.322 52.364,-20.481 68.225,-1.205c5.392,6.552 6.127,16.546 5.488,22.732c-1.148,11.112 -5.495,25.655 -10.421,31.721c-3.918,4.825 -13.549,3.112 -14.668,14.484c-6.369,-10.251 -16.936,-8.598 -23.327,-9.73c-7.866,-1.394 -13.571,-4.252 -21.149,-15.618c-10.355,-15.53 -12.234,-32.34 -4.148,-42.384Z" style="fill:#1c1c1c;"/><g id="Ponytail"><path d="M54.87,22.96c-2.225,-1.2 -7.144,-1.282 -9.089,2.481c-0.526,1.018 0.732,2.827 1.31,3.18l9.52,-0.72c0.019,-1.248 -0.642,-4.348 -1.741,-4.941Z" style="fill:#1c1c1c;"/><path d="M29.693,14.772l-1.163,11.875c0,0 10.562,-8.428 14.029,-8.066c2.969,0.311 4.926,5.443 4.926,5.443l4.508,-1.423c-0,-0 0.332,-7.103 -1.703,-9.085c-2.035,-1.981 -6.148,-1.922 -9.293,-1.73c-3.433,0.209 -11.304,2.986 -11.304,2.986Z" style="fill:#1c1c1c;"/></g><path id="Salad" d="M60.725,29.068c-14.256,-0.497 -29.451,4.527 -36.251,12.719c1.815,0.49 3.142,1.941 4.19,4.026c1.12,2.227 1.947,5.197 2.707,8.599c1.522,6.805 2.774,15.335 5.455,22.993c2.681,7.658 6.649,14.748 13.956,17.742c5.315,2.178 9.251,-6.026 15.387,-6.453c6.16,-0.429 10.672,8.134 15.333,4.17c6.408,-5.451 9.032,-17.999 10.303,-27.125c1.274,-9.155 0.489,-17.913 -3.787,-24.281c-5.529,-8.235 -16.102,-11.999 -27.293,-12.39Z" style="fill:#fff;"/><clipPath id="_clip1"><path d="M60.725,29.068c-14.256,-0.497 -29.451,4.527 -36.251,12.719c1.815,0.49 3.142,1.941 4.19,4.026c1.12,2.227 1.947,5.197 2.707,8.599c1.522,6.805 2.774,15.335 5.455,22.993c2.681,7.658 6.649,14.748 13.956,17.742c5.315,2.178 9.251,-6.026 15.387,-6.453c6.16,-0.429 10.672,8.134 15.333,4.17c6.408,-5.451 9.032,-17.999 10.303,-27.125c1.274,-9.155 0.489,-17.913 -3.787,-24.281c-5.529,-8.235 -16.102,-11.999 -27.293,-12.39Z"/></clipPath><g clip-path="url(#_clip1)"><g><path d="M69.975,77.915l11.309,-44.888l-34.436,-24.263l-32.902,42.296l56.029,26.855Z" style="fill:#dae61c;"/><path d="M48.767,26.518l-31.397,29.254l9.742,26.507l44.241,-21.697l-22.586,-34.064Z" style="fill:#91cc32;"/><path d="M84.696,21.023l25.6,46.744l-15.589,27.218l-40.268,-42.976l30.257,-30.986Z" style="fill:#df2265;"/><path d="M82.937,42.165l34.422,27.761l-7.604,26.702l-46.814,-19.741l19.996,-34.722Z" style="fill:#2aabb2;"/><path d="M40.116,99.267l17.317,-34.94l-19.048,-20.675l-31.903,31.941l33.634,23.674Z" style="fill:#ff8c40;"/><path d="M96.254,79.808l-33.251,-22.252l-30.557,16.035l24.427,36.364l39.381,-30.147Z" style="fill:#dae61c;"/><path d="M41.094,109.01l-19.324,-32.148l14.104,-20.07l31.678,28.815l-26.458,23.403Z" style="fill:#df2265;"/><path d="M82.591,61.311l22.316,32.228l-12.348,19.866l-34.419,-29.024l24.451,-23.07Z" style="fill:#91cc32;"/><path d="M57.591,65.474l21.338,36.601l-17.512,22.928l-36.043,-32.763l32.217,-26.766Z" style="fill:#2aabb2;"/><path d="M46.839,88.126l35.826,-14.28l16.601,16.864l-35.274,26.944l-17.153,-29.528Z" style="fill:#df2265;"/><path d="M70.809,128.204l-0.823,-38.193l-43.857,-15.914l-23.043,38.582l67.723,15.525Z" style="fill:#dae61c;"/><path d="M52.218,107.787l36.495,16.762l20.284,-13.735l-34.081,-28.301l-22.698,25.274Z" style="fill:#ff8c40;"/></g><path d="M93.127,51.59c0.478,0.24 0.484,0.244 0.834,0.648l0.169,0.511c0.604,4.824 -0.452,9.787 -1.149,14.498c-1.07,7.15 -2.54,14.361 -5.914,20.622c-1.332,2.473 -2.921,4.908 -5.254,6.49c-1.022,0.694 -2.282,1.033 -3.509,0.905c-4.607,-0.478 -7.897,-6.06 -12.786,-5.094c-3.3,0.652 -5.757,3.446 -8.286,5.09c-2.113,1.373 -4.743,2.119 -7.248,1.049c-0.272,-0.116 -0.54,-0.238 -0.807,-0.366c-7.521,-3.622 -11.727,-12.248 -14.215,-19.73c-2.201,-6.619 -3.838,-13.412 -5.366,-20.202c0,-0.001 -0.29,-1.289 -0.291,-1.297c-0.023,-0.178 -0.008,-0.359 -0.013,-0.538l0.194,-0.502c0.369,-0.387 0.375,-0.391 0.864,-0.608l0.538,-0.013l0.502,0.194l0.39,0.372l0.218,0.492c1.742,7.78 3.546,15.522 6.192,23.014c1.958,5.542 4.614,10.998 9.231,14.517c1.303,0.994 2.705,1.923 4.29,2.369c2.35,0.662 4.734,-1.537 6.878,-3.173c3.063,-2.33 6.646,-4.361 10.628,-3.129c2.811,0.87 5.053,2.942 7.627,4.231c1.254,0.628 2.709,0.814 3.965,-0.302c3.103,-2.758 4.893,-6.751 6.272,-10.822c2.086,-6.161 2.997,-12.637 3.929,-19.196c0.397,-2.833 0.736,-5.705 0.383,-8.528l0.038,-0.537c0.24,-0.478 0.244,-0.484 0.648,-0.834l0.511,-0.169c0.179,0.013 0.358,0.025 0.537,0.038Z" style="fill:#fff;"/></g><g id="Eye"><path id="Eyes-1" serif:id="Eyes 1" d="M60.376,41.143c10.761,-0.359 21.128,4.296 21.316,9.932c0.188,5.637 -4.627,7.547 -20.635,7.905c-10.764,0.241 -19.649,-1.338 -19.837,-6.975c-0.188,-5.636 8.396,-10.503 19.156,-10.862Z" style="fill:#fff;"/><path id="Eyes-11" serif:id="Eyes 1" d="M60.329,40.754c11.229,-0.374 22.049,4.483 22.245,10.365c0.196,5.883 -4.829,7.875 -21.534,8.25c-11.233,0.251 -20.506,-1.397 -20.702,-7.279c-0.196,-5.882 8.762,-10.961 19.991,-11.336Zm2.31,2.15c9.571,-0.319 17.477,3.492 17.644,8.506c0.167,5.013 -7.467,5.484 -17.038,5.803c-9.571,0.319 -15.548,-0.02 -15.715,-5.033c-0.167,-5.013 5.538,-8.957 15.109,-9.276Z" style="fill:#1c1c1c;"/></g></g><g><g><path d="M98.079,66.63c2.385,0.154 2.368,-3.008 0.548,-3.126c-1.088,-0.071 -1.406,3.07 -0.548,3.126Zm-0.178,4.842c-1.287,-0.029 -3.083,14.067 -3.994,20.965c-0.231,1.745 1.299,2.328 1.461,0.599c0.865,-9.186 3.831,-21.535 2.533,-21.564Z" style="fill:#1c1c1c;fill-rule:nonzero;"/><path d="M113.983,63.711c-5.749,0.197 -9.77,3.549 -9.617,8.031c0.116,3.391 1.946,4.945 8.278,6.684c5.754,1.645 7.858,3.69 7.969,6.908c0.165,4.828 -4.212,7.391 -9.444,7.57c-3.966,0.135 -10.046,-2.492 -10.123,-2.206c-0.469,1.746 5.47,3.661 10.296,3.496c7.818,-0.268 10.942,-4.502 10.783,-9.157c-0.14,-4.08 -2.498,-6.059 -8.599,-7.749c-5.633,-1.476 -7.766,-2.966 -7.878,-5.667c-0.15,-3.62 3.737,-6.626 8.391,-6.856c5.811,-0.287 8.503,3.374 8.781,1.801c0.051,-0.292 -3.739,-3.029 -8.837,-2.855Z" style="fill:#1c1c1c;fill-rule:nonzero;"/><path d="M139.91,63.806c-3.677,-0.46 -7.772,1.05 -10.084,6.195c0,0 0.969,-10.441 1.616,-15.654c0.091,-0.734 0.356,-2.326 0.065,-2.335c-0.346,-0.009 -1.088,1.672 -1.145,2.141c-1.072,8.819 -3.897,32.543 -4.619,39.422c-0.068,0.648 1.08,0.625 1.235,-0.008c0.728,-2.975 2.407,-20.718 2.407,-20.718c2.119,-4.853 6.086,-9.113 10.95,-7.747c2.115,0.593 5.8,3.397 5.128,8.089c-0.334,2.338 -2.843,14.207 -1.597,19.967c0.137,0.637 1.072,0.641 0.994,-0.006c-0.906,-7.485 1.265,-15.215 1.861,-20.098c0.719,-5.894 -2.917,-8.761 -6.811,-9.248Z" style="fill:#1c1c1c;fill-rule:nonzero;"/></g><path d="M167.175,55.05c-8.72,0 -13.024,5.823 -13.024,11.169c0,5.075 2.972,7.883 9.329,10.151c4.516,1.674 6.005,3.078 6.005,5.831c-0,3.834 -2.823,6.156 -7.391,6.156c-3.588,-0 -6.201,-1.35 -8.353,-3.726l-4,4.103c2.615,3.019 6.562,5.23 12.199,5.23c10.516,0 14.615,-6.633 14.615,-12.627c0,-5.993 -3.791,-8.639 -9.175,-10.421c-4.875,-1.727 -6.261,-2.915 -6.261,-5.399c0,-3.186 2.617,-5.022 6.21,-5.022c2.822,0 5.076,0.918 7.279,3.132l3.793,-3.886c-2.768,-2.966 -6.303,-4.691 -11.226,-4.691Z" style="fill:#1c1c1c;fill-rule:nonzero;"/><path d="M194.196,63.795c-11.074,0 -15.07,10.954 -15.07,19c-0,6.748 3.074,11.169 8.711,11.169c3.436,0 6.103,-1.995 8.103,-4.852c0.615,3.073 2.718,4.421 5.59,4.744l1.846,-4.528c-1.539,-0.647 -1.692,-1.673 -1.436,-3.617l2.615,-19.167c-3.333,-1.832 -6.769,-2.749 -10.359,-2.749Zm-0.102,5.068c1.487,-0 2.461,0.216 3.641,0.756l-1.949,14.58c-1.846,2.7 -3.692,4.536 -6.154,4.536c-2.256,-0 -3.743,-1.62 -3.743,-5.94c-0,-5.94 2.205,-13.932 8.205,-13.932Z" style="fill:#1c1c1c;fill-rule:nonzero;"/><path d="M218.863,52.405l-6.557,0.756l-4.394,32.977c-0.666,5.181 1.482,7.826 5.57,7.826c1.484,0 3.073,-0.324 4.509,-1.025l-0.974,-4.852c-0.513,0.162 -1.026,0.324 -1.539,0.324c-0.974,-0 -1.332,-0.54 -1.179,-1.998l4.564,-34.008Z" style="fill:#1c1c1c;fill-rule:nonzero;"/><path d="M235.414,63.795c-11.075,0 -15.071,10.954 -15.071,19c0,6.748 3.074,11.169 8.712,11.169c3.436,0 6.102,-1.995 8.102,-4.852c0.616,3.073 2.718,4.421 5.59,4.744l1.846,-4.528c-1.538,-0.647 -1.692,-1.673 -1.435,-3.617l2.615,-19.167c-3.333,-1.832 -6.769,-2.749 -10.359,-2.749Zm-0.103,5.068c1.488,-0 2.462,0.216 3.641,0.756l-1.948,14.58c-1.847,2.7 -3.693,4.536 -6.154,4.536c-2.257,-0 -3.744,-1.62 -3.744,-5.94c0,-5.94 2.205,-13.932 8.205,-13.932Z" style="fill:#1c1c1c;fill-rule:nonzero;"/><path d="M269.671,52.513l-1.949,14.409c-1.436,-1.779 -3.59,-3.127 -6.513,-3.127c-9.33,0 -12.866,11.116 -12.866,18.73c0,7.018 2.921,11.439 8.558,11.439c3.641,0 6.308,-2.21 8.154,-5.176l-0.051,4.366l5.692,0l5.334,-39.939l-6.359,-0.702Zm-7.129,16.458c2,-0 3.385,0.971 4.564,2.699l-1.487,11.228c-2,3.353 -4.051,5.837 -6.82,5.837c-2.205,-0 -3.693,-1.62 -3.693,-5.994c0,-5.187 1.641,-13.77 7.436,-13.77Z" style="fill:#1c1c1c;fill-rule:nonzero;"/></g><path d="M105.249,35.561l0.442,0l0,-4.394l3.122,-0l-0,-0.413l-3.122,0l0,-3.875l3.616,0l0.064,-0.426l-4.122,0l-0,9.108Z" style="fill:#1c1c1c;fill-rule:nonzero;"/><path d="M112.533,28.47c-1.637,0 -2.702,1.334 -2.702,3.632c0,2.245 1.014,3.593 2.69,3.593c1.637,-0 2.689,-1.335 2.689,-3.633c-0,-2.324 -1.027,-3.592 -2.677,-3.592Zm0,0.413c1.397,-0 2.234,1.108 2.234,3.179c0,2.111 -0.875,3.22 -2.246,3.22c-1.397,0 -2.234,-1.135 -2.234,-3.18c-0,-2.124 0.875,-3.219 2.246,-3.219Z" style="fill:#1c1c1c;fill-rule:nonzero;"/><path d="M119.55,28.47c-0.99,0 -1.587,0.6 -1.942,1.802l-0.025,-1.655l-0.367,0l0,6.944l0.43,0l0,-4.434c0.394,-1.496 0.914,-2.244 1.891,-2.244c0.216,-0 0.419,0.026 0.584,0.08l0.088,-0.413c-0.152,-0.04 -0.368,-0.08 -0.659,-0.08Z" style="fill:#1c1c1c;fill-rule:nonzero;"/><path d="M127.43,34.948c-0.33,0.201 -0.686,0.334 -1.104,0.334c-0.736,0 -1.104,-0.454 -1.104,-1.336l-0,-4.943l1.738,-0l0.063,-0.386l-1.801,0l-0,-1.776l-0.43,0.04l-0,1.736l-1.079,0l0,0.386l1.079,-0l-0,4.97c-0,1.149 0.582,1.722 1.495,1.722c0.521,-0 0.965,-0.16 1.333,-0.4l-0.19,-0.347Z" style="fill:#1c1c1c;fill-rule:nonzero;"/><path d="M131.466,28.47c-1.016,0 -1.765,0.573 -2.349,1.441l0,-4.232l-0.43,0.08l0,9.802l0.43,0l0,-5.102c0.609,-0.935 1.295,-1.59 2.311,-1.59c0.926,0 1.396,0.601 1.396,1.803l-0,4.889l0.43,0l-0,-4.955c-0,-1.323 -0.608,-2.136 -1.788,-2.136Z" style="fill:#1c1c1c;fill-rule:nonzero;"/><path d="M140.22,31.783c0,-1.992 -0.811,-3.313 -2.473,-3.313c-1.549,0 -2.563,1.402 -2.563,3.672c0,2.245 1.052,3.553 2.715,3.553c0.85,-0 1.472,-0.306 2.056,-0.827l-0.228,-0.321c-0.584,0.468 -1.066,0.735 -1.828,0.735c-1.257,0 -2.183,-0.909 -2.272,-2.967l4.568,0c0.012,-0.119 0.025,-0.332 0.025,-0.532Zm-0.43,0.147l-4.163,-0c0.063,-2.125 1.015,-3.047 2.145,-3.047c1.396,-0 2.018,1.122 2.018,2.739l0,0.308Z" style="fill:#1c1c1c;fill-rule:nonzero;"/><path d="M146.984,28.47c-1.168,0 -2.067,0.72 -2.067,1.749c-0,0.975 0.569,1.443 1.966,1.83c1.434,0.414 1.84,0.762 1.84,1.71c0,0.989 -0.761,1.523 -1.777,1.523c-0.889,0 -1.434,-0.28 -2.029,-0.761l-0.254,0.294c0.57,0.494 1.229,0.88 2.283,0.88c1.295,-0 2.22,-0.774 2.22,-1.949c-0,-1.163 -0.582,-1.63 -2.08,-2.058c-1.257,-0.347 -1.727,-0.681 -1.727,-1.456c0,-0.828 0.686,-1.349 1.651,-1.349c0.698,-0 1.168,0.213 1.751,0.668l0.241,-0.308c-0.621,-0.52 -1.231,-0.773 -2.018,-0.773Z" style="fill:#1c1c1c;fill-rule:nonzero;"/><path d="M153.607,34.948c-0.33,0.201 -0.685,0.334 -1.104,0.334c-0.736,0 -1.104,-0.454 -1.104,-1.336l0,-4.943l1.739,-0l0.063,-0.386l-1.802,0l0,-1.776l-0.43,0.04l0,1.736l-1.078,0l-0,0.386l1.078,-0l0,4.97c0,1.149 0.582,1.722 1.496,1.722c0.52,-0 0.964,-0.16 1.332,-0.4l-0.19,-0.347Z" style="fill:#1c1c1c;fill-rule:nonzero;"/><path d="M156.862,28.47c-1.637,0 -2.702,1.334 -2.702,3.632c0,2.245 1.014,3.593 2.69,3.593c1.637,-0 2.689,-1.335 2.689,-3.633c-0,-2.324 -1.027,-3.592 -2.677,-3.592Zm0,0.413c1.397,-0 2.234,1.108 2.234,3.179c0,2.111 -0.875,3.22 -2.246,3.22c-1.397,0 -2.234,-1.135 -2.234,-3.18c-0,-2.124 0.875,-3.219 2.246,-3.219Z" style="fill:#1c1c1c;fill-rule:nonzero;"/><path d="M163.879,28.47c-0.99,0 -1.587,0.6 -1.942,1.802l-0.025,-1.655l-0.367,0l0,6.944l0.43,0l0,-4.434c0.394,-1.496 0.914,-2.244 1.891,-2.244c0.216,-0 0.419,0.026 0.584,0.08l0.088,-0.413c-0.152,-0.04 -0.368,-0.08 -0.659,-0.08Z" style="fill:#1c1c1c;fill-rule:nonzero;"/><path d="M166.049,25.759c-0.215,-0 -0.354,0.173 -0.354,0.36c-0,0.199 0.139,0.373 0.354,0.373c0.241,-0 0.367,-0.174 0.367,-0.373c0,-0.187 -0.126,-0.36 -0.367,-0.36Zm0.228,2.858l-0.43,0l-0,6.944l0.43,0l-0,-6.944Z" style="fill:#1c1c1c;fill-rule:nonzero;"/><path d="M173.307,31.783c-0,-1.992 -0.811,-3.313 -2.474,-3.313c-1.549,0 -2.562,1.402 -2.562,3.672c-0,2.245 1.051,3.553 2.714,3.553c0.851,-0 1.473,-0.306 2.056,-0.827l-0.228,-0.321c-0.584,0.468 -1.066,0.735 -1.828,0.735c-1.256,0 -2.183,-0.909 -2.272,-2.967l4.568,0c0.013,-0.119 0.026,-0.332 0.026,-0.532Zm-0.43,0.147l-4.164,-0c0.064,-2.125 1.016,-3.047 2.145,-3.047c1.397,-0 2.019,1.122 2.019,2.739l-0,0.308Z" style="fill:#1c1c1c;fill-rule:nonzero;"/><path d="M176.733,28.47c-1.168,0 -2.067,0.72 -2.067,1.749c-0,0.975 0.569,1.443 1.966,1.83c1.434,0.414 1.841,0.762 1.841,1.71c-0,0.989 -0.762,1.523 -1.778,1.523c-0.888,0 -1.434,-0.28 -2.029,-0.761l-0.254,0.294c0.57,0.494 1.23,0.88 2.283,0.88c1.295,-0 2.22,-0.774 2.22,-1.949c0,-1.163 -0.582,-1.63 -2.08,-2.058c-1.257,-0.347 -1.727,-0.681 -1.727,-1.456c0,-0.828 0.686,-1.349 1.651,-1.349c0.698,-0 1.168,0.213 1.752,0.668l0.24,-0.308c-0.621,-0.52 -1.23,-0.773 -2.018,-0.773Z" style="fill:#1c1c1c;fill-rule:nonzero;"/><path d="M188.14,28.617l-0.469,0l-2.119,6.585l-2.156,-6.585l-0.482,0l2.359,6.944l0.153,0c-0.457,1.322 -0.749,1.883 -2.068,2.284l0.051,0.361c1.446,-0.414 1.915,-1.082 2.422,-2.618l2.309,-6.971Z" style="fill:#1c1c1c;fill-rule:nonzero;"/><path d="M191.656,28.47c-1.638,0 -2.702,1.334 -2.702,3.632c-0,2.245 1.014,3.593 2.689,3.593c1.638,-0 2.689,-1.335 2.689,-3.633c0,-2.324 -1.026,-3.592 -2.676,-3.592Zm-0,0.413c1.396,-0 2.234,1.108 2.234,3.179c-0,2.111 -0.876,3.22 -2.247,3.22c-1.396,0 -2.234,-1.135 -2.234,-3.18c0,-2.124 0.876,-3.219 2.247,-3.219Z" style="fill:#1c1c1c;fill-rule:nonzero;"/><path d="M200.778,28.617l-0.429,0l-0,5.089c-0.508,0.922 -1.156,1.576 -2.133,1.576c-0.978,0 -1.511,-0.534 -1.511,-1.75l0,-4.915l-0.43,0l0,4.956c0,1.375 0.684,2.122 1.877,2.122c1.08,-0 1.803,-0.667 2.235,-1.481l0.012,1.347l0.379,0l0,-6.944Z" style="fill:#1c1c1c;fill-rule:nonzero;"/><path d="M208.836,28.47c-1.637,0 -2.727,1.401 -2.727,3.659c0,2.271 1.103,3.566 2.752,3.566c0.724,-0 1.333,-0.28 1.802,-0.72l-0.241,-0.321c-0.431,0.388 -0.926,0.628 -1.586,0.628c-1.307,0 -2.271,-1.055 -2.271,-3.153c-0,-2.151 0.977,-3.233 2.284,-3.233c0.647,-0 1.104,0.187 1.51,0.561l0.241,-0.307c-0.533,-0.48 -1.041,-0.68 -1.764,-0.68Z" style="fill:#1c1c1c;fill-rule:nonzero;"/><path d="M216.401,34.093l0,-5.476l-0.379,0l-0.038,0.894c-0.342,-0.495 -0.901,-1.041 -1.891,-1.041c-1.6,0 -2.626,1.495 -2.626,3.646c-0,2.244 0.976,3.579 2.524,3.579c1.016,-0 1.638,-0.6 1.993,-1.268c0.051,0.667 0.304,0.987 0.887,1.201l0.14,-0.374c-0.432,-0.172 -0.61,-0.413 -0.61,-1.161Zm-2.397,1.189c-1.295,0 -2.082,-1.149 -2.082,-3.166c-0.012,-2.044 0.914,-3.233 2.184,-3.233c0.901,-0 1.485,0.534 1.866,1.162l-0,3.754c-0.457,0.949 -1.029,1.483 -1.968,1.483Z" style="fill:#1c1c1c;fill-rule:nonzero;"/><path d="M221.35,28.47c-0.99,0 -1.586,0.6 -1.941,1.802l-0.025,-1.655l-0.367,0l-0,6.944l0.43,0l-0,-4.434c0.393,-1.496 0.913,-2.244 1.89,-2.244c0.216,-0 0.419,0.026 0.584,0.08l0.089,-0.413c-0.152,-0.04 -0.368,-0.08 -0.66,-0.08Z" style="fill:#1c1c1c;fill-rule:nonzero;"/><path d="M227.383,31.783c-0,-1.992 -0.811,-3.313 -2.474,-3.313c-1.548,0 -2.562,1.402 -2.562,3.672c-0,2.245 1.052,3.553 2.715,3.553c0.85,-0 1.472,-0.306 2.055,-0.827l-0.227,-0.321c-0.584,0.468 -1.067,0.735 -1.828,0.735c-1.257,0 -2.184,-0.909 -2.273,-2.967l4.569,0c0.012,-0.119 0.025,-0.332 0.025,-0.532Zm-0.43,0.147l-4.164,-0c0.064,-2.125 1.016,-3.047 2.146,-3.047c1.396,-0 2.018,1.122 2.018,2.739l0,0.308Z" style="fill:#1c1c1c;fill-rule:nonzero;"/><path d="M237.027,34.093l-0,-5.476l-0.38,0l-0.038,0.894c-0.342,-0.495 -0.901,-1.041 -1.891,-1.041c-1.599,0 -2.626,1.495 -2.626,3.646c0,2.244 0.976,3.579 2.524,3.579c1.016,-0 1.638,-0.6 1.993,-1.268c0.051,0.667 0.304,0.987 0.887,1.201l0.14,-0.374c-0.432,-0.172 -0.609,-0.413 -0.609,-1.161Zm-2.398,1.189c-1.295,0 -2.082,-1.149 -2.082,-3.166c-0.012,-2.044 0.914,-3.233 2.184,-3.233c0.901,-0 1.485,0.534 1.866,1.162l-0,3.754c-0.457,0.949 -1.028,1.483 -1.968,1.483Z" style="fill:#1c1c1c;fill-rule:nonzero;"/><path d="M242.141,28.47c-0.914,0 -1.599,0.493 -2.069,1.174l-0,-3.952l-0.43,0.067l0,9.802l0.367,0l0.05,-0.96c0.406,0.588 1.079,1.094 1.993,1.094c1.6,-0 2.448,-1.388 2.448,-3.659c0,-2.298 -0.836,-3.566 -2.359,-3.566Zm-0.114,6.812c-0.863,0 -1.498,-0.494 -1.955,-1.216l-0,-3.901c0.533,-0.761 1.104,-1.282 2.044,-1.282c1.256,-0 1.942,1.055 1.942,3.153c-0,2.111 -0.724,3.246 -2.031,3.246Z" style="fill:#1c1c1c;fill-rule:nonzero;"/><path d="M248.714,28.47c-1.637,0 -2.702,1.334 -2.702,3.632c0,2.245 1.014,3.593 2.689,3.593c1.638,-0 2.69,-1.335 2.69,-3.633c-0,-2.324 -1.027,-3.592 -2.677,-3.592Zm0,0.413c1.396,-0 2.234,1.108 2.234,3.179c0,2.111 -0.876,3.22 -2.247,3.22c-1.396,0 -2.234,-1.135 -2.234,-3.18c0,-2.124 0.876,-3.219 2.247,-3.219Z" style="fill:#1c1c1c;fill-rule:nonzero;"/><path d="M257.837,28.617l-0.43,0l-0,5.089c-0.508,0.922 -1.155,1.576 -2.133,1.576c-0.977,0 -1.511,-0.534 -1.511,-1.75l0,-4.915l-0.429,0l-0,4.956c-0,1.375 0.683,2.122 1.877,2.122c1.079,-0 1.802,-0.667 2.234,-1.481l0.012,1.347l0.38,0l-0,-6.944Z" style="fill:#1c1c1c;fill-rule:nonzero;"/><path d="M262.976,34.948c-0.33,0.201 -0.685,0.334 -1.104,0.334c-0.736,0 -1.104,-0.454 -1.104,-1.336l-0,-4.943l1.738,-0l0.064,-0.386l-1.802,0l-0,-1.776l-0.43,0.04l0,1.736l-1.079,0l0,0.386l1.079,-0l0,4.97c0,1.149 0.582,1.722 1.496,1.722c0.52,-0 0.964,-0.16 1.332,-0.4l-0.19,-0.347Z" style="fill:#1c1c1c;fill-rule:nonzero;"/></g></svg>