<?xml version="1.0" encoding="UTF-8" standalone="no"?>
<!-- Created with Inkscape (http://www.inkscape.org/) -->

<svg
   xmlns:dc="http://purl.org/dc/elements/1.1/"
   xmlns:cc="http://creativecommons.org/ns#"
   xmlns:rdf="http://www.w3.org/1999/02/22-rdf-syntax-ns#"
   xmlns:svg="http://www.w3.org/2000/svg"
   xmlns="http://www.w3.org/2000/svg"
   xmlns:sodipodi="http://sodipodi.sourceforge.net/DTD/sodipodi-0.dtd"
   xmlns:inkscape="http://www.inkscape.org/namespaces/inkscape"
   width="450"
   height="260"
   viewBox="0 0 450 260"
   id="svg163537"
   version="1.1"
   inkscape:version="0.91 r13725"
   sodipodi:docname="logo.svg">
  <defs
     id="defs163539" />
  <sodipodi:namedview
     id="base"
     pagecolor="#ffffff"
     bordercolor="#666666"
     borderopacity="1.0"
     inkscape:pageopacity="0.0"
     inkscape:pageshadow="2"
     inkscape:zoom="2.1323198"
     inkscape:cx="224.53103"
     inkscape:cy="130"
     inkscape:document-units="px"
     inkscape:current-layer="layer1"
     showgrid="false"
     units="px"
     inkscape:window-width="1920"
     inkscape:window-height="1032"
     inkscape:window-x="1920"
     inkscape:window-y="0"
     inkscape:window-maximized="1" />
  <metadata
     id="metadata163542">
    <rdf:RDF>
      <cc:Work
         rdf:about="">
        <dc:format>image/svg+xml</dc:format>
        <dc:type
           rdf:resource="http://purl.org/dc/dcmitype/StillImage" />
        <dc:title></dc:title>
      </cc:Work>
    </rdf:RDF>
  </metadata>
  <g
     inkscape:label="Layer 1"
     inkscape:groupmode="layer"
     id="layer1"
     transform="translate(0,-792.36216)">
    <g
       id="w"
       transform="matrix(0.82522222,0,0,0.82522222,-833.33934,554.34068)"
       inkscape:label="#g161220">
      <g
         transform="translate(-0.02798276,0)"
         id="g161222">
        <path
           inkscape:connector-curvature="0"
           id="w2"
           d="m 1136.0527,324.44733 c -12.4496,0 -24.8993,6.45152 -28.4433,10.90429 0,5.66718 0.1521,9.90283 1.4687,15.70508 l 55.0547,4.49414 0,-8.38476 c -0.2726,-15.17579 -12.8134,-22.71875 -28.0801,-22.71875 z"
           style="font-style:normal;font-variant:normal;font-weight:normal;font-stretch:normal;font-size:medium;line-height:125%;font-family:Kavoon;-inkscape-font-specification:Kavoon;letter-spacing:0px;word-spacing:0px;fill:#f57900;fill-opacity:1;stroke:none;stroke-width:1px;stroke-linecap:butt;stroke-linejoin:miter;stroke-opacity:1"
           inkscape:label="#path161224" />
        <path
           inkscape:connector-curvature="0"
           id="w3"
           d="m 1204.6621,324.44733 c -12.4496,0 -25.081,6.45152 -28.625,10.90429 0,6.36111 0.1806,10.90514 1.9981,17.90235 l 10.7226,1.72656 c -0.012,0.76289 -0.05,1.68201 -0.086,2.57422 l 38.9687,3.17969 c 0.4728,-4.17355 0.7383,-8.00704 0.7383,-11.29688 0,-16.99324 -7.9958,-24.99023 -23.7168,-24.99023 z"
           style="font-style:normal;font-variant:normal;font-weight:normal;font-stretch:normal;font-size:medium;line-height:125%;font-family:Kavoon;-inkscape-font-specification:Kavoon;letter-spacing:0px;word-spacing:0px;fill:#f57900;fill-opacity:1;stroke:none;stroke-width:1px;stroke-linecap:butt;stroke-linejoin:miter;stroke-opacity:1"
           inkscape:label="#path161226" />
        <path
           inkscape:connector-curvature="0"
           id="w1"
           d="m 1072.5332,324.62897 c -11.3591,0 -24.0821,5.7254 -27.3535,16.17578 0.1806,1.72828 0.4018,3.42429 0.666,5.08984 l 51.5293,4.20508 c -1.391,-5.00722 -3.015,-9.51429 -5.0332,-13.29297 -4.9071,-9.08729 -12.2661,-12.17773 -19.8086,-12.17773 z"
           style="font-style:normal;font-variant:normal;font-weight:normal;font-stretch:normal;font-size:medium;line-height:125%;font-family:Kavoon;-inkscape-font-specification:Kavoon;letter-spacing:0px;word-spacing:0px;fill:#ce5c00;fill-opacity:1;stroke:none;stroke-width:1px;stroke-linecap:butt;stroke-linejoin:miter;stroke-opacity:1"
           inkscape:label="#path161228" />
        <path
           inkscape:connector-curvature="0"
           id="w4"
           d="m 1046.6055,349.96881 c 0.5915,2.72147 1.34,5.34036 2.3007,7.83008 l 9.086,0.63476 c 2.8474,4.18205 7.3497,19.81172 11.8125,37.02149 l 34.8808,-2.9375 c -0.8168,-7.33555 -1.889,-15.30462 -3.3457,-23.9961 -0.8762,-5.03825 -1.8203,-9.83995 -2.9023,-14.32031 l -51.832,-4.23242 z"
           style="font-style:normal;font-variant:normal;font-weight:normal;font-stretch:normal;font-size:medium;line-height:125%;font-family:Kavoon;-inkscape-font-specification:Kavoon;letter-spacing:0px;word-spacing:0px;fill:#75507b;fill-opacity:1;stroke:none;stroke-width:1px;stroke-linecap:butt;stroke-linejoin:miter;stroke-opacity:1"
           inkscape:label="#path161230" />
        <path
           inkscape:connector-curvature="0"
           id="w5"
           d="m 1121.0234,356.04498 c -0.2014,7.72889 -1.4454,21.3121 -3.1582,35.36328 l 51.6055,-4.3457 c -1.5611,-9.23531 -3.346,-18.12171 -5.3379,-25.90234 l 0,-1.59766 -43.1094,-3.51758 z"
           style="font-style:normal;font-variant:normal;font-weight:normal;font-stretch:normal;font-size:medium;line-height:125%;font-family:Kavoon;-inkscape-font-specification:Kavoon;letter-spacing:0px;word-spacing:0px;fill:#ad7fa8;fill-opacity:1;stroke:none;stroke-width:1px;stroke-linecap:butt;stroke-linejoin:miter;stroke-opacity:1"
           inkscape:label="#path161232" />
        <path
           inkscape:connector-curvature="0"
           id="w6"
           d="m 1188.4609,361.54889 c -0.4105,6.49813 -1.2588,15.07191 -2.3164,24.10937 l 37.7657,-3.17968 c 1.3567,-6.19721 2.4641,-12.23583 3.2285,-17.77149 l -38.6778,-3.1582 z"
           style="font-style:normal;font-variant:normal;font-weight:normal;font-stretch:normal;font-size:medium;line-height:125%;font-family:Kavoon;-inkscape-font-specification:Kavoon;letter-spacing:0px;word-spacing:0px;fill:#75507b;fill-opacity:1;stroke:none;stroke-width:1px;stroke-linecap:butt;stroke-linejoin:miter;stroke-opacity:1"
           inkscape:label="#path161234" />
        <path
           inkscape:connector-curvature="0"
           id="w10"
           d="m 1222.9707,386.57233 -37.3105,3.14257 c -2.2919,18.66031 -5.4471,38.47237 -8.0704,46.89063 l 27.9532,1.46484 c 3.279,-7.13933 6.0638,-14.4697 8.8418,-22.20508 3.3089,-9.13731 6.2484,-19.33348 8.5859,-29.29296 z"
           style="font-style:normal;font-variant:normal;font-weight:normal;font-stretch:normal;font-size:medium;line-height:125%;font-family:Kavoon;-inkscape-font-specification:Kavoon;letter-spacing:0px;word-spacing:0px;fill:#59b007;fill-opacity:1;stroke:none;stroke-width:1px;stroke-linecap:butt;stroke-linejoin:miter;stroke-opacity:1"
           inkscape:label="#path161236" />
        <path
           inkscape:connector-curvature="0"
           id="w9"
           d="m 1170.123,391.0235 -28.6289,2.41015 c 0.665,6.18244 2.1384,15.20007 2.5547,17.61524 l 4.6367,24.04101 26.8809,1.40821 c -1.0852,-13.54921 -2.9356,-29.84503 -5.4434,-45.47461 z"
           style="font-style:normal;font-variant:normal;font-weight:normal;font-stretch:normal;font-size:medium;line-height:125%;font-family:Kavoon;-inkscape-font-specification:Kavoon;letter-spacing:0px;word-spacing:0px;fill:#84c915;fill-opacity:1;stroke:none;stroke-width:1px;stroke-linecap:butt;stroke-linejoin:miter;stroke-opacity:1"
           inkscape:label="#path161238" />
        <path
           inkscape:connector-curvature="0"
           id="w8"
           d="m 1140.0977,393.55084 -22.7344,1.91406 c -1.8629,14.58717 -4.1776,29.10594 -6.334,37.65235 l 22.0977,1.1582 c 2.7055,-9.6959 4.9558,-20.27967 6.7421,-31.04101 l 0.2286,-9.6836 z"
           style="font-style:normal;font-variant:normal;font-weight:normal;font-stretch:normal;font-size:medium;line-height:125%;font-family:Kavoon;-inkscape-font-specification:Kavoon;letter-spacing:0px;word-spacing:0px;fill:#59b007;fill-opacity:1;stroke:none;stroke-width:1px;stroke-linecap:butt;stroke-linejoin:miter;stroke-opacity:1"
           inkscape:label="#path161240" />
        <path
           inkscape:connector-curvature="0"
           id="w7"
           d="m 1105.1152,396.49615 -34.3066,2.88868 c 2.8861,11.28902 5.6583,22.732 7.9414,32.04101 l 28.7598,1.50586 c -0.4214,-9.61437 -0.8739,-21.53155 -2.3946,-36.43555 z"
           style="font-style:normal;font-variant:normal;font-weight:normal;font-stretch:normal;font-size:medium;line-height:125%;font-family:Kavoon;-inkscape-font-specification:Kavoon;letter-spacing:0px;word-spacing:0px;fill:#b7d216;fill-opacity:1;stroke:none;stroke-width:1px;stroke-linecap:butt;stroke-linejoin:miter;stroke-opacity:1"
           inkscape:label="#path161242" />
        <path
           sodipodi:nodetypes="cccsccc"
           inkscape:connector-curvature="0"
           id="w11"
           d="m 1079.75,435.48444 c 0.7245,2.93331 1.3972,5.63856 1.9609,7.82421 l -2,17.08399 c 5.9068,5.27063 16.2657,6.8164 26.2618,6.8164 5.1797,0 12.8131,-1.09122 16.7207,-5.45312 3.5118,-6.52796 6.6055,-14.58768 9.291,-23.53516 -20.0189,-1.04839 -32.1573,-1.68532 -52.2344,-2.73632 z"
           style="font-style:normal;font-variant:normal;font-weight:normal;font-stretch:normal;font-size:medium;line-height:125%;font-family:Kavoon;-inkscape-font-specification:Kavoon;letter-spacing:0px;word-spacing:0px;fill:#84c915;fill-opacity:1;stroke:none;stroke-width:1px;stroke-linecap:butt;stroke-linejoin:miter;stroke-opacity:1"
           inkscape:label="#path161244" />
        <path
           inkscape:connector-curvature="0"
           id="w12"
           d="m 1149.4668,439.13678 0.4883,2.53711 -2.4531,18.6289 c 6.5428,5.27062 16.4492,6.90625 26.4453,6.90625 5.2706,0 13.4476,-0.8186 17.9004,-5.45312 4.756,-6.56978 8.5623,-13.10467 11.8437,-19.77734 l -54.2246,-2.8418 z"
           style="font-style:normal;font-variant:normal;font-weight:normal;font-stretch:normal;font-size:medium;line-height:125%;font-family:Kavoon;-inkscape-font-specification:Kavoon;letter-spacing:0px;word-spacing:0px;fill:#b7d216;fill-opacity:1;stroke:none;stroke-width:1px;stroke-linecap:butt;stroke-linejoin:miter;stroke-opacity:1"
           inkscape:label="#path161246" />
      </g>
      <path
         sodipodi:nodetypes="zcssscz"
         inkscape:connector-curvature="0"
         id="path161248"
         d="m 1136.7513,493.21695 c -94.0737,0 -91.3494,-85.73625 -91.3494,-85.73625 0,0 3.889,23.66967 17.2522,43.33934 13.3632,19.66968 36.2006,35.33935 74.0972,35.33935 37.8964,0 60.7338,-15.66967 74.097,-35.33935 13.3632,-19.66967 17.2523,-43.33934 17.2523,-43.33934 0,0 2.7242,85.73625 -91.3493,85.73625 z"
         style="opacity:1;fill:#2e3436;fill-opacity:1;fill-rule:nonzero;stroke:none;stroke-width:10;stroke-linejoin:round;stroke-miterlimit:4;stroke-dasharray:none" />
    </g>
    <g
       transform="matrix(0.59551104,0,0,0.59551104,788.54224,265.2005)"
       id="ws"
       inkscape:label="#g161250">
      <g
         id="g161252"
         transform="matrix(0.863617,0,0,0.863617,-1321.4966,640.48265)">
        <path
           id="path161254"
           d="m 372.51069,510.14997 c 5.72476,0 11.40221,-3.73766 11.40221,-8.65812 0,-5.06239 -2.88604,-9.36779 -11.40221,-9.36779 -8.51618,0 -11.40222,4.3054 -11.40222,9.36779 0,3.69035 4.92046,8.65812 11.40222,8.65812 z"
           style="font-style:normal;font-variant:normal;font-weight:normal;font-stretch:normal;font-size:medium;line-height:125%;font-family:Kavoon;-inkscape-font-specification:Kavoon;letter-spacing:0px;word-spacing:0px;fill:#2e3436;fill-opacity:1;stroke:none;stroke-width:1px;stroke-linecap:butt;stroke-linejoin:miter;stroke-opacity:1"
           inkscape:connector-curvature="0" />
        <path
           id="path161256"
           d="m 363.14289,559.44917 c 0,8.6108 4.87315,10.88178 10.1721,10.88178 10.07748,0 15.51837,-9.22586 15.51837,-9.22586 -0.3785,-3.35916 -1.5613,-5.8667 -4.11615,-8.04306 l -7.00219,2.55486 -0.0946,-0.0946 c 2.12905,-4.82583 6.19789,-21.9055 6.19789,-29.94855 0,-8.18499 -3.16991,-12.25383 -12.20652,-12.25383 -6.48176,0 -12.01727,3.35915 -13.86245,5.67745 0,0.47312 -0.0473,0.89893 -0.0473,1.32474 0,2.7441 0.28388,5.06239 1.08818,8.2323 l 5.91401,0.99355 c -1.13549,10.36135 -1.5613,21.38507 -1.5613,29.90125 z"
           style="font-style:normal;font-variant:normal;font-weight:normal;font-stretch:normal;font-size:medium;line-height:125%;font-family:Kavoon;-inkscape-font-specification:Kavoon;letter-spacing:0px;word-spacing:0px;fill:#2e3436;fill-opacity:1;stroke:none;stroke-width:1px;stroke-linecap:butt;stroke-linejoin:miter;stroke-opacity:1"
           inkscape:connector-curvature="0" />
        <path
           d="m 393.65919,562.66639 c 3.78497,6.24519 12.15921,7.71187 16.84311,7.71187 5.06239,0 8.80005,-0.47312 12.15921,-1.70324 5.86669,-2.17635 10.69253,-7.33337 10.69253,-14.76137 0,-5.39358 -3.26454,-9.65167 -7.8065,-12.77426 -3.87959,-2.64948 -8.75273,-4.35272 -12.58501,-6.00864 -1.84518,-0.80431 -4.25809,-1.70324 -4.25809,-3.9269 0,-1.5613 0.8043,-2.83873 2.08173,-3.16991 4.49465,0.89893 11.30759,4.3054 17.17429,6.19788 2.79141,-2.7441 4.44734,-9.22586 4.44734,-14.24094 0,-1.27743 -0.0946,-2.46023 -0.33119,-3.45378 -6.86025,-3.21722 -16.27536,-3.21722 -19.20871,-3.21722 -14.61943,0 -19.91839,7.8538 -19.91839,17.69472 0,14.66675 13.34201,17.55278 23.75067,23.23024 0.85162,0.47312 1.08818,1.04086 1.08818,1.56129 0,0.56775 -0.18925,1.18281 -0.3785,1.41937 -0.33118,0.14193 -1.08818,0.23656 -1.89248,0.23656 -6.38713,0 -12.44308,-2.50754 -18.16784,-4.77852 -3.1226,3.97421 -3.64304,6.48175 -3.69035,9.98285 z"
           style="font-style:normal;font-variant:normal;font-weight:normal;font-stretch:normal;font-size:medium;line-height:125%;font-family:Kavoon;-inkscape-font-specification:Kavoon;letter-spacing:0px;word-spacing:0px;fill:#2e3436;fill-opacity:1;stroke:none;stroke-width:1px;stroke-linecap:butt;stroke-linejoin:miter;stroke-opacity:1"
           id="path161258"
           inkscape:connector-curvature="0" />
        <path
           d="m 442.34333,567.77609 c 0,0 1.51399,2.55486 9.41511,2.55486 5.39358,0 8.94199,-1.75055 10.03016,-3.78497 -1.37205,-4.58927 -2.46023,-10.64522 -2.46023,-13.81513 0,-0.47312 0.0473,-0.94624 0.0946,-1.27743 1.37205,-3.35916 6.95488,-14.90331 9.41511,-18.07322 0.99355,0.0473 2.03442,0.33119 3.02797,1.41937 -0.47312,5.72476 -1.13549,18.30977 -1.13549,24.88616 0,8.42155 4.92046,10.64522 10.1721,10.64522 10.07747,0 15.70761,-9.22586 15.70761,-9.22586 -0.37849,-3.35916 -1.75054,-6.2452 -4.3054,-8.42155 l -7.00219,2.93335 -0.0946,-0.0946 c 1.51399,-4.49465 5.77207,-15.13987 5.77207,-25.97434 0,-8.18499 -3.26453,-16.22804 -14.19362,-16.22804 -13.24739,0 -16.89042,15.32911 -19.44527,25.50121 -0.0946,0.23656 -0.33119,0.33119 -0.56775,0.33119 -0.47312,0 -1.04086,-0.33119 -1.04086,-0.757 2.60216,-11.59146 3.9269,-28.90768 3.9269,-33.68621 0,-8.18499 -3.73766,-12.11189 -11.49684,-12.11189 -5.53551,0 -11.11834,3.97421 -12.30114,5.53551 0,3.21723 0.33118,6.29251 1.13549,9.3678 l 5.34626,0.94624 c -0.70968,6.86025 -0.85161,19.68183 -0.85161,30.18511 0,6.10326 0.0473,11.44953 0.0473,14.28826 0,9.46241 0.8043,14.85599 0.8043,14.85599 z"
           style="font-style:normal;font-variant:normal;font-weight:normal;font-stretch:normal;font-size:medium;line-height:125%;font-family:Kavoon;-inkscape-font-specification:Kavoon;letter-spacing:0px;word-spacing:0px;fill:#2e3436;fill-opacity:1;stroke:none;stroke-width:1px;stroke-linecap:butt;stroke-linejoin:miter;stroke-opacity:1"
           id="path161260"
           inkscape:connector-curvature="0" />
      </g>
      <g
         id="g161262">
        <g
           style="font-style:normal;font-variant:normal;font-weight:normal;font-stretch:normal;font-size:83.68031311px;line-height:125%;font-family:Kavoon;-inkscape-font-specification:Kavoon;letter-spacing:0px;word-spacing:0px;fill:#2e3436;fill-opacity:1;stroke:none;stroke-width:1px;stroke-linecap:butt;stroke-linejoin:miter;stroke-opacity:1"
           id="g161264">
          <path
             d="m -887.40097,1125.1851 c 3.92252,6.3332 12.25786,7.845 16.95671,7.845 5.35259,0 9.35683,-0.5312 12.87075,-1.9204 5.96549,-2.329 10.78691,-7.845 10.78691,-15.8943 0,-10.5827 -8.21276,-14.9138 -17.07928,-19.5718 -3.51392,-1.8386 -8.90738,-3.5139 -8.90738,-8.1719 0,-1.9612 0.44946,-3.8816 2.61501,-4.9031 0.81719,-0.041 4.98487,0.2452 8.62136,1.2258 l 1.26665,8.4988 c 1.18493,0.6946 2.45157,1.0623 4.90314,1.0623 2.24728,0 3.67736,-0.286 4.90315,-0.8989 2.28813,-2.5741 4.12681,-10.5418 4.12681,-16.3029 -2.16556,-2.9011 -4.45369,-4.5763 -7.02784,-6.129 -5.51604,-1.144 -12.25786,-1.1032 -14.42341,-1.1032 -15.03631,0 -20.42977,8.4988 -20.42977,19.2857 0,12.8299 9.39769,17.6513 18.63195,22.3502 2.86016,1.4709 8.5805,3.473 8.41706,7.1504 -0.0409,0.5312 -0.16344,1.5527 -0.44946,2.1655 -0.73547,0.3678 -2.12469,0.6129 -3.2279,0.6129 -6.98698,0 -13.40192,-2.6967 -19.53085,-5.3934 -2.28814,2.615 -3.18705,5.6386 -3.18705,8.2127 0,0.6538 0.0409,1.3076 0.16344,1.8796 z"
             id="path161266"
             inkscape:connector-curvature="0" />
          <path
             d="m -841.76087,1119.1787 c 0,8.9483 6.12892,13.8923 11.84926,13.8923 4.53541,0 11.35895,-1.5527 13.07505,-11.1955 l 1.22578,0.3677 c -0.36773,1.2666 -0.53117,2.4924 -0.53117,3.6365 0,4.0042 2.16555,7.1913 6.8644,7.1913 6.6601,0 12.05356,-6.0064 12.99333,-7.9676 -0.36774,-3.4731 -1.96126,-5.8838 -3.26876,-7.273 l -5.92463,2.5333 c -0.0409,0 3.18704,-11.7676 3.18704,-19.49 0,-14.7095 -10.7052,-17.0385 -20.5932,-17.0385 -11.48153,0 -16.75241,4.8623 -17.12015,5.1483 -0.0817,0.5312 -0.12257,1.0624 -0.12257,1.5527 0,3.7182 1.87953,7.3547 3.67735,10.3375 2.86017,-0.8989 6.94612,-2.1656 10.62348,-2.1656 6.12893,0 7.51815,1.7161 7.76331,2.1656 0.16344,0.7354 0.24516,3.3913 0.24516,4.8623 l 0,1.2666 c -2.98275,-0.8581 -7.273,-1.6752 -10.7052,-1.6752 -8.53964,0 -13.23848,4.7397 -13.23848,13.8513 z m 15.11802,-1.8386 c 0,-1.5936 0.69461,-2.5742 1.30751,-3.2688 0.57203,-0.2452 1.59352,-0.3269 2.86016,-0.3269 1.43009,0 3.06447,0.082 4.61713,0.286 l 0.24516,0.9807 c -0.44946,2.4924 -4.20854,5.516 -6.25151,5.8837 -2.08384,-0.2043 -2.77845,-2.0838 -2.77845,-3.5547 z"
             id="path161268"
             inkscape:connector-curvature="0" />
          <path
             d="m -791.42194,1123.1421 c -0.20429,7.8859 4.29025,9.9289 8.94824,9.9289 8.70308,0 13.56536,-7.9676 13.56536,-7.9676 -0.32687,-2.9011 -1.5118,-5.3935 -3.71821,-7.273 l -6.04721,2.5333 -0.0817,-0.082 c 3.10532,-14.2191 4.86228,-36.7327 4.98486,-43.7605 0.16344,-7.0687 -3.71822,-10.5826 -10.58262,-10.5826 -5.59775,0 -10.37832,2.901 -11.97184,4.9031 -0.0817,2.9828 0.2043,4.7806 0.98063,7.9676 l 5.02572,0.8581 c -1.22578,18.1416 -0.93977,36.0789 -1.10321,43.4745 z"
             id="path161270"
             inkscape:connector-curvature="0" />
          <path
             d="m -765.76215,1119.1787 c 0,8.9483 6.12893,13.8923 11.84926,13.8923 4.53541,0 11.35895,-1.5527 13.07505,-11.1955 l 1.22579,0.3677 c -0.36774,1.2666 -0.53118,2.4924 -0.53118,3.6365 0,4.0042 2.16556,7.1913 6.8644,7.1913 6.6601,0 12.05356,-6.0064 12.99333,-7.9676 -0.36773,-3.4731 -1.96126,-5.8838 -3.26876,-7.273 l -5.92463,2.5333 c -0.0409,0 3.18704,-11.7676 3.18704,-19.49 0,-14.7095 -10.7052,-17.0385 -20.5932,-17.0385 -11.48153,0 -16.75241,4.8623 -17.12014,5.1483 -0.0817,0.5312 -0.12258,1.0624 -0.12258,1.5527 0,3.7182 1.87954,7.3547 3.67736,10.3375 2.86016,-0.8989 6.94612,-2.1656 10.62347,-2.1656 6.12893,0 7.51816,1.7161 7.76331,2.1656 0.16344,0.7354 0.24516,3.3913 0.24516,4.8623 l 0,1.2666 c -2.98275,-0.8581 -7.273,-1.6752 -10.7052,-1.6752 -8.53964,0 -13.23848,4.7397 -13.23848,13.8513 z m 15.11802,-1.8386 c 0,-1.5936 0.69461,-2.5742 1.30751,-3.2688 0.57203,-0.2452 1.59352,-0.3269 2.86016,-0.3269 1.43009,0 3.06447,0.082 4.61713,0.286 l 0.24516,0.9807 c -0.44946,2.4924 -4.20853,5.516 -6.25151,5.8837 -2.08384,-0.2043 -2.77845,-2.0838 -2.77845,-3.5547 z"
             id="path161272"
             inkscape:connector-curvature="0" />
          <path
             d="m -703.53309,1133.071 c 6.74182,0 11.23637,-4.658 14.01482,-14.4234 l 1.22579,0.3677 c -0.36774,1.2666 -1.14407,5.7203 -1.14407,6.8644 0,4.0042 2.32899,7.1913 7.02784,7.1913 6.6601,0 12.05356,-6.0064 12.99333,-7.9676 -0.36774,-3.4731 -1.96126,-5.8838 -3.26876,-7.273 l -4.73971,2.0429 0.16344,-0.6946 c 1.55266,-9.3568 2.49243,-25.7415 2.49243,-36.2015 0,-11.645 -1.38922,-17.0384 -10.0923,-17.0384 -4.78057,0 -10.5009,1.1032 -13.97396,3.5547 -0.36774,1.1441 -0.49032,2.4108 -0.49032,3.5957 0,1.9612 0.4086,4.1677 1.22579,5.1891 l 8.29448,0.5312 c 0.69462,2.5742 1.10321,5.8021 1.18493,8.6622 l -0.65375,0.4086 c -4.16767,-2.901 -8.21277,-4.0451 -12.17614,-4.0451 -12.0127,0 -16.62983,13.3202 -16.62983,24.8426 0,10.9504 2.94189,24.3932 14.54599,24.3932 z m 3.79994,-12.5439 c -1.30751,-2.6559 -1.96126,-7.8042 -1.96126,-12.3804 0,-4.3311 0.65375,-8.5397 1.79782,-9.6429 0.49031,-0.082 1.26665,-0.2043 2.28813,-0.2043 1.75696,0 5.02573,0.4086 7.4773,2.1656 0.16344,0.6129 0.32687,2.2881 0.32687,4.0451 0,1.1849 -0.0817,2.4515 -0.24515,3.4322 -2.45158,5.5977 -8.37621,12.5847 -9.68371,12.5847 z"
             id="path161274"
             inkscape:connector-curvature="0" />
        </g>
        <g
           style="font-style:normal;font-variant:normal;font-weight:normal;font-stretch:normal;font-size:27.73532486px;line-height:125%;font-family:Kavoon;-inkscape-font-specification:Kavoon;letter-spacing:0px;word-spacing:0px;fill:#84c915;fill-opacity:1;stroke:none;stroke-width:1px;stroke-linecap:butt;stroke-linejoin:miter;stroke-opacity:1"
           id="g161276">
          <path
             d="m -668.34249,1130.1052 c 0,1.6116 1.70637,2.9658 3.42629,2.9658 1.71991,0 3.42629,-1.3542 3.42629,-2.9658 0,-1.3949 -0.86673,-2.7356 -3.42629,-2.7356 -2.55956,0 -3.42629,1.3407 -3.42629,2.7356 z"
             id="path161278"
             inkscape:connector-curvature="0" />
          <path
             d="m -652.45697,1133.071 c 3.25023,0 5.49831,-2.3429 6.08064,-3.02 -0.13542,-1.3542 -0.62296,-2.0314 -1.25946,-2.6679 -1.36781,0.5959 -2.64082,1.3001 -3.99508,1.3001 -2.27516,0 -2.4783,-2.1533 -2.4783,-3.5617 0,-1.3136 0.21668,-2.7627 0.6365,-3.643 0.0813,-0.014 0.20314,-0.027 0.35211,-0.027 0.69067,0 1.96368,0.1761 2.26162,0.5147 l 0.28439,2.5053 c 0.29794,0.1761 0.93445,0.2709 1.55741,0.2709 0.56879,0 1.13758,-0.068 1.44906,-0.2302 0.58233,-0.6501 1.25947,-4.3337 1.25947,-5.7963 -0.55525,-0.7448 -0.93445,-0.9615 -1.78763,-1.5574 -1.44907,-0.2979 -3.0471,-0.4063 -4.02217,-0.4063 -5.11911,0 -7.32656,3.6566 -7.32656,8.1798 0,4.4962 2.39704,8.1391 6.988,8.1391 z"
             id="path161280"
             inkscape:connector-curvature="0" />
          <path
             d="m -637.6955,1133.071 c 4.92952,0 7.31303,-3.5752 7.31303,-8.1391 0,-4.8076 -1.40844,-8.1798 -7.02863,-8.1798 -5.06495,0 -7.31303,3.2909 -7.2724,8.1798 0.0406,4.4691 1.78763,8.1391 6.988,8.1391 z m -1.15112,-4.3201 c -0.2844,-1.0157 -0.52816,-2.4512 -0.52816,-3.8325 0,-1.2189 0.18959,-2.3971 0.67713,-3.2367 0.17605,-0.1084 0.62296,-0.1625 1.09695,-0.149 0.59588,0.014 1.21884,0.1219 1.42198,0.3521 0.33857,0.7178 0.51462,2.072 0.51462,3.4398 0,1.4491 -0.20314,2.9252 -0.6365,3.6701 -0.0948,0.068 -0.43337,0.1083 -0.83965,0.1083 -0.65004,0 -1.47615,-0.1083 -1.70637,-0.3521 z"
             id="path161282"
             inkscape:connector-curvature="0" />
          <path
             d="m -627.0239,1132.3397 c 0,0 0.43337,0.7313 2.69499,0.7313 1.54386,0 2.55956,-0.5011 2.87104,-1.0834 -0.39274,-1.3136 -0.70422,-3.0471 -0.70422,-3.9544 0,-0.1355 0.0135,-0.2709 0.0271,-0.3657 0.39273,-0.9615 2.35642,-4.916 2.69498,-5.1733 0.29794,0.014 0.48754,0.081 0.63651,0.2032 0,1.6386 -0.32503,3.5075 -0.32503,5.3899 0,2.7086 0.23023,4.2524 0.23023,4.2524 0,0 0.29794,0.7313 2.55956,0.7313 1.54386,0 2.55955,-0.5011 2.87104,-1.0834 -0.24377,-0.8125 -0.46045,-1.7876 -0.58234,-2.6273 0.27085,-1.6792 1.92306,-6.0264 2.78979,-6.8661 0.29793,0.014 0.48753,0.081 0.6365,0.2032 -0.20314,2.1668 -0.29794,4.9837 -0.29794,7.3265 0,2.4106 1.40844,3.0471 2.91167,3.0471 2.88458,0 4.49616,-2.6408 4.49616,-2.6408 -0.10835,-0.9615 -0.50108,-1.7876 -1.23238,-2.4106 l -2.00432,0.8397 -0.0271,-0.027 c 0.43336,-1.2866 1.53032,-4.3337 1.53032,-7.4349 0,-2.3429 -0.90736,-4.6181 -3.84611,-4.6181 -3.67006,0 -4.40136,4.442 -5.13266,7.3537 -0.0271,0.068 -0.0948,0.095 -0.16251,0.095 -0.13543,0 -0.29794,-0.095 -0.29794,-0.1896 0.29794,-1.0834 0.48753,-2.1939 0.48753,-3.2232 0,-2.2345 -0.90735,-4.0357 -3.62942,-4.0357 -3.94091,0 -4.17114,4.3608 -4.90244,7.2724 -0.0271,0.068 -0.0948,0.095 -0.16251,0.095 -0.13543,0 -0.29794,-0.095 -0.29794,-0.1896 0,-0.014 0.0271,-0.2573 0.37919,-2.2616 0.13543,-0.7855 0.23023,-1.5032 0.23023,-2.1262 0,-1.7741 -0.7313,-2.8169 -3.00647,-2.8169 -1.58449,0 -3.00646,0.8126 -3.34503,1.1105 0,1.3543 0.0542,2.1127 0.46045,3.3586 l 1.5574,0.2032 c -0.32502,3.0741 -0.33856,3.9002 -0.33856,6.6629 0,2.7086 0.23022,4.2524 0.23022,4.2524 z"
             id="path161284"
             inkscape:connector-curvature="0" />
        </g>
      </g>
    </g>
    <g
       style="font-style:normal;font-variant:normal;font-weight:normal;font-stretch:normal;font-size:23.59750557px;line-height:125%;font-family:Calligraffiti;-inkscape-font-specification:Calligraffiti;letter-spacing:-1.8878001px;word-spacing:0px;fill:#000000;fill-opacity:1;stroke:none;stroke-width:1px;stroke-linecap:butt;stroke-linejoin:miter;stroke-opacity:1"
       id="motto">
      <path
         d="m 52.104971,977.40577 0,15.52943 3.463989,0 q 3.955501,0 5.792819,-1.87242 1.849021,-1.87243 1.849021,-5.90985 0,-4.01401 -1.849021,-5.88644 -1.837318,-1.86072 -5.792819,-1.86072 l -3.463989,0 z m -1.193672,-0.99473 4.294878,0 q 4.774688,0 7.009897,2.11818 2.235209,2.10648 2.235209,6.6003 0,4.51723 -2.246912,6.63542 -2.246912,2.11818 -6.998194,2.11818 l -4.294878,0 0,-17.47208 z"
         style="font-style:normal;font-variant:normal;font-weight:200;font-stretch:normal;font-size:23.96705818px;font-family:'DejaVu Sans';-inkscape-font-specification:'DejaVu Sans Ultra-Light';text-align:center;letter-spacing:-2.72227073px;text-anchor:middle"
         id="path41881" />
      <path
         d="m 77.714852,979.19627 q -1.685184,-2.1884 -4.552337,-2.1884 -2.867153,0 -4.56404,2.1884 -1.685183,2.1884 -1.685183,5.96836 0,3.75656 1.685183,5.94496 1.696887,2.18839 4.56404,2.18839 2.867153,0 4.552337,-2.18839 1.673481,-2.1884 1.673481,-5.94496 0,-3.77996 -1.673481,-5.96836 z m -4.552337,-3.1012 q 3.393773,0 5.430036,2.45756 2.036264,2.46926 2.036264,6.612 0,4.13104 -2.036264,6.5886 -2.036263,2.46926 -5.430036,2.46926 -3.405476,0 -5.453442,-2.45755 -2.036264,-2.45756 -2.036264,-6.60031 0,-4.14274 2.036264,-6.612 2.047966,-2.45756 5.453442,-2.45756 z"
         style="font-style:normal;font-variant:normal;font-weight:200;font-stretch:normal;font-size:23.96705818px;font-family:'DejaVu Sans';-inkscape-font-specification:'DejaVu Sans Ultra-Light';text-align:center;letter-spacing:-2.72227073px;text-anchor:middle"
         id="path41883" />
      <path
         d="m 88.618932,976.41104 1.62667,0 4.856606,12.95485 4.880012,-12.95485 1.61497,0 0,17.47208 -1.19367,0 0,-15.3422 -4.493828,11.98353 -1.614968,0 -4.48212,-11.98353 0,15.3422 -1.193672,0 0,-17.47208 z"
         style="font-style:normal;font-variant:normal;font-weight:200;font-stretch:normal;font-size:23.96705818px;font-family:'DejaVu Sans';-inkscape-font-specification:'DejaVu Sans Ultra-Light';text-align:center;letter-spacing:-2.72227073px;text-anchor:middle"
         id="path41885" />
      <path
         d="m 116.73319,979.19627 q -1.68519,-2.1884 -4.55234,-2.1884 -2.86715,0 -4.56404,2.1884 -1.68518,2.1884 -1.68518,5.96836 0,3.75656 1.68518,5.94496 1.69689,2.18839 4.56404,2.18839 2.86715,0 4.55234,-2.18839 1.67348,-2.1884 1.67348,-5.94496 0,-3.77996 -1.67348,-5.96836 z m -4.55234,-3.1012 q 3.39377,0 5.43004,2.45756 2.03626,2.46926 2.03626,6.612 0,4.13104 -2.03626,6.5886 -2.03627,2.46926 -5.43004,2.46926 -3.40548,0 -5.45344,-2.45755 -2.03627,-2.45756 -2.03627,-6.60031 0,-4.14274 2.03627,-6.612 2.04796,-2.45756 5.45344,-2.45756 z"
         style="font-style:normal;font-variant:normal;font-weight:200;font-stretch:normal;font-size:23.96705818px;font-family:'DejaVu Sans';-inkscape-font-specification:'DejaVu Sans Ultra-Light';text-align:center;letter-spacing:-2.72227073px;text-anchor:middle"
         id="path41887" />
      <path
         d="m 129.02544,985.69125 q 0.72556,0.25746 1.40432,1.10005 0.4798,0.60854 1.36921,2.31713 l 2.44585,4.77469 -1.25218,0 -2.49267,-4.7981 q -0.97132,-1.88412 -1.86072,-2.49266 -0.91281,-0.60854 -2.46926,-0.60854 l -3.17143,0 0,7.8993 -1.17026,0 0,-17.47208 4.73958,0 q 2.67991,0 4.00231,1.25218 1.3224,1.25219 1.3224,3.77996 0,1.62668 -0.69046,2.73843 -0.65535,1.08835 -2.17669,1.50964 z m -6.02688,-8.32059 0,7.64184 3.86188,0 q 1.87243,0 2.83205,-0.97132 0.95962,-0.97132 0.95962,-2.86716 0,-1.88413 -0.95962,-2.84374 -0.95962,-0.95962 -2.83205,-0.95962 l -3.86188,0 z"
         style="font-style:normal;font-variant:normal;font-weight:200;font-stretch:normal;font-size:23.96705818px;font-family:'DejaVu Sans';-inkscape-font-specification:'DejaVu Sans Ultra-Light';text-align:center;letter-spacing:-2.72227073px;text-anchor:middle"
         id="path41889" />
      <path
         d="m 135.73551,976.41104 9.87705,0 0,0.97132 -8.68338,0 0,6.70563 8.3206,0 0,0.94791 -8.3206,0 0,7.8993 8.89403,0 0,0.94792 -10.0877,0 0,-17.47208 z"
         style="font-style:normal;font-variant:normal;font-weight:200;font-stretch:normal;font-size:23.96705818px;font-family:'DejaVu Sans';-inkscape-font-specification:'DejaVu Sans Ultra-Light';text-align:center;letter-spacing:-2.72227073px;text-anchor:middle"
         id="path41891" />
      <path
         d="m 151.83557,976.41104 1.20538,0 3.99061,16.09116 3.9789,-16.09116 1.47454,0 3.9555,15.99754 3.97891,-15.99754 1.20537,0 -4.34169,17.47208 -1.67348,0 -3.86188,-15.56455 -3.85018,15.56455 -1.73199,0 -4.32999,-17.47208 z"
         style="font-style:normal;font-variant:normal;font-weight:200;font-stretch:normal;font-size:23.96705818px;font-family:'DejaVu Sans';-inkscape-font-specification:'DejaVu Sans Ultra-Light';text-align:center;letter-spacing:-2.72227073px;text-anchor:middle"
         id="path41893" />
      <path
         d="m 174.03998,976.41104 1.21707,0 0,17.47208 -1.21707,0 0,-17.47208 z"
         style="font-style:normal;font-variant:normal;font-weight:200;font-stretch:normal;font-size:23.96705818px;font-family:'DejaVu Sans';-inkscape-font-specification:'DejaVu Sans Ultra-Light';text-align:center;letter-spacing:-2.72227073px;text-anchor:middle"
         id="path41895" />
      <path
         d="m 176.01048,976.41104 13.5868,0 0,0.95962 -6.20242,0 0,16.51246 -1.18197,0 0,-16.51246 -6.20241,0 0,-0.95962 z"
         style="font-style:normal;font-variant:normal;font-weight:200;font-stretch:normal;font-size:23.96705818px;font-family:'DejaVu Sans';-inkscape-font-specification:'DejaVu Sans Ultra-Light';text-align:center;letter-spacing:-2.72227073px;text-anchor:middle"
         id="path41897" />
      <path
         d="m 190.32728,976.41104 1.18197,0 0,7.67695 9.77173,0 0,-7.67695 1.18197,0 0,17.47208 -1.18197,0 0,-8.84722 -9.77173,0 0,8.84722 -1.18197,0 0,-17.47208 z"
         style="font-style:normal;font-variant:normal;font-weight:200;font-stretch:normal;font-size:23.96705818px;font-family:'DejaVu Sans';-inkscape-font-specification:'DejaVu Sans Ultra-Light';text-align:center;letter-spacing:-2.72227073px;text-anchor:middle"
         id="path41899" />
      <path
         d="m 208.15935,976.41104 1.35751,0 5.44173,8.05143 5.40664,-8.05143 1.3341,0 -6.17901,9.15148 0,8.3206 -1.18197,0 0,-8.3206 -6.179,-9.15148 z"
         style="font-style:normal;font-variant:normal;font-weight:200;font-stretch:normal;font-size:23.96705818px;font-family:'DejaVu Sans';-inkscape-font-specification:'DejaVu Sans Ultra-Light';text-align:center;letter-spacing:-2.72227073px;text-anchor:middle"
         id="path41901" />
      <path
         d="m 232.23619,979.19627 q -1.68519,-2.1884 -4.55234,-2.1884 -2.86715,0 -4.56404,2.1884 -1.68518,2.1884 -1.68518,5.96836 0,3.75656 1.68518,5.94496 1.69689,2.18839 4.56404,2.18839 2.86715,0 4.55234,-2.18839 1.67348,-2.1884 1.67348,-5.94496 0,-3.77996 -1.67348,-5.96836 z m -4.55234,-3.1012 q 3.39377,0 5.43004,2.45756 2.03626,2.46926 2.03626,6.612 0,4.13104 -2.03626,6.5886 -2.03627,2.46926 -5.43004,2.46926 -3.40548,0 -5.45344,-2.45755 -2.03627,-2.45756 -2.03627,-6.60031 0,-4.14274 2.03627,-6.612 2.04796,-2.45756 5.45344,-2.45756 z"
         style="font-style:normal;font-variant:normal;font-weight:200;font-stretch:normal;font-size:23.96705818px;font-family:'DejaVu Sans';-inkscape-font-specification:'DejaVu Sans Ultra-Light';text-align:center;letter-spacing:-2.72227073px;text-anchor:middle"
         id="path41903" />
      <path
         d="m 237.06213,976.41104 1.17027,0 0,10.61432 q 0,3.32355 1.17027,4.78639 1.15856,1.45113 3.75655,1.45113 2.58629,0 3.74485,-1.45113 1.17027,-1.46284 1.17027,-4.78639 l 0,-10.61432 1.17027,0 0,10.90688 q 0,3.41718 -1.54475,5.16088 -1.53305,1.74369 -4.54064,1.74369 -3.01929,0 -4.55233,-1.74369 -1.54476,-1.7437 -1.54476,-5.16088 l 0,-10.90688 z"
         style="font-style:normal;font-variant:normal;font-weight:200;font-stretch:normal;font-size:23.96705818px;font-family:'DejaVu Sans';-inkscape-font-specification:'DejaVu Sans Ultra-Light';text-align:center;letter-spacing:-2.72227073px;text-anchor:middle"
         id="path41905" />
      <path
         d="m 259.36016,985.69125 q 0.72557,0.25746 1.40432,1.10005 0.47981,0.60854 1.36921,2.31713 l 2.44586,4.77469 -1.25219,0 -2.49266,-4.7981 q -0.97133,-1.88412 -1.86073,-2.49266 -0.91281,-0.60854 -2.46926,-0.60854 l -3.17142,0 0,7.8993 -1.17027,0 0,-17.47208 4.73958,0 q 2.67991,0 4.00231,1.25218 1.3224,1.25219 1.3224,3.77996 0,1.62668 -0.69045,2.73843 -0.65535,1.08835 -2.1767,1.50964 z m -6.02687,-8.32059 0,7.64184 3.86188,0 q 1.87242,0 2.83204,-0.97132 0.95962,-0.97132 0.95962,-2.86716 0,-1.88413 -0.95962,-2.84374 -0.95962,-0.95962 -2.83204,-0.95962 l -3.86188,0 z"
         style="font-style:normal;font-variant:normal;font-weight:200;font-stretch:normal;font-size:23.96705818px;font-family:'DejaVu Sans';-inkscape-font-specification:'DejaVu Sans Ultra-Light';text-align:center;letter-spacing:-2.72227073px;text-anchor:middle"
         id="path41907" />
      <path
         d="m 270.9664,976.41104 1.21708,0 0,17.47208 -1.21708,0 0,-17.47208 z"
         style="font-style:normal;font-variant:normal;font-weight:200;font-stretch:normal;font-size:23.96705818px;font-family:'DejaVu Sans';-inkscape-font-specification:'DejaVu Sans Ultra-Light';text-align:center;letter-spacing:-2.72227073px;text-anchor:middle"
         id="path41909" />
      <path
         d="m 275.31253,976.41104 1.73199,0 8.47273,15.97414 0,-15.97414 1.17027,0 0,17.47208 -1.66178,0 -8.51954,-16.07946 0,16.07946 -1.19367,0 0,-17.47208 z"
         style="font-style:normal;font-variant:normal;font-weight:200;font-stretch:normal;font-size:23.96705818px;font-family:'DejaVu Sans';-inkscape-font-specification:'DejaVu Sans Ultra-Light';text-align:center;letter-spacing:-2.72227073px;text-anchor:middle"
         id="path41911" />
      <path
         d="m 290.54216,976.41104 8.85892,0 0,0.97132 -7.67695,0 0,6.70563 6.92797,0 0,0.94791 -6.92797,0 0,8.84722 -1.18197,0 0,-17.47208 z"
         style="font-style:normal;font-variant:normal;font-weight:200;font-stretch:normal;font-size:23.96705818px;font-family:'DejaVu Sans';-inkscape-font-specification:'DejaVu Sans Ultra-Light';text-align:center;letter-spacing:-2.72227073px;text-anchor:middle"
         id="path41913" />
      <path
         d="m 312.69975,979.19627 q -1.68519,-2.1884 -4.55234,-2.1884 -2.86715,0 -4.56404,2.1884 -1.68518,2.1884 -1.68518,5.96836 0,3.75656 1.68518,5.94496 1.69689,2.18839 4.56404,2.18839 2.86715,0 4.55234,-2.18839 1.67348,-2.1884 1.67348,-5.94496 0,-3.77996 -1.67348,-5.96836 z m -4.55234,-3.1012 q 3.39377,0 5.43004,2.45756 2.03626,2.46926 2.03626,6.612 0,4.13104 -2.03626,6.5886 -2.03627,2.46926 -5.43004,2.46926 -3.40548,0 -5.45344,-2.45755 -2.03627,-2.45756 -2.03627,-6.60031 0,-4.14274 2.03627,-6.612 2.04796,-2.45756 5.45344,-2.45756 z"
         style="font-style:normal;font-variant:normal;font-weight:200;font-stretch:normal;font-size:23.96705818px;font-family:'DejaVu Sans';-inkscape-font-specification:'DejaVu Sans Ultra-Light';text-align:center;letter-spacing:-2.72227073px;text-anchor:middle"
         id="path41915" />
      <path
         d="m 324.992,985.69125 q 0.72556,0.25746 1.40432,1.10005 0.47981,0.60854 1.36921,2.31713 l 2.44585,4.77469 -1.25218,0 -2.49267,-4.7981 q -0.97132,-1.88412 -1.86072,-2.49266 -0.91281,-0.60854 -2.46926,-0.60854 l -3.17143,0 0,7.8993 -1.17026,0 0,-17.47208 4.73958,0 q 2.67991,0 4.00231,1.25218 1.3224,1.25219 1.3224,3.77996 0,1.62668 -0.69046,2.73843 -0.65535,1.08835 -2.17669,1.50964 z m -6.02688,-8.32059 0,7.64184 3.86188,0 q 1.87243,0 2.83205,-0.97132 0.95962,-0.97132 0.95962,-2.86716 0,-1.88413 -0.95962,-2.84374 -0.95962,-0.95962 -2.83205,-0.95962 l -3.86188,0 z"
         style="font-style:normal;font-variant:normal;font-weight:200;font-stretch:normal;font-size:23.96705818px;font-family:'DejaVu Sans';-inkscape-font-specification:'DejaVu Sans Ultra-Light';text-align:center;letter-spacing:-2.72227073px;text-anchor:middle"
         id="path41917" />
      <path
         d="m 332.63828,976.41104 1.62667,0 4.85661,12.95485 4.88001,-12.95485 1.61497,0 0,17.47208 -1.19367,0 0,-15.3422 -4.49383,11.98353 -1.61496,0 -4.48212,-11.98353 0,15.3422 -1.19368,0 0,-17.47208 z"
         style="font-style:normal;font-variant:normal;font-weight:200;font-stretch:normal;font-size:23.96705818px;font-family:'DejaVu Sans';-inkscape-font-specification:'DejaVu Sans Ultra-Light';text-align:center;letter-spacing:-2.72227073px;text-anchor:middle"
         id="path41919" />
      <path
         d="m 354.88951,977.59301 -3.74486,9.83024 7.4312,0 -3.68634,-9.83024 z m -0.74897,-1.18197 1.53305,0 6.68222,17.47208 -1.33411,0 -2.08307,-5.48855 -8.15676,0 -2.07137,5.48855 -1.24048,0 6.67052,-17.47208 z"
         style="font-style:normal;font-variant:normal;font-weight:200;font-stretch:normal;font-size:23.96705818px;font-family:'DejaVu Sans';-inkscape-font-specification:'DejaVu Sans Ultra-Light';text-align:center;letter-spacing:-2.72227073px;text-anchor:middle"
         id="path41921" />
      <path
         d="m 359.07181,976.41104 13.58679,0 0,0.95962 -6.20241,0 0,16.51246 -1.18197,0 0,-16.51246 -6.20241,0 0,-0.95962 z"
         style="font-style:normal;font-variant:normal;font-weight:200;font-stretch:normal;font-size:23.96705818px;font-family:'DejaVu Sans';-inkscape-font-specification:'DejaVu Sans Ultra-Light';text-align:center;letter-spacing:-2.72227073px;text-anchor:middle"
         id="path41923" />
      <path
         d="m 373.37692,976.41104 1.21708,0 0,17.47208 -1.21708,0 0,-17.47208 z"
         style="font-style:normal;font-variant:normal;font-weight:200;font-stretch:normal;font-size:23.96705818px;font-family:'DejaVu Sans';-inkscape-font-specification:'DejaVu Sans Ultra-Light';text-align:center;letter-spacing:-2.72227073px;text-anchor:middle"
         id="path41925" />
      <path
         d="m 388.81718,979.19627 q -1.68518,-2.1884 -4.55234,-2.1884 -2.86715,0 -4.56404,2.1884 -1.68518,2.1884 -1.68518,5.96836 0,3.75656 1.68518,5.94496 1.69689,2.18839 4.56404,2.18839 2.86716,0 4.55234,-2.18839 1.67348,-2.1884 1.67348,-5.94496 0,-3.77996 -1.67348,-5.96836 z m -4.55234,-3.1012 q 3.39377,0 5.43004,2.45756 2.03626,2.46926 2.03626,6.612 0,4.13104 -2.03626,6.5886 -2.03627,2.46926 -5.43004,2.46926 -3.40547,0 -5.45344,-2.45755 -2.03626,-2.45756 -2.03626,-6.60031 0,-4.14274 2.03626,-6.612 2.04797,-2.45756 5.45344,-2.45756 z"
         style="font-style:normal;font-variant:normal;font-weight:200;font-stretch:normal;font-size:23.96705818px;font-family:'DejaVu Sans';-inkscape-font-specification:'DejaVu Sans Ultra-Light';text-align:center;letter-spacing:-2.72227073px;text-anchor:middle"
         id="path41927" />
      <path
         d="m 393.86548,976.41104 1.73199,0 8.47273,15.97414 0,-15.97414 1.17027,0 0,17.47208 -1.66178,0 -8.51954,-16.07946 0,16.07946 -1.19367,0 0,-17.47208 z"
         style="font-style:normal;font-variant:normal;font-weight:200;font-stretch:normal;font-size:23.96705818px;font-family:'DejaVu Sans';-inkscape-font-specification:'DejaVu Sans Ultra-Light';text-align:center;letter-spacing:-2.72227073px;text-anchor:middle"
         id="path41929" />
      <path
         d="m 409.37595,992.40858 1.18197,0 0,0.51492 -0.92451,3.74485 -0.72556,0 0.4681,-3.74485 0,-0.51492 z"
         style="font-style:normal;font-variant:normal;font-weight:200;font-stretch:normal;font-size:23.96705818px;font-family:'DejaVu Sans';-inkscape-font-specification:'DejaVu Sans Ultra-Light';text-align:center;letter-spacing:-2.72227073px;text-anchor:middle"
         id="path41931" />
      <path
         d="m 128.54104,1005.7225 1.05221,0 0,9.5435 q 0,2.9883 1.05221,4.3035 1.04168,1.3048 3.37758,1.3048 2.32538,0 3.36706,-1.3048 1.05221,-1.3152 1.05221,-4.3035 l 0,-9.5435 1.05221,0 0,9.8066 q 0,3.0724 -1.38892,4.6402 -1.37839,1.5678 -4.08256,1.5678 -2.71469,0 -4.09308,-1.5678 -1.38892,-1.5678 -1.38892,-4.6402 l 0,-9.8066 z"
         style="font-style:normal;font-variant:normal;font-weight:200;font-stretch:normal;font-size:21.54919624px;font-family:'DejaVu Sans';-inkscape-font-specification:'DejaVu Sans Ultra-Light';text-align:center;letter-spacing:-2.72227073px;text-anchor:middle"
         id="path41933" />
      <path
         d="m 141.80179,1005.7225 1.55727,0 7.61798,14.3626 0,-14.3626 1.05221,0 0,15.7094 -1.49414,0 -7.66006,-14.4573 0,14.4573 -1.07326,0 0,-15.7094 z"
         style="font-style:normal;font-variant:normal;font-weight:200;font-stretch:normal;font-size:21.54919624px;font-family:'DejaVu Sans';-inkscape-font-specification:'DejaVu Sans Ultra-Light';text-align:center;letter-spacing:-2.72227073px;text-anchor:middle"
         id="path41935" />
      <path
         d="m 156.28311,1006.6169 0,13.9628 3.11453,0 q 3.55646,0 5.20842,-1.6836 1.66249,-1.6835 1.66249,-5.3136 0,-3.6091 -1.66249,-5.2926 -1.65196,-1.673 -5.20842,-1.673 l -3.11453,0 z m -1.07326,-0.8944 3.8616,0 q 4.29301,0 6.30272,1.9045 2.00972,1.894 2.00972,5.9344 0,4.0615 -2.02024,5.966 -2.02024,1.9045 -6.2922,1.9045 l -3.8616,0 0,-15.7094 z"
         style="font-style:normal;font-variant:normal;font-weight:200;font-stretch:normal;font-size:21.54919624px;font-family:'DejaVu Sans';-inkscape-font-specification:'DejaVu Sans Ultra-Light';text-align:center;letter-spacing:-2.72227073px;text-anchor:middle"
         id="path41937" />
      <path
         d="m 169.07036,1005.7225 8.88063,0 0,0.8733 -7.80738,0 0,6.0292 7.48119,0 0,0.8523 -7.48119,0 0,7.1024 7.99678,0 0,0.8522 -9.07003,0 0,-15.7094 z"
         style="font-style:normal;font-variant:normal;font-weight:200;font-stretch:normal;font-size:21.54919624px;font-family:'DejaVu Sans';-inkscape-font-specification:'DejaVu Sans Ultra-Light';text-align:center;letter-spacing:-2.72227073px;text-anchor:middle"
         id="path41939" />
      <path
         d="m 186.48733,1014.0665 q 0.65237,0.2315 1.26265,0.9891 0.4314,0.5471 1.23108,2.0833 l 2.19911,4.293 -1.12586,0 -2.2412,-4.314 q -0.87333,-1.6941 -1.67301,-2.2412 -0.82072,-0.5472 -2.22015,-0.5472 l -2.85148,0 0,7.1024 -1.05221,0 0,-15.7094 4.26144,0 q 2.40955,0 3.59854,1.1259 1.189,1.1258 1.189,3.3986 0,1.4625 -0.6208,2.4621 -0.58924,0.9786 -1.95711,1.3574 z m -5.41886,-7.4812 0,6.8709 3.47228,0 q 1.68353,0 2.54634,-0.8733 0.86281,-0.8734 0.86281,-2.5779 0,-1.6941 -0.86281,-2.5569 -0.86281,-0.8628 -2.54634,-0.8628 l -3.47228,0 z"
         style="font-style:normal;font-variant:normal;font-weight:200;font-stretch:normal;font-size:21.54919624px;font-family:'DejaVu Sans';-inkscape-font-specification:'DejaVu Sans Ultra-Light';text-align:center;letter-spacing:-2.72227073px;text-anchor:middle"
         id="path41941" />
      <path
         d="m 193.72189,1005.7225 2.28328,0 4.35614,6.4605 4.32457,-6.4605 2.28329,0 -5.55565,8.2282 0,7.4812 -2.13598,0 0,-7.4812 -5.55565,-8.2282 z"
         style="font-style:normal;font-variant:normal;font-weight:normal;font-stretch:normal;font-family:'DejaVu Sans';-inkscape-font-specification:'DejaVu Sans'"
         id="path41943" />
      <path
         d="m 211.52817,1007.164 q -2.31485,0 -3.68272,1.7256 -1.35735,1.7257 -1.35735,4.7034 0,2.9672 1.35735,4.6928 1.36787,1.7257 3.68272,1.7257 2.31486,0 3.66168,-1.7257 1.35735,-1.7256 1.35735,-4.6928 0,-2.9777 -1.35735,-4.7034 -1.34682,-1.7256 -3.66168,-1.7256 z m 0,-1.7256 q 3.30393,0 5.28208,2.2202 1.97815,2.2096 1.97815,5.9344 0,3.7143 -1.97815,5.9344 -1.97815,2.2097 -5.28208,2.2097 -3.31445,0 -5.30312,-2.2097 -1.97815,-2.2096 -1.97815,-5.9344 0,-3.7248 1.97815,-5.9344 1.98867,-2.2202 5.30312,-2.2202 z"
         style="font-style:normal;font-variant:normal;font-weight:normal;font-stretch:normal;font-family:'DejaVu Sans';-inkscape-font-specification:'DejaVu Sans'"
         id="path41945" />
      <path
         d="m 219.14909,1005.7225 2.13598,0 0,9.5435 q 0,2.5253 0.91542,3.6406 0.91542,1.1049 2.96723,1.1049 2.04128,0 2.9567,-1.1049 0.91542,-1.1153 0.91542,-3.6406 l 0,-9.5435 2.13598,0 0,9.8066 q 0,3.0724 -1.5257,4.6402 -1.51518,1.5678 -4.4824,1.5678 -2.97775,0 -4.50345,-1.5678 -1.51518,-1.5678 -1.51518,-4.6402 l 0,-9.8066 z"
         style="font-style:normal;font-variant:normal;font-weight:normal;font-stretch:normal;font-family:'DejaVu Sans';-inkscape-font-specification:'DejaVu Sans'"
         id="path41947" />
      <path
         d="m 239.90156,1014.0665 q 0.68393,0.2315 1.32578,0.9891 0.65236,0.7576 1.30473,2.0833 l 2.15703,4.293 -2.28329,0 -2.00972,-4.0299 q -0.77863,-1.5783 -1.51518,-2.0939 -0.72602,-0.5156 -1.98867,-0.5156 l -2.31485,0 0,6.6394 -2.12546,0 0,-15.7094 4.79806,0 q 2.69365,0 4.01943,1.1259 1.32578,1.1258 1.32578,3.3986 0,1.4836 -0.69445,2.4621 -0.68394,0.9786 -1.99919,1.3574 z m -5.32417,-6.5973 0,5.5766 2.6726,0 q 1.53623,0 2.31486,-0.7049 0.78915,-0.7155 0.78915,-2.0939 0,-1.3784 -0.78915,-2.0729 -0.77863,-0.7049 -2.31486,-0.7049 l -2.6726,0 z"
         style="font-style:normal;font-variant:normal;font-weight:normal;font-stretch:normal;font-family:'DejaVu Sans';-inkscape-font-specification:'DejaVu Sans'"
         id="path41949" />
      <path
         d="m 260.61487,1007.0272 0,1.2101 q -1.07325,-0.9786 -2.28329,-1.4521 -1.22056,-0.484 -2.58843,-0.484 -2.96722,0 -4.53501,1.8729 -1.57831,1.873 -1.57831,5.4189 0,3.5459 1.57831,5.4294 1.56779,1.8834 4.53501,1.8834 1.36787,0 2.58843,-0.484 1.21004,-0.4945 2.28329,-1.4731 l 0,1.2732 q -1.11534,0.7576 -2.36746,1.1364 -1.24161,0.3788 -2.63052,0.3788 -3.30393,0 -5.1979,-2.1781 -1.89397,-2.1886 -1.89397,-5.966 0,-3.7879 1.89397,-5.966 1.89397,-2.1886 5.1979,-2.1886 1.40996,0 2.65156,0.3998 1.25213,0.3893 2.34642,1.189 z"
         style="font-style:normal;font-variant:normal;font-weight:200;font-stretch:normal;font-size:21.54919624px;font-family:'DejaVu Sans';-inkscape-font-specification:'DejaVu Sans Ultra-Light';text-align:center;letter-spacing:-2.72227073px;text-anchor:middle"
         id="path41951" />
      <path
         d="m 271.66599,1008.2267 q -1.51518,-1.9676 -4.09309,-1.9676 -2.5779,0 -4.1036,1.9676 -1.51518,1.9677 -1.51518,5.3663 0,3.3776 1.51518,5.3452 1.5257,1.9676 4.1036,1.9676 2.57791,0 4.09309,-1.9676 1.50465,-1.9676 1.50465,-5.3452 0,-3.3986 -1.50465,-5.3663 z m -4.09309,-2.7883 q 3.0514,0 4.88224,2.2096 1.83084,2.2202 1.83084,5.945 0,3.7143 -1.83084,5.9239 -1.83084,2.2202 -4.88224,2.2202 -3.06192,0 -4.90328,-2.2097 -1.83084,-2.2096 -1.83084,-5.9344 0,-3.7248 1.83084,-5.945 1.84136,-2.2096 4.90328,-2.2096 z"
         style="font-style:normal;font-variant:normal;font-weight:200;font-stretch:normal;font-size:21.54919624px;font-family:'DejaVu Sans';-inkscape-font-specification:'DejaVu Sans Ultra-Light';text-align:center;letter-spacing:-2.72227073px;text-anchor:middle"
         id="path41953" />
      <path
         d="m 275.93037,1005.7225 1.55727,0 7.61797,14.3626 0,-14.3626 1.05221,0 0,15.7094 -1.49413,0 -7.66007,-14.4573 0,14.4573 -1.07325,0 0,-15.7094 z"
         style="font-style:normal;font-variant:normal;font-weight:200;font-stretch:normal;font-size:21.54919624px;font-family:'DejaVu Sans';-inkscape-font-specification:'DejaVu Sans Ultra-Light';text-align:center;letter-spacing:-2.72227073px;text-anchor:middle"
         id="path41955" />
      <path
         d="m 287.19193,1005.7225 12.21612,0 0,0.8628 -5.5767,0 0,14.8466 -1.06273,0 0,-14.8466 -5.57669,0 0,-0.8628 z"
         style="font-style:normal;font-variant:normal;font-weight:200;font-stretch:normal;font-size:21.54919624px;font-family:'DejaVu Sans';-inkscape-font-specification:'DejaVu Sans Ultra-Light';text-align:center;letter-spacing:-2.72227073px;text-anchor:middle"
         id="path41957" />
      <path
         d="m 306.29244,1014.0665 q 0.65237,0.2315 1.26265,0.9891 0.4314,0.5471 1.23108,2.0833 l 2.19911,4.293 -1.12586,0 -2.2412,-4.314 q -0.87333,-1.6941 -1.67301,-2.2412 -0.82072,-0.5472 -2.22016,-0.5472 l -2.85148,0 0,7.1024 -1.0522,0 0,-15.7094 4.26143,0 q 2.40956,0 3.59855,1.1259 1.18899,1.1258 1.18899,3.3986 0,1.4625 -0.6208,2.4621 -0.58923,0.9786 -1.9571,1.3574 z m -5.41887,-7.4812 0,6.8709 3.47229,0 q 1.68353,0 2.54634,-0.8733 0.86281,-0.8734 0.86281,-2.5779 0,-1.6941 -0.86281,-2.5569 -0.86281,-0.8628 -2.54634,-0.8628 l -3.47229,0 z"
         style="font-style:normal;font-variant:normal;font-weight:200;font-stretch:normal;font-size:21.54919624px;font-family:'DejaVu Sans';-inkscape-font-specification:'DejaVu Sans Ultra-Light';text-align:center;letter-spacing:-2.72227073px;text-anchor:middle"
         id="path41959" />
      <path
         d="m 322.01535,1008.2267 q -1.51518,-1.9676 -4.09308,-1.9676 -2.57791,0 -4.10361,1.9676 -1.51518,1.9677 -1.51518,5.3663 0,3.3776 1.51518,5.3452 1.5257,1.9676 4.10361,1.9676 2.5779,0 4.09308,-1.9676 1.50466,-1.9676 1.50466,-5.3452 0,-3.3986 -1.50466,-5.3663 z m -4.09308,-2.7883 q 3.0514,0 4.88224,2.2096 1.83084,2.2202 1.83084,5.945 0,3.7143 -1.83084,5.9239 -1.83084,2.2202 -4.88224,2.2202 -3.06192,0 -4.90329,-2.2097 -1.83084,-2.2096 -1.83084,-5.9344 0,-3.7248 1.83084,-5.945 1.84137,-2.2096 4.90329,-2.2096 z"
         style="font-style:normal;font-variant:normal;font-weight:200;font-stretch:normal;font-size:21.54919624px;font-family:'DejaVu Sans';-inkscape-font-specification:'DejaVu Sans Ultra-Light';text-align:center;letter-spacing:-2.72227073px;text-anchor:middle"
         id="path41961" />
      <path
         d="m 326.30078,1005.7225 1.05221,0 0,14.8466 7.64954,0 0,0.8628 -8.70175,0 0,-15.7094 z"
         style="font-style:normal;font-variant:normal;font-weight:200;font-stretch:normal;font-size:21.54919624px;font-family:'DejaVu Sans';-inkscape-font-specification:'DejaVu Sans Ultra-Light';text-align:center;letter-spacing:-2.72227073px;text-anchor:middle"
         id="path41963" />
    </g>
  </g>
</svg>
