<?xml version="1.0" encoding="UTF-8" standalone="no"?>
<!-- Created with Inkscape (http://www.inkscape.org/) -->

<svg
   xmlns:dc="http://purl.org/dc/elements/1.1/"
   xmlns:cc="http://creativecommons.org/ns#"
   xmlns:rdf="http://www.w3.org/1999/02/22-rdf-syntax-ns#"
   xmlns:svg="http://www.w3.org/2000/svg"
   xmlns="http://www.w3.org/2000/svg"
   xmlns:sodipodi="http://sodipodi.sourceforge.net/DTD/sodipodi-0.dtd"
   xmlns:inkscape="http://www.inkscape.org/namespaces/inkscape"
   width="450"
   height="260"
   viewBox="0 0 450 260"
   id="svg163537"
   version="1.1"
   inkscape:version="0.91 r13725"
   sodipodi:docname="logo.svg">
  <defs
     id="defs163539" />
  <sodipodi:namedview
     id="base"
     pagecolor="#ffffff"
     bordercolor="#666666"
     borderopacity="1.0"
     inkscape:pageopacity="0.0"
     inkscape:pageshadow="2"
     inkscape:zoom="2.1323198"
     inkscape:cx="137.20299"
     inkscape:cy="127.45187"
     inkscape:document-units="px"
     inkscape:current-layer="layer1"
     showgrid="false"
     units="px"
     inkscape:window-width="1920"
     inkscape:window-height="1032"
     inkscape:window-x="1920"
     inkscape:window-y="0"
     inkscape:window-maximized="1" />
  <metadata
     id="metadata163542">
    <rdf:RDF>
      <cc:Work
         rdf:about="">
        <dc:format>image/svg+xml</dc:format>
        <dc:type
           rdf:resource="http://purl.org/dc/dcmitype/StillImage" />
        <dc:title></dc:title>
      </cc:Work>
    </rdf:RDF>
  </metadata>
  <g
     inkscape:label="Layer 1"
     inkscape:groupmode="layer"
     id="layer1"
     transform="translate(0,-792.36216)">
    <g
       transform="matrix(0.91221252,0,0,0.91221252,-1072.6054,183.44151)"
       id="motto"
       style="font-style:normal;font-variant:normal;font-weight:normal;font-stretch:semi-condensed;font-size:32.9915123px;line-height:125%;font-family:'DejaVu Sans';-inkscape-font-specification:'DejaVu Sans Semi-Condensed';letter-spacing:-2.63932085px;word-spacing:0px;fill:#2e3436;fill-opacity:1;stroke:none;stroke-width:1px;stroke-linecap:butt;stroke-linejoin:miter;stroke-opacity:1"
       inkscape:label="#g161130">
      <path
         inkscape:connector-curvature="0"
         id="path161132"
         style="font-style:oblique;font-variant:normal;font-weight:normal;font-stretch:semi-condensed;font-size:33.50818253px;font-family:'DejaVu Sans';-inkscape-font-specification:'DejaVu Sans Oblique Semi-Condensed';text-align:center;text-anchor:middle;fill:#2e3436;fill-opacity:1"
         d="m 1233.0103,867.65517 6.3974,0 q 5.0884,0 7.6898,2.40513 2.6015,2.38876 2.6015,7.11721 0,3.12503 -0.9981,6.021 -0.9816,2.87961 -2.7159,4.85935 -1.7507,2.02881 -4.4504,3.02686 -2.6832,0.99804 -6.3645,0.99804 l -6.4301,0 4.2703,-24.42759 z m 2.5033,2.71599 -3.305,18.99561 3.8941,0 q 4.9902,0 7.7225,-3.19048 2.7324,-3.19047 2.7324,-8.99878 0,-3.5177 -1.767,-5.15384 -1.7671,-1.65251 -5.5302,-1.65251 l -3.7468,0 z" />
      <path
         inkscape:connector-curvature="0"
         id="path161134"
         style="font-style:oblique;font-variant:normal;font-weight:normal;font-stretch:semi-condensed;font-size:33.50818253px;font-family:'DejaVu Sans';-inkscape-font-specification:'DejaVu Sans Oblique Semi-Condensed';text-align:center;text-anchor:middle;fill:#2e3436;fill-opacity:1"
         d="m 1256.173,892.55724 q -2.896,0 -4.5812,-1.97973 -1.6852,-1.99609 -1.6852,-5.43199 0,-1.99609 0.5726,-4.05763 0.589,-2.0779 1.5053,-3.48498 1.4725,-2.19243 3.2559,-3.23956 1.7997,-1.04713 4.074,-1.04713 2.8141,0 4.5321,1.94701 1.7343,1.94701 1.7343,5.0884 0,2.17607 -0.5726,4.33577 -0.5727,2.15971 -1.5053,3.58315 -1.4398,2.19243 -3.2396,3.23956 -1.7997,1.04713 -4.0903,1.04713 z m -3.4686,-7.50989 q 0,2.48694 0.9326,3.73041 0.9489,1.2271 2.8469,1.2271 2.7159,0 4.4993,-2.63418 1.7998,-2.65055 1.7998,-6.70819 0,-2.3724 -0.9653,-3.58315 -0.949,-1.21074 -2.7978,-1.21074 -1.538,0 -2.7324,0.80171 -1.1944,0.78535 -2.127,2.40513 -0.7035,1.21074 -1.0798,2.76508 -0.3763,1.55433 -0.3763,3.20683 z" />
      <path
         inkscape:connector-curvature="0"
         id="path161136"
         style="font-style:oblique;font-variant:normal;font-weight:normal;font-stretch:semi-condensed;font-size:33.50818253px;font-family:'DejaVu Sans';-inkscape-font-specification:'DejaVu Sans Oblique Semi-Condensed';text-align:center;text-anchor:middle;fill:#2e3436;fill-opacity:1"
         d="m 1276.3363,867.65517 4.4667,0 2.5688,16.45958 8.5079,-16.45958 4.5812,0 -4.2867,24.42759 -2.896,0 3.7468,-21.41709 -8.6225,16.72137 -2.9123,0 -2.7978,-16.78682 -3.7304,21.48254 -2.896,0 4.2703,-24.42759 z" />
      <path
         inkscape:connector-curvature="0"
         id="path161138"
         style="font-style:oblique;font-variant:normal;font-weight:normal;font-stretch:semi-condensed;font-size:33.50818253px;font-family:'DejaVu Sans';-inkscape-font-specification:'DejaVu Sans Oblique Semi-Condensed';text-align:center;text-anchor:middle;fill:#2e3436;fill-opacity:1"
         d="m 1302.3131,892.55724 q -2.8959,0 -4.5812,-1.97973 -1.6852,-1.99609 -1.6852,-5.43199 0,-1.99609 0.5727,-4.05763 0.589,-2.0779 1.5052,-3.48498 1.4726,-2.19243 3.2559,-3.23956 1.7998,-1.04713 4.074,-1.04713 2.8142,0 4.5322,1.94701 1.7343,1.94701 1.7343,5.0884 0,2.17607 -0.5727,4.33577 -0.5726,2.15971 -1.5052,3.58315 -1.4398,2.19243 -3.2396,3.23956 -1.7998,1.04713 -4.0904,1.04713 z m -3.4686,-7.50989 q 0,2.48694 0.9326,3.73041 0.949,1.2271 2.8469,1.2271 2.716,0 4.4994,-2.63418 1.7998,-2.65055 1.7998,-6.70819 0,-2.3724 -0.9654,-3.58315 -0.9489,-1.21074 -2.7978,-1.21074 -1.5379,0 -2.7323,0.80171 -1.1944,0.78535 -2.127,2.40513 -0.7035,1.21074 -1.0799,2.76508 -0.3763,1.55433 -0.3763,3.20683 z" />
      <path
         inkscape:connector-curvature="0"
         id="path161140"
         style="font-style:oblique;font-variant:normal;font-weight:normal;font-stretch:semi-condensed;font-size:33.50818253px;font-family:'DejaVu Sans';-inkscape-font-specification:'DejaVu Sans Oblique Semi-Condensed';text-align:center;text-anchor:middle;fill:#2e3436;fill-opacity:1"
         d="m 1323.9214,876.53942 q -0.4253,-0.24542 -0.9489,-0.37632 -0.5236,-0.13089 -1.129,-0.13089 -2.176,0 -3.7958,1.83248 -1.6198,1.81612 -2.1433,4.8757 l -1.6689,9.34237 -2.6996,0 3.2232,-18.32478 2.716,0 -0.5236,2.84688 q 1.0798,-1.58705 2.5687,-2.43785 1.4889,-0.85079 3.1905,-0.85079 0.4418,0 0.8672,0.0654 0.4254,0.0491 0.8508,0.17998 l -0.5073,2.97778 z" />
      <path
         inkscape:connector-curvature="0"
         id="path161142"
         style="font-style:oblique;font-variant:normal;font-weight:normal;font-stretch:semi-condensed;font-size:33.50818253px;font-family:'DejaVu Sans';-inkscape-font-specification:'DejaVu Sans Oblique Semi-Condensed';text-align:center;text-anchor:middle;fill:#2e3436;fill-opacity:1"
         d="m 1334.6985,881.28423 q 0.049,-0.26178 0.065,-0.53993 0.033,-0.27814 0.033,-0.55629 0,-1.99609 -1.0635,-3.15775 -1.0472,-1.16166 -2.8633,-1.16166 -2.0124,0 -3.5668,1.42344 -1.538,1.40708 -2.3233,4.00855 l 9.7187,-0.0164 z m 2.356,2.35604 -12.5983,0 q -0.082,0.62174 -0.1145,0.98169 -0.033,0.35995 -0.033,0.62173 0,2.27424 1.2598,3.51771 1.2598,1.24346 3.5504,1.24346 1.7671,0 3.3378,-0.44175 1.587,-0.44176 2.945,-1.29256 l -0.5235,2.97778 q -1.4562,0.65446 -3.0105,0.98169 -1.5544,0.32722 -3.1578,0.32722 -3.4359,0 -5.2847,-1.81611 -1.8325,-1.83248 -1.8325,-5.18657 0,-2.86325 0.9162,-5.31746 0.9163,-2.47058 2.6997,-4.40122 1.1453,-1.21075 2.7323,-1.86521 1.5871,-0.65445 3.3705,-0.65445 2.7978,0 4.4503,1.8652 1.6525,1.8652 1.6525,5.00659 0,0.75263 -0.098,1.61978 -0.082,0.8508 -0.2618,1.83248 z" />
      <path
         inkscape:connector-curvature="0"
         id="path161144"
         style="font-style:oblique;font-variant:normal;font-weight:normal;font-stretch:semi-condensed;font-size:33.50818253px;font-family:'DejaVu Sans';-inkscape-font-specification:'DejaVu Sans Oblique Semi-Condensed';text-align:center;text-anchor:middle;fill:#2e3436;fill-opacity:1"
         d="m 1345.9612,867.65517 2.896,0 1.0471,20.779 8.2953,-20.779 3.3213,0 1.0799,20.779 8.2134,-20.779 3.0105,0 -9.7841,24.42759 -3.7304,0 -1.0144,-20.36996 -8.2298,20.36996 -3.7468,0 -1.358,-24.42759 z" />
      <path
         inkscape:connector-curvature="0"
         id="path161146"
         style="font-style:oblique;font-variant:normal;font-weight:normal;font-stretch:semi-condensed;font-size:33.50818253px;font-family:'DejaVu Sans';-inkscape-font-specification:'DejaVu Sans Oblique Semi-Condensed';text-align:center;text-anchor:middle;fill:#2e3436;fill-opacity:1"
         d="m 1375.7993,866.6244 2.6997,0 -0.6545,3.81221 -2.716,0 0.6708,-3.81221 z m -1.2434,7.13358 2.716,0 -3.2396,18.32478 -2.6996,0 3.2232,-18.32478 z" />
      <path
         inkscape:connector-curvature="0"
         id="path161148"
         style="font-style:oblique;font-variant:normal;font-weight:normal;font-stretch:semi-condensed;font-size:33.50818253px;font-family:'DejaVu Sans';-inkscape-font-specification:'DejaVu Sans Oblique Semi-Condensed';text-align:center;text-anchor:middle;fill:#2e3436;fill-opacity:1"
         d="m 1388.7524,873.75798 -0.409,2.33968 -5.3993,0 -1.7506,9.94774 q -0.098,0.55629 -0.1473,0.9326 -0.033,0.37631 -0.033,0.58901 0,1.04713 0.5563,1.52161 0.5726,0.47449 1.8325,0.47449 l 2.7323,0 -0.4581,2.51965 -2.5851,0 q -2.4215,0 -3.6159,-1.04713 -1.178,-1.04713 -1.178,-3.17411 0,-0.37631 0.049,-0.81807 0.049,-0.45812 0.1309,-0.99805 l 1.7506,-9.94774 -2.2906,0 0.4254,-2.33968 2.2579,0 0.9163,-5.20293 2.6996,0 -0.8999,5.20293 5.4156,0 z" />
      <path
         inkscape:connector-curvature="0"
         id="path161150"
         style="font-style:oblique;font-variant:normal;font-weight:normal;font-stretch:semi-condensed;font-size:33.50818253px;font-family:'DejaVu Sans';-inkscape-font-specification:'DejaVu Sans Oblique Semi-Condensed';text-align:center;text-anchor:middle;fill:#2e3436;fill-opacity:1"
         d="m 1402.0164,881.02245 -1.9306,11.06031 -2.7324,0 1.9307,-10.94578 q 0.1308,-0.76899 0.2127,-1.358 0.082,-0.58901 0.082,-0.9326 0,-1.37436 -0.7854,-2.14335 -0.7853,-0.76899 -2.1761,-0.76899 -2.1924,0 -3.7958,1.63615 -1.5871,1.63614 -2.0615,4.35213 l -1.7834,10.16044 -2.6997,0 4.4667,-25.45836 2.6996,0 -1.7506,10.01319 q 1.0307,-1.53798 2.6341,-2.42149 1.6035,-0.89988 3.3705,-0.89988 2.1761,0 3.3705,1.30891 1.2107,1.30891 1.2107,3.68132 0,0.58901 -0.065,1.25983 -0.065,0.67082 -0.1964,1.45617 z" />
      <path
         inkscape:connector-curvature="0"
         id="path161152"
         style="font-style:oblique;font-variant:normal;font-weight:normal;font-stretch:semi-condensed;font-size:33.50818253px;font-family:'DejaVu Sans';-inkscape-font-specification:'DejaVu Sans Oblique Semi-Condensed';text-align:center;text-anchor:middle;fill:#2e3436;fill-opacity:1"
         d="m 1410.4977,867.65517 3.1905,0 4.1067,10.04591 7.8371,-10.04591 3.3541,0 -9.9804,12.79463 -2.0288,11.63296 -2.9778,0 2.0288,-11.63296 -5.5302,-12.79463 z" />
      <path
         inkscape:connector-curvature="0"
         id="path161154"
         style="font-style:oblique;font-variant:normal;font-weight:normal;font-stretch:semi-condensed;font-size:33.50818253px;font-family:'DejaVu Sans';-inkscape-font-specification:'DejaVu Sans Oblique Semi-Condensed';text-align:center;text-anchor:middle;fill:#2e3436;fill-opacity:1"
         d="m 1428.3429,892.55724 q -2.896,0 -4.5812,-1.97973 -1.6852,-1.99609 -1.6852,-5.43199 0,-1.99609 0.5726,-4.05763 0.589,-2.0779 1.5053,-3.48498 1.4725,-2.19243 3.2559,-3.23956 1.7998,-1.04713 4.074,-1.04713 2.8142,0 4.5321,1.94701 1.7343,1.94701 1.7343,5.0884 0,2.17607 -0.5726,4.33577 -0.5727,2.15971 -1.5053,3.58315 -1.4398,2.19243 -3.2395,3.23956 -1.7998,1.04713 -4.0904,1.04713 z m -3.4686,-7.50989 q 0,2.48694 0.9326,3.73041 0.9489,1.2271 2.8469,1.2271 2.716,0 4.4994,-2.63418 1.7997,-2.65055 1.7997,-6.70819 0,-2.3724 -0.9653,-3.58315 -0.949,-1.21074 -2.7978,-1.21074 -1.538,0 -2.7324,0.80171 -1.1944,0.78535 -2.127,2.40513 -0.7035,1.21074 -1.0798,2.76508 -0.3763,1.55433 -0.3763,3.20683 z" />
      <path
         inkscape:connector-curvature="0"
         id="path161156"
         style="font-style:oblique;font-variant:normal;font-weight:normal;font-stretch:semi-condensed;font-size:33.50818253px;font-family:'DejaVu Sans';-inkscape-font-specification:'DejaVu Sans Oblique Semi-Condensed';text-align:center;text-anchor:middle;fill:#2e3436;fill-opacity:1"
         d="m 1438.5146,884.81829 1.9306,-11.06031 2.7324,0 -1.9307,10.94578 q -0.1472,0.80171 -0.2127,1.37436 -0.065,0.57265 -0.065,0.94897 0,1.39072 0.7526,2.1597 0.769,0.75263 2.1761,0.75263 2.176,0 3.7631,-1.63614 1.5871,-1.63615 2.0779,-4.40122 l 1.8161,-10.14408 2.6997,0 -3.1905,18.32478 -2.716,0 0.5563,-2.87961 q -1.1453,1.60342 -2.7324,2.48694 -1.587,0.86715 -3.3704,0.86715 -2.1597,0 -3.3705,-1.30891 -1.2107,-1.32527 -1.2107,-3.68132 0,-0.49084 0.065,-1.2271 0.082,-0.73627 0.2291,-1.52162 z" />
      <path
         inkscape:connector-curvature="0"
         id="path161158"
         style="font-style:oblique;font-variant:normal;font-weight:normal;font-stretch:semi-condensed;font-size:33.50818253px;font-family:'DejaVu Sans';-inkscape-font-specification:'DejaVu Sans Oblique Semi-Condensed';text-align:center;text-anchor:middle;fill:#2e3436;fill-opacity:1"
         d="m 1466.422,876.53942 q -0.4254,-0.24542 -0.9489,-0.37632 -0.5236,-0.13089 -1.129,-0.13089 -2.1761,0 -3.7958,1.83248 -1.6198,1.81612 -2.1434,4.8757 l -1.6688,9.34237 -2.6997,0 3.2232,-18.32478 2.716,0 -0.5236,2.84688 q 1.0799,-1.58705 2.5688,-2.43785 1.4889,-0.85079 3.1905,-0.85079 0.4417,0 0.8671,0.0654 0.4254,0.0491 0.8508,0.17998 l -0.5072,2.97778 z" />
      <path
         inkscape:connector-curvature="0"
         id="path161160"
         style="font-style:oblique;font-variant:normal;font-weight:normal;font-stretch:semi-condensed;font-size:33.50818253px;font-family:'DejaVu Sans';-inkscape-font-specification:'DejaVu Sans Oblique Semi-Condensed';text-align:center;text-anchor:middle;fill:#2e3436;fill-opacity:1"
         d="m 1474.707,867.65517 2.9941,0 -4.2867,24.42759 -2.9777,0 4.2703,-24.42759 z" />
      <path
         inkscape:connector-curvature="0"
         id="path161162"
         style="font-style:oblique;font-variant:normal;font-weight:normal;font-stretch:semi-condensed;font-size:33.50818253px;font-family:'DejaVu Sans';-inkscape-font-specification:'DejaVu Sans Oblique Semi-Condensed';text-align:center;text-anchor:middle;fill:#2e3436;fill-opacity:1"
         d="m 1492.6831,881.02245 -1.9307,11.06031 -2.7323,0 1.9306,-10.94578 q 0.1309,-0.76899 0.2127,-1.358 0.082,-0.58901 0.082,-0.9326 0,-1.37436 -0.7853,-2.14335 -0.7854,-0.76899 -2.1761,-0.76899 -2.1924,0 -3.7631,1.61979 -1.5707,1.60341 -2.0616,4.36849 l -1.8161,10.16044 -2.6996,0 3.1904,-18.32478 2.716,0 -0.5562,2.87961 q 1.1453,-1.58706 2.7323,-2.45422 1.5871,-0.86715 3.3377,-0.86715 2.1761,0 3.3705,1.30891 1.2107,1.30891 1.2107,3.68132 0,0.58901 -0.065,1.25983 -0.065,0.67082 -0.1963,1.45617 z" />
      <path
         inkscape:connector-curvature="0"
         id="path161164"
         style="font-style:oblique;font-variant:normal;font-weight:normal;font-stretch:semi-condensed;font-size:33.50818253px;font-family:'DejaVu Sans';-inkscape-font-specification:'DejaVu Sans Oblique Semi-Condensed';text-align:center;text-anchor:middle;fill:#2e3436;fill-opacity:1"
         d="m 1506.7651,866.6244 -0.4254,2.5033 -2.5851,0 q -1.4725,0 -2.1433,0.65445 -0.6709,0.6381 -0.9981,2.35605 l -0.2945,1.61978 4.4667,0 -0.4091,2.33968 -4.4503,0 -2.7978,15.9851 -2.7323,0 2.8141,-15.9851 -2.5851,0 0.3763,-2.33968 2.5851,0 0.2291,-1.27619 q 0.5563,-3.23956 1.9634,-4.54848 1.4071,-1.30891 4.4176,-1.30891 l 2.5687,0 z" />
      <path
         inkscape:connector-curvature="0"
         id="path161166"
         style="font-style:oblique;font-variant:normal;font-weight:normal;font-stretch:semi-condensed;font-size:33.50818253px;font-family:'DejaVu Sans';-inkscape-font-specification:'DejaVu Sans Oblique Semi-Condensed';text-align:center;text-anchor:middle;fill:#2e3436;fill-opacity:1"
         d="m 1507.9707,892.55724 q -2.8959,0 -4.5812,-1.97973 -1.6852,-1.99609 -1.6852,-5.43199 0,-1.99609 0.5727,-4.05763 0.589,-2.0779 1.5052,-3.48498 1.4725,-2.19243 3.2559,-3.23956 1.7998,-1.04713 4.074,-1.04713 2.8142,0 4.5321,1.94701 1.7343,1.94701 1.7343,5.0884 0,2.17607 -0.5726,4.33577 -0.5727,2.15971 -1.5053,3.58315 -1.4398,2.19243 -3.2395,3.23956 -1.7998,1.04713 -4.0904,1.04713 z m -3.4686,-7.50989 q 0,2.48694 0.9326,3.73041 0.949,1.2271 2.8469,1.2271 2.716,0 4.4994,-2.63418 1.7997,-2.65055 1.7997,-6.70819 0,-2.3724 -0.9653,-3.58315 -0.9489,-1.21074 -2.7978,-1.21074 -1.538,0 -2.7323,0.80171 -1.1944,0.78535 -2.127,2.40513 -0.7036,1.21074 -1.0799,2.76508 -0.3763,1.55433 -0.3763,3.20683 z" />
      <path
         inkscape:connector-curvature="0"
         id="path161168"
         style="font-style:oblique;font-variant:normal;font-weight:normal;font-stretch:semi-condensed;font-size:33.50818253px;font-family:'DejaVu Sans';-inkscape-font-specification:'DejaVu Sans Oblique Semi-Condensed';text-align:center;text-anchor:middle;fill:#2e3436;fill-opacity:1"
         d="m 1529.579,876.53942 q -0.4254,-0.24542 -0.949,-0.37632 -0.5235,-0.13089 -1.1289,-0.13089 -2.1761,0 -3.7958,1.83248 -1.6198,1.81612 -2.1434,4.8757 l -1.6688,9.34237 -2.6997,0 3.2232,-18.32478 2.716,0 -0.5236,2.84688 q 1.0799,-1.58705 2.5688,-2.43785 1.4889,-0.85079 3.1905,-0.85079 0.4417,0 0.8671,0.0654 0.4254,0.0491 0.8508,0.17998 l -0.5072,2.97778 z" />
      <path
         inkscape:connector-curvature="0"
         id="path161170"
         style="font-style:oblique;font-variant:normal;font-weight:normal;font-stretch:semi-condensed;font-size:33.50818253px;font-family:'DejaVu Sans';-inkscape-font-specification:'DejaVu Sans Oblique Semi-Condensed';text-align:center;text-anchor:middle;fill:#2e3436;fill-opacity:1"
         d="m 1552.938,881.02245 -1.9307,11.06031 -2.6996,0 1.8979,-10.96215 q 0.1146,-0.70354 0.1636,-1.21074 0.065,-0.5072 0.065,-0.86716 0,-1.47252 -0.7363,-2.29059 -0.7362,-0.81808 -2.0615,-0.81808 -1.9797,0 -3.5177,1.65251 -1.538,1.63614 -1.9961,4.27033 l -1.8161,10.22588 -2.716,0 1.9306,-10.96215 q 0.1146,-0.60537 0.18,-1.11257 0.065,-0.52357 0.065,-0.9326 0,-1.48889 -0.7363,-2.30696 -0.7363,-0.83444 -2.0452,-0.83444 -1.9961,0 -3.5504,1.65251 -1.538,1.63614 -1.9961,4.27033 l -1.8161,10.22588 -2.6997,0 3.2232,-18.32478 2.716,0 -0.5235,2.84688 q 1.1125,-1.60342 2.5851,-2.43785 1.4725,-0.85079 3.1741,-0.85079 1.7997,0 2.945,1.04713 1.1617,1.04713 1.3908,2.91233 1.2434,-1.93065 2.8632,-2.94505 1.6362,-1.01441 3.4523,-1.01441 2.1106,0 3.2723,1.358 1.1616,1.35799 1.1616,3.84493 0,0.53993 -0.065,1.19438 -0.065,0.6381 -0.18,1.30892 z" />
      <path
         inkscape:connector-curvature="0"
         id="path161172"
         style="font-style:oblique;font-variant:normal;font-weight:normal;font-stretch:semi-condensed;font-size:33.50818253px;font-family:'DejaVu Sans';-inkscape-font-specification:'DejaVu Sans Oblique Semi-Condensed';text-align:center;text-anchor:middle;fill:#2e3436;fill-opacity:1"
         d="m 1568.8034,881.62782 -1.8324,10.45494 -2.716,0 0.4908,-2.78144 q -1.178,1.63614 -2.716,2.45422 -1.5216,0.8017 -3.3868,0.8017 -2.1106,0 -3.4523,-1.42344 -1.3416,-1.4398 -1.3416,-3.68132 0,-3.20684 2.2906,-5.07204 2.307,-1.8652 6.3646,-1.8652 l 3.7631,0 0.1473,-0.80171 q 0.033,-0.13089 0.049,-0.27814 0.016,-0.16362 0.016,-0.49084 0,-1.45617 -1.0798,-2.25788 -1.0635,-0.81807 -2.9942,-0.81807 -1.3253,0 -2.716,0.37631 -1.3907,0.37631 -2.8632,1.12894 l 0.4745,-2.78144 q 1.5379,-0.6381 2.9941,-0.94896 1.4725,-0.32723 2.8469,-0.32723 2.9123,0 4.4339,1.40708 1.5216,1.40708 1.5216,4.09035 0,0.53993 -0.082,1.27619 -0.065,0.71991 -0.2127,1.53798 z m -2.9287,1.24347 -2.716,0 q -3.3213,0 -4.9247,0.99804 -1.5871,0.98169 -1.5871,3.05959 0,1.4398 0.8017,2.25787 0.8181,0.81807 2.2743,0.81807 2.2087,0 3.8449,-1.75067 1.6525,-1.76703 2.1924,-4.71209 l 0.1145,-0.67081 z" />
      <path
         inkscape:connector-curvature="0"
         id="path161174"
         style="font-style:oblique;font-variant:normal;font-weight:normal;font-stretch:semi-condensed;font-size:33.50818253px;font-family:'DejaVu Sans';-inkscape-font-specification:'DejaVu Sans Oblique Semi-Condensed';text-align:center;text-anchor:middle;fill:#2e3436;fill-opacity:1"
         d="m 1581.1675,873.75798 -0.409,2.33968 -5.3993,0 -1.7507,9.94774 q -0.098,0.55629 -0.1472,0.9326 -0.033,0.37631 -0.033,0.58901 0,1.04713 0.5563,1.52161 0.5726,0.47449 1.8324,0.47449 l 2.7324,0 -0.4581,2.51965 -2.5851,0 q -2.4215,0 -3.6159,-1.04713 -1.178,-1.04713 -1.178,-3.17411 0,-0.37631 0.049,-0.81807 0.049,-0.45812 0.1309,-0.99805 l 1.7506,-9.94774 -2.2906,0 0.4254,-2.33968 2.2579,0 0.9162,-5.20293 2.6997,0 -0.8999,5.20293 5.4156,0 z" />
      <path
         inkscape:connector-curvature="0"
         id="path161176"
         style="font-style:oblique;font-variant:normal;font-weight:normal;font-stretch:semi-condensed;font-size:33.50818253px;font-family:'DejaVu Sans';-inkscape-font-specification:'DejaVu Sans Oblique Semi-Condensed';text-align:center;text-anchor:middle;fill:#2e3436;fill-opacity:1"
         d="m 1583.1585,866.6244 2.6996,0 -0.6544,3.81221 -2.716,0 0.6708,-3.81221 z m -1.2435,7.13358 2.716,0 -3.2395,18.32478 -2.6997,0 3.2232,-18.32478 z" />
      <path
         inkscape:connector-curvature="0"
         id="path161178"
         style="font-style:oblique;font-variant:normal;font-weight:normal;font-stretch:semi-condensed;font-size:33.50818253px;font-family:'DejaVu Sans';-inkscape-font-specification:'DejaVu Sans Oblique Semi-Condensed';text-align:center;text-anchor:middle;fill:#2e3436;fill-opacity:1"
         d="m 1591.0232,892.55724 q -2.896,0 -4.5812,-1.97973 -1.6852,-1.99609 -1.6852,-5.43199 0,-1.99609 0.5726,-4.05763 0.589,-2.0779 1.5053,-3.48498 1.4725,-2.19243 3.2559,-3.23956 1.7997,-1.04713 4.074,-1.04713 2.8141,0 4.5321,1.94701 1.7343,1.94701 1.7343,5.0884 0,2.17607 -0.5727,4.33577 -0.5726,2.15971 -1.5052,3.58315 -1.4398,2.19243 -3.2396,3.23956 -1.7997,1.04713 -4.0903,1.04713 z m -3.4686,-7.50989 q 0,2.48694 0.9326,3.73041 0.9489,1.2271 2.8469,1.2271 2.7159,0 4.4993,-2.63418 1.7998,-2.65055 1.7998,-6.70819 0,-2.3724 -0.9653,-3.58315 -0.949,-1.21074 -2.7978,-1.21074 -1.538,0 -2.7324,0.80171 -1.1944,0.78535 -2.127,2.40513 -0.7035,1.21074 -1.0798,2.76508 -0.3763,1.55433 -0.3763,3.20683 z" />
      <path
         inkscape:connector-curvature="0"
         id="path161180"
         style="font-style:oblique;font-variant:normal;font-weight:normal;font-stretch:semi-condensed;font-size:33.50818253px;font-family:'DejaVu Sans';-inkscape-font-specification:'DejaVu Sans Oblique Semi-Condensed';text-align:center;text-anchor:middle;fill:#2e3436;fill-opacity:1"
         d="m 1615.9856,881.02245 -1.9307,11.06031 -2.7323,0 1.9306,-10.94578 q 0.1309,-0.76899 0.2127,-1.358 0.082,-0.58901 0.082,-0.9326 0,-1.37436 -0.7853,-2.14335 -0.7854,-0.76899 -2.1761,-0.76899 -2.1924,0 -3.7631,1.61979 -1.5707,1.60341 -2.0615,4.36849 l -1.8162,10.16044 -2.6996,0 3.1905,-18.32478 2.716,0 -0.5563,2.87961 q 1.1453,-1.58706 2.7323,-2.45422 1.5871,-0.86715 3.3378,-0.86715 2.176,0 3.3704,1.30891 1.2108,1.30891 1.2108,3.68132 0,0.58901 -0.065,1.25983 -0.065,0.67082 -0.1963,1.45617 z" />
      <path
         inkscape:connector-curvature="0"
         id="path161182"
         style="font-style:oblique;font-variant:normal;font-weight:normal;font-stretch:semi-condensed;font-size:33.50818253px;font-family:'DejaVu Sans';-inkscape-font-specification:'DejaVu Sans Oblique Semi-Condensed';text-align:center;text-anchor:middle;fill:#2e3436;fill-opacity:1"
         d="m 1622.3287,867.65517 2.9778,0 -1.8816,10.71673 -1.3253,5.84102 -2.3887,0 0.7362,-5.84102 1.8816,-10.71673 z m -3.5341,20.27179 2.9778,0 -0.7199,4.1558 -3.0105,0 0.7526,-4.1558 z" />
      <path
         inkscape:connector-curvature="0"
         id="path161184"
         style="font-style:normal;font-variant:normal;font-weight:normal;font-stretch:semi-condensed;font-size:30.12778854px;font-family:'DejaVu Sans';-inkscape-font-specification:'DejaVu Sans Semi-Condensed';text-align:center;text-anchor:middle;fill:#2e3436;fill-opacity:1"
         d="m 1316.9322,908.63531 2.6921,0 0,13.34273 q 0,3.5306 1.1474,5.08995 1.1622,1.54463 3.7366,1.54463 2.5744,0 3.7218,-1.54463 1.1475,-1.55935 1.1475,-5.08995 l 0,-13.34273 2.6921,0 0,13.7105 q 0,4.29556 -1.9124,6.48748 -1.9124,2.19191 -5.649,2.19191 -3.7513,0 -5.6637,-2.19191 -1.9124,-2.19192 -1.9124,-6.48748 l 0,-13.7105 z" />
      <path
         inkscape:connector-curvature="0"
         id="path161186"
         style="font-style:normal;font-variant:normal;font-weight:normal;font-stretch:semi-condensed;font-size:30.12778854px;font-family:'DejaVu Sans';-inkscape-font-specification:'DejaVu Sans Semi-Condensed';text-align:center;text-anchor:middle;fill:#2e3436;fill-opacity:1"
         d="m 1346.6567,920.65406 0,9.94453 -2.442,0 0,-9.85626 q 0,-2.33902 -0.8238,-3.50118 -0.8238,-1.16216 -2.4567,-1.16216 -1.9712,0 -3.1187,1.39753 -1.1327,1.39753 -1.1327,3.81011 l 0,9.31196 -2.4567,0 0,-16.47614 2.4567,0 0,2.55969 q 0.8679,-1.4858 2.0448,-2.22134 1.1916,-0.73554 2.7509,-0.73554 2.545,0 3.8543,1.7653 1.3239,1.75059 1.3239,5.1635 z" />
      <path
         inkscape:connector-curvature="0"
         id="path161188"
         style="font-style:normal;font-variant:normal;font-weight:normal;font-stretch:semi-condensed;font-size:30.12778854px;font-family:'DejaVu Sans';-inkscape-font-specification:'DejaVu Sans Semi-Condensed';text-align:center;text-anchor:middle;fill:#2e3436;fill-opacity:1"
         d="m 1358.6253,916.62329 0,-8.91476 2.442,0 0,22.89006 -2.442,0 0,-2.47142 q -0.765,1.47108 -1.9419,2.19191 -1.1621,0.70612 -2.8097,0.70612 -2.6921,0 -4.3839,-2.38315 -1.677,-2.38316 -1.677,-6.26682 0,-3.88366 1.677,-6.26681 1.6918,-2.38316 4.3839,-2.38316 1.6476,0 2.8097,0.72083 1.1769,0.70612 1.9419,2.1772 z m -8.2969,5.75194 q 0,2.9863 1.1033,4.69276 1.1033,1.69174 3.0304,1.69174 1.9418,0 3.0451,-1.69174 1.1181,-1.70646 1.1181,-4.69276 0,-2.9863 -1.1181,-4.67804 -1.1033,-1.70646 -3.0451,-1.70646 -1.9271,0 -3.0304,1.70646 -1.1033,1.69174 -1.1033,4.67804 z" />
      <path
         inkscape:connector-curvature="0"
         id="path161190"
         style="font-style:normal;font-variant:normal;font-weight:normal;font-stretch:semi-condensed;font-size:30.12778854px;font-family:'DejaVu Sans';-inkscape-font-specification:'DejaVu Sans Semi-Condensed';text-align:center;text-anchor:middle;fill:#2e3436;fill-opacity:1"
         d="m 1376.1545,921.68382 0,1.32398 -11.2097,0 q 0.1619,2.79505 1.5153,4.26614 1.3681,1.45637 3.7806,1.45637 1.4123,0 2.7216,-0.38248 1.3239,-0.38248 2.6185,-1.14745 l 0,2.55969 q -1.3093,0.61785 -2.6921,0.94149 -1.3681,0.32364 -2.7803,0.32364 -3.5601,0 -5.6343,-2.29489 -2.0595,-2.29489 -2.0595,-6.20797 0,-4.04548 1.9565,-6.41392 1.9713,-2.38316 5.3106,-2.38316 2.9863,0 4.7222,2.14778 1.7506,2.13307 1.7506,5.81078 z m -2.442,-0.79438 q -0.029,-2.22134 -1.118,-3.54531 -1.0886,-1.32398 -2.8833,-1.32398 -2.0448,0 -3.2806,1.27984 -1.221,1.27985 -1.3975,3.60416 l 8.6794,-0.0147 z" />
      <path
         inkscape:connector-curvature="0"
         id="path161192"
         style="font-style:normal;font-variant:normal;font-weight:normal;font-stretch:semi-condensed;font-size:30.12778854px;font-family:'DejaVu Sans';-inkscape-font-specification:'DejaVu Sans Semi-Condensed';text-align:center;text-anchor:middle;fill:#2e3436;fill-opacity:1"
         d="m 1386.1371,916.65272 q -0.4119,-0.2648 -0.8974,-0.38249 -0.4854,-0.13239 -1.0592,-0.13239 -2.0742,0 -3.1775,1.5005 -1.1033,1.4858 -1.1033,4.28085 l 0,8.6794 -2.4567,0 0,-16.47614 2.4567,0 0,2.55969 q 0.765,-1.50051 2.0007,-2.22134 1.2357,-0.73554 2.9863,-0.73554 0.25,0 0.559,0.0441 0.3089,0.0294 0.6767,0.10298 l 0.015,2.78035 z" />
      <path
         inkscape:connector-curvature="0"
         id="path161194"
         style="font-style:normal;font-variant:normal;font-weight:bold;font-stretch:semi-condensed;font-size:30.12778854px;font-family:'DejaVu Sans';-inkscape-font-specification:'DejaVu Sans Bold Semi-Condensed';fill:#2e3436;fill-opacity:1"
         d="m 1389.1554,908.63531 5.5754,0 4.5015,7.82617 4.5015,-7.82617 5.5901,0 -7.5319,12.71016 0,9.25312 -5.1047,0 0,-9.25312 -7.5319,-12.71016 z" />
      <path
         inkscape:connector-curvature="0"
         id="path161196"
         style="font-style:normal;font-variant:normal;font-weight:bold;font-stretch:semi-condensed;font-size:30.12778854px;font-family:'DejaVu Sans';-inkscape-font-specification:'DejaVu Sans Bold Semi-Condensed';fill:#2e3436;fill-opacity:1"
         d="m 1412.9955,917.49123 q -1.574,0 -2.3978,1.26514 -0.8238,1.25042 -0.8238,3.61886 0,2.36844 0.8238,3.63358 0.8238,1.25042 2.3978,1.25042 1.5594,0 2.3685,-1.25042 0.8238,-1.26514 0.8238,-3.63358 0,-2.36844 -0.8238,-3.61886 -0.8091,-1.26514 -2.3685,-1.26514 z m 0,-3.76597 q 3.8396,0 5.9873,2.29489 2.1478,2.29489 2.1478,6.35508 0,4.06019 -2.1478,6.35508 -2.1477,2.29489 -5.9873,2.29489 -3.8248,0 -6.002,-2.29489 -2.1625,-2.29489 -2.1625,-6.35508 0,-4.06019 2.1625,-6.35508 2.1772,-2.29489 6.002,-2.29489 z" />
      <path
         inkscape:connector-curvature="0"
         id="path161198"
         style="font-style:normal;font-variant:normal;font-weight:bold;font-stretch:semi-condensed;font-size:30.12778854px;font-family:'DejaVu Sans';-inkscape-font-specification:'DejaVu Sans Bold Semi-Condensed';fill:#2e3436;fill-opacity:1"
         d="m 1421.8012,924.18466 0,-10.06221 4.7663,0 0,1.64762 q 0,1.33868 -0.015,3.36878 -0.015,2.01538 -0.015,2.69208 0,1.98596 0.088,2.86861 0.103,0.86794 0.3236,1.26513 0.2942,0.51488 0.765,0.79439 0.4707,0.27951 1.0739,0.27951 1.4858,0 2.3243,-1.26514 0.8532,-1.26513 0.8532,-3.51589 l 0,-8.13509 4.7369,0 0,16.47614 -4.7369,0 0,-2.38316 q -1.0739,1.44166 -2.2802,2.13307 -1.1915,0.6767 -2.6332,0.6767 -2.5597,0 -3.9131,-1.75059 -1.3387,-1.75059 -1.3387,-5.08995 z" />
      <path
         inkscape:connector-curvature="0"
         id="path161200"
         style="font-style:normal;font-variant:normal;font-weight:bold;font-stretch:semi-condensed;font-size:30.12778854px;font-family:'DejaVu Sans';-inkscape-font-specification:'DejaVu Sans Bold Semi-Condensed';fill:#2e3436;fill-opacity:1"
         d="m 1449.6428,918.60926 q -0.6326,-0.32364 -1.2505,-0.47075 -0.6031,-0.16182 -1.2357,-0.16182 -1.8241,0 -2.8097,1.30927 -0.9857,1.29455 -0.9857,3.72184 l 0,7.59079 -4.7368,0 0,-16.47614 4.7368,0 0,2.7068 q 0.9121,-1.6182 2.089,-2.35374 1.1916,-0.75025 2.8539,-0.75025 0.2354,0 0.5149,0.0294 0.2795,0.0147 0.8091,0.0883 l 0.015,4.76631 z" />
      <path
         inkscape:connector-curvature="0"
         id="path161202"
         style="font-style:normal;font-variant:normal;font-weight:normal;font-stretch:semi-condensed;font-size:30.12778854px;font-family:'DejaVu Sans';-inkscape-font-specification:'DejaVu Sans Semi-Condensed';text-align:center;text-anchor:middle;fill:#2e3436;fill-opacity:1"
         d="m 1470.4759,910.32706 0,3.13341 q -1.3534,-1.39753 -2.8834,-2.08894 -1.5299,-0.69141 -3.2511,-0.69141 -3.3835,0 -5.1929,2.3096 -1.7947,2.29489 -1.7947,6.6493 0,4.33969 1.7947,6.64929 1.8094,2.29489 5.1929,2.29489 1.7212,0 3.2511,-0.69141 1.53,-0.69141 2.8834,-2.08894 l 0,3.10399 q -1.3976,1.05918 -2.9716,1.58877 -1.5741,0.52959 -3.31,0.52959 -4.5015,0 -7.0759,-3.04514 -2.5744,-3.05986 -2.5744,-8.34104 0,-5.2959 2.5744,-8.34105 2.5744,-3.05985 7.0759,-3.05985 1.7653,0 3.3394,0.52959 1.574,0.51488 2.9422,1.55935 z" />
      <path
         inkscape:connector-curvature="0"
         id="path161204"
         style="font-style:normal;font-variant:normal;font-weight:normal;font-stretch:semi-condensed;font-size:30.12778854px;font-family:'DejaVu Sans';-inkscape-font-specification:'DejaVu Sans Semi-Condensed';text-align:center;text-anchor:middle;fill:#2e3436;fill-opacity:1"
         d="m 1477.6192,916.02015 q -1.9565,0 -3.104,1.70646 -1.1327,1.69174 -1.1327,4.64862 0,2.95688 1.1327,4.66334 1.1328,1.69174 3.104,1.69174 1.9566,0 3.0893,-1.70646 1.1327,-1.70645 1.1327,-4.64862 0,-2.92746 -1.1327,-4.63391 -1.1327,-1.72117 -3.0893,-1.72117 z m 0,-2.29489 q 3.1776,0 4.987,2.29489 1.8241,2.29489 1.8241,6.35508 0,4.04548 -1.8241,6.35508 -1.8094,2.29489 -4.987,2.29489 -3.1922,0 -5.0017,-2.29489 -1.7947,-2.3096 -1.7947,-6.35508 0,-4.06019 1.7947,-6.35508 1.8095,-2.29489 5.0017,-2.29489 z" />
      <path
         inkscape:connector-curvature="0"
         id="path161206"
         style="font-style:normal;font-variant:normal;font-weight:normal;font-stretch:semi-condensed;font-size:30.12778854px;font-family:'DejaVu Sans';-inkscape-font-specification:'DejaVu Sans Semi-Condensed';text-align:center;text-anchor:middle;fill:#2e3436;fill-opacity:1"
         d="m 1498.1642,920.65406 0,9.94453 -2.442,0 0,-9.85626 q 0,-2.33902 -0.8238,-3.50118 -0.8238,-1.16216 -2.4567,-1.16216 -1.9713,0 -3.1187,1.39753 -1.1327,1.39753 -1.1327,3.81011 l 0,9.31196 -2.4568,0 0,-16.47614 2.4568,0 0,2.55969 q 0.8679,-1.4858 2.0448,-2.22134 1.1915,-0.73554 2.7509,-0.73554 2.545,0 3.8542,1.7653 1.324,1.75059 1.324,5.1635 z" />
      <path
         inkscape:connector-curvature="0"
         id="path161208"
         style="font-style:normal;font-variant:normal;font-weight:normal;font-stretch:semi-condensed;font-size:30.12778854px;font-family:'DejaVu Sans';-inkscape-font-specification:'DejaVu Sans Semi-Condensed';text-align:center;text-anchor:middle;fill:#2e3436;fill-opacity:1"
         d="m 1502.792,909.44441 0,4.67804 5.0164,0 0,2.10365 -5.0164,0 0,8.94419 q 0,2.01538 0.4855,2.58911 0.5001,0.57372 2.0154,0.57372 l 2.5155,0 0,2.26547 -2.5155,0 q -2.8098,0 -3.8837,-1.16216 -1.0739,-1.17687 -1.0739,-4.26614 l 0,-8.94419 -1.78,0 0,-2.10365 1.78,0 0,-4.67804 2.4567,0 z" />
      <path
         inkscape:connector-curvature="0"
         id="path161210"
         style="font-style:normal;font-variant:normal;font-weight:normal;font-stretch:semi-condensed;font-size:30.12778854px;font-family:'DejaVu Sans';-inkscape-font-specification:'DejaVu Sans Semi-Condensed';text-align:center;text-anchor:middle;fill:#2e3436;fill-opacity:1"
         d="m 1516.9819,916.65272 q -0.4119,-0.2648 -0.8974,-0.38249 -0.4854,-0.13239 -1.0591,-0.13239 -2.0743,0 -3.1776,1.5005 -1.1033,1.4858 -1.1033,4.28085 l 0,8.6794 -2.4567,0 0,-16.47614 2.4567,0 0,2.55969 q 0.765,-1.50051 2.0007,-2.22134 1.2357,-0.73554 2.9863,-0.73554 0.2501,0 0.559,0.0441 0.3089,0.0294 0.6767,0.10298 l 0.015,2.78035 z" />
      <path
         inkscape:connector-curvature="0"
         id="path161212"
         style="font-style:normal;font-variant:normal;font-weight:normal;font-stretch:semi-condensed;font-size:30.12778854px;font-family:'DejaVu Sans';-inkscape-font-specification:'DejaVu Sans Semi-Condensed';text-align:center;text-anchor:middle;fill:#2e3436;fill-opacity:1"
         d="m 1521.9628,916.02015 q -1.9566,0 -3.104,1.70646 -1.1327,1.69174 -1.1327,4.64862 0,2.95688 1.1327,4.66334 1.1327,1.69174 3.104,1.69174 1.9565,0 3.0893,-1.70646 1.1327,-1.70645 1.1327,-4.64862 0,-2.92746 -1.1327,-4.63391 -1.1328,-1.72117 -3.0893,-1.72117 z m 0,-2.29489 q 3.1775,0 4.987,2.29489 1.8241,2.29489 1.8241,6.35508 0,4.04548 -1.8241,6.35508 -1.8095,2.29489 -4.987,2.29489 -3.1923,0 -5.0017,-2.29489 -1.7947,-2.3096 -1.7947,-6.35508 0,-4.06019 1.7947,-6.35508 1.8094,-2.29489 5.0017,-2.29489 z" />
      <path
         inkscape:connector-curvature="0"
         id="path161214"
         style="font-style:normal;font-variant:normal;font-weight:normal;font-stretch:semi-condensed;font-size:30.12778854px;font-family:'DejaVu Sans';-inkscape-font-specification:'DejaVu Sans Semi-Condensed';text-align:center;text-anchor:middle;fill:#2e3436;fill-opacity:1"
         d="m 1530.1801,907.70853 2.4272,0 0,22.89006 -2.4272,0 0,-22.89006 z" />
      <path
         inkscape:connector-curvature="0"
         id="path161216"
         style="font-style:normal;font-variant:normal;font-weight:normal;font-stretch:semi-condensed;font-size:30.12778854px;font-family:'DejaVu Sans';-inkscape-font-specification:'DejaVu Sans Semi-Condensed';text-align:center;text-anchor:middle;fill:#2e3436;fill-opacity:1"
         d="m 1535.411,926.86204 2.7951,0 0,3.73655 -2.7951,0 0,-3.73655 z" />
    </g>
    <g
       id="w"
       transform="matrix(0.82522222,0,0,0.82522222,-833.33934,554.34068)"
       inkscape:label="#g161220">
      <g
         transform="translate(-0.02798276,0)"
         id="g161222">
        <path
           inkscape:connector-curvature="0"
           id="w2"
           d="m 1136.0527,324.44733 c -12.4496,0 -24.8993,6.45152 -28.4433,10.90429 0,5.66718 0.1521,9.90283 1.4687,15.70508 l 55.0547,4.49414 0,-8.38476 c -0.2726,-15.17579 -12.8134,-22.71875 -28.0801,-22.71875 z"
           style="font-style:normal;font-variant:normal;font-weight:normal;font-stretch:normal;font-size:medium;line-height:125%;font-family:Kavoon;-inkscape-font-specification:Kavoon;letter-spacing:0px;word-spacing:0px;fill:#f57900;fill-opacity:1;stroke:none;stroke-width:1px;stroke-linecap:butt;stroke-linejoin:miter;stroke-opacity:1"
           inkscape:label="#path161224" />
        <path
           inkscape:connector-curvature="0"
           id="w3"
           d="m 1204.6621,324.44733 c -12.4496,0 -25.081,6.45152 -28.625,10.90429 0,6.36111 0.1806,10.90514 1.9981,17.90235 l 10.7226,1.72656 c -0.012,0.76289 -0.05,1.68201 -0.086,2.57422 l 38.9687,3.17969 c 0.4728,-4.17355 0.7383,-8.00704 0.7383,-11.29688 0,-16.99324 -7.9958,-24.99023 -23.7168,-24.99023 z"
           style="font-style:normal;font-variant:normal;font-weight:normal;font-stretch:normal;font-size:medium;line-height:125%;font-family:Kavoon;-inkscape-font-specification:Kavoon;letter-spacing:0px;word-spacing:0px;fill:#f57900;fill-opacity:1;stroke:none;stroke-width:1px;stroke-linecap:butt;stroke-linejoin:miter;stroke-opacity:1"
           inkscape:label="#path161226" />
        <path
           inkscape:connector-curvature="0"
           id="w1"
           d="m 1072.5332,324.62897 c -11.3591,0 -24.0821,5.7254 -27.3535,16.17578 0.1806,1.72828 0.4018,3.42429 0.666,5.08984 l 51.5293,4.20508 c -1.391,-5.00722 -3.015,-9.51429 -5.0332,-13.29297 -4.9071,-9.08729 -12.2661,-12.17773 -19.8086,-12.17773 z"
           style="font-style:normal;font-variant:normal;font-weight:normal;font-stretch:normal;font-size:medium;line-height:125%;font-family:Kavoon;-inkscape-font-specification:Kavoon;letter-spacing:0px;word-spacing:0px;fill:#ce5c00;fill-opacity:1;stroke:none;stroke-width:1px;stroke-linecap:butt;stroke-linejoin:miter;stroke-opacity:1"
           inkscape:label="#path161228" />
        <path
           inkscape:connector-curvature="0"
           id="w4"
           d="m 1046.6055,349.96881 c 0.5915,2.72147 1.34,5.34036 2.3007,7.83008 l 9.086,0.63476 c 2.8474,4.18205 7.3497,19.81172 11.8125,37.02149 l 34.8808,-2.9375 c -0.8168,-7.33555 -1.889,-15.30462 -3.3457,-23.9961 -0.8762,-5.03825 -1.8203,-9.83995 -2.9023,-14.32031 l -51.832,-4.23242 z"
           style="font-style:normal;font-variant:normal;font-weight:normal;font-stretch:normal;font-size:medium;line-height:125%;font-family:Kavoon;-inkscape-font-specification:Kavoon;letter-spacing:0px;word-spacing:0px;fill:#75507b;fill-opacity:1;stroke:none;stroke-width:1px;stroke-linecap:butt;stroke-linejoin:miter;stroke-opacity:1"
           inkscape:label="#path161230" />
        <path
           inkscape:connector-curvature="0"
           id="w5"
           d="m 1121.0234,356.04498 c -0.2014,7.72889 -1.4454,21.3121 -3.1582,35.36328 l 51.6055,-4.3457 c -1.5611,-9.23531 -3.346,-18.12171 -5.3379,-25.90234 l 0,-1.59766 -43.1094,-3.51758 z"
           style="font-style:normal;font-variant:normal;font-weight:normal;font-stretch:normal;font-size:medium;line-height:125%;font-family:Kavoon;-inkscape-font-specification:Kavoon;letter-spacing:0px;word-spacing:0px;fill:#ad7fa8;fill-opacity:1;stroke:none;stroke-width:1px;stroke-linecap:butt;stroke-linejoin:miter;stroke-opacity:1"
           inkscape:label="#path161232" />
        <path
           inkscape:connector-curvature="0"
           id="w6"
           d="m 1188.4609,361.54889 c -0.4105,6.49813 -1.2588,15.07191 -2.3164,24.10937 l 37.7657,-3.17968 c 1.3567,-6.19721 2.4641,-12.23583 3.2285,-17.77149 l -38.6778,-3.1582 z"
           style="font-style:normal;font-variant:normal;font-weight:normal;font-stretch:normal;font-size:medium;line-height:125%;font-family:Kavoon;-inkscape-font-specification:Kavoon;letter-spacing:0px;word-spacing:0px;fill:#75507b;fill-opacity:1;stroke:none;stroke-width:1px;stroke-linecap:butt;stroke-linejoin:miter;stroke-opacity:1"
           inkscape:label="#path161234" />
        <path
           inkscape:connector-curvature="0"
           id="w10"
           d="m 1222.9707,386.57233 -37.3105,3.14257 c -2.2919,18.66031 -5.4471,38.47237 -8.0704,46.89063 l 27.9532,1.46484 c 3.279,-7.13933 6.0638,-14.4697 8.8418,-22.20508 3.3089,-9.13731 6.2484,-19.33348 8.5859,-29.29296 z"
           style="font-style:normal;font-variant:normal;font-weight:normal;font-stretch:normal;font-size:medium;line-height:125%;font-family:Kavoon;-inkscape-font-specification:Kavoon;letter-spacing:0px;word-spacing:0px;fill:#59b007;fill-opacity:1;stroke:none;stroke-width:1px;stroke-linecap:butt;stroke-linejoin:miter;stroke-opacity:1"
           inkscape:label="#path161236" />
        <path
           inkscape:connector-curvature="0"
           id="w9"
           d="m 1170.123,391.0235 -28.6289,2.41015 c 0.665,6.18244 2.1384,15.20007 2.5547,17.61524 l 4.6367,24.04101 26.8809,1.40821 c -1.0852,-13.54921 -2.9356,-29.84503 -5.4434,-45.47461 z"
           style="font-style:normal;font-variant:normal;font-weight:normal;font-stretch:normal;font-size:medium;line-height:125%;font-family:Kavoon;-inkscape-font-specification:Kavoon;letter-spacing:0px;word-spacing:0px;fill:#84c915;fill-opacity:1;stroke:none;stroke-width:1px;stroke-linecap:butt;stroke-linejoin:miter;stroke-opacity:1"
           inkscape:label="#path161238" />
        <path
           inkscape:connector-curvature="0"
           id="w8"
           d="m 1140.0977,393.55084 -22.7344,1.91406 c -1.8629,14.58717 -4.1776,29.10594 -6.334,37.65235 l 22.0977,1.1582 c 2.7055,-9.6959 4.9558,-20.27967 6.7421,-31.04101 l 0.2286,-9.6836 z"
           style="font-style:normal;font-variant:normal;font-weight:normal;font-stretch:normal;font-size:medium;line-height:125%;font-family:Kavoon;-inkscape-font-specification:Kavoon;letter-spacing:0px;word-spacing:0px;fill:#59b007;fill-opacity:1;stroke:none;stroke-width:1px;stroke-linecap:butt;stroke-linejoin:miter;stroke-opacity:1"
           inkscape:label="#path161240" />
        <path
           inkscape:connector-curvature="0"
           id="w7"
           d="m 1105.1152,396.49615 -34.3066,2.88868 c 2.8861,11.28902 5.6583,22.732 7.9414,32.04101 l 28.7598,1.50586 c -0.4214,-9.61437 -0.8739,-21.53155 -2.3946,-36.43555 z"
           style="font-style:normal;font-variant:normal;font-weight:normal;font-stretch:normal;font-size:medium;line-height:125%;font-family:Kavoon;-inkscape-font-specification:Kavoon;letter-spacing:0px;word-spacing:0px;fill:#b7d216;fill-opacity:1;stroke:none;stroke-width:1px;stroke-linecap:butt;stroke-linejoin:miter;stroke-opacity:1"
           inkscape:label="#path161242" />
        <path
           sodipodi:nodetypes="cccsccc"
           inkscape:connector-curvature="0"
           id="w11"
           d="m 1079.75,435.48444 c 0.7245,2.93331 1.3972,5.63856 1.9609,7.82421 l -2,17.08399 c 5.9068,5.27063 16.2657,6.8164 26.2618,6.8164 5.1797,0 12.8131,-1.09122 16.7207,-5.45312 3.5118,-6.52796 6.6055,-14.58768 9.291,-23.53516 -20.0189,-1.04839 -32.1573,-1.68532 -52.2344,-2.73632 z"
           style="font-style:normal;font-variant:normal;font-weight:normal;font-stretch:normal;font-size:medium;line-height:125%;font-family:Kavoon;-inkscape-font-specification:Kavoon;letter-spacing:0px;word-spacing:0px;fill:#84c915;fill-opacity:1;stroke:none;stroke-width:1px;stroke-linecap:butt;stroke-linejoin:miter;stroke-opacity:1"
           inkscape:label="#path161244" />
        <path
           inkscape:connector-curvature="0"
           id="w12"
           d="m 1149.4668,439.13678 0.4883,2.53711 -2.4531,18.6289 c 6.5428,5.27062 16.4492,6.90625 26.4453,6.90625 5.2706,0 13.4476,-0.8186 17.9004,-5.45312 4.756,-6.56978 8.5623,-13.10467 11.8437,-19.77734 l -54.2246,-2.8418 z"
           style="font-style:normal;font-variant:normal;font-weight:normal;font-stretch:normal;font-size:medium;line-height:125%;font-family:Kavoon;-inkscape-font-specification:Kavoon;letter-spacing:0px;word-spacing:0px;fill:#b7d216;fill-opacity:1;stroke:none;stroke-width:1px;stroke-linecap:butt;stroke-linejoin:miter;stroke-opacity:1"
           inkscape:label="#path161246" />
      </g>
      <path
         sodipodi:nodetypes="zcssscz"
         inkscape:connector-curvature="0"
         id="path161248"
         d="m 1136.7513,493.21695 c -94.0737,0 -91.3494,-85.73625 -91.3494,-85.73625 0,0 3.889,23.66967 17.2522,43.33934 13.3632,19.66968 36.2006,35.33935 74.0972,35.33935 37.8964,0 60.7338,-15.66967 74.097,-35.33935 13.3632,-19.66967 17.2523,-43.33934 17.2523,-43.33934 0,0 2.7242,85.73625 -91.3493,85.73625 z"
         style="opacity:1;fill:#2e3436;fill-opacity:1;fill-rule:nonzero;stroke:none;stroke-width:10;stroke-linejoin:round;stroke-miterlimit:4;stroke-dasharray:none" />
    </g>
    <g
       transform="matrix(0.59551104,0,0,0.59551104,788.54224,265.2005)"
       id="ws"
       inkscape:label="#g161250">
      <g
         id="g161252"
         transform="matrix(0.863617,0,0,0.863617,-1321.4966,640.48265)">
        <path
           id="path161254"
           d="m 372.51069,510.14997 c 5.72476,0 11.40221,-3.73766 11.40221,-8.65812 0,-5.06239 -2.88604,-9.36779 -11.40221,-9.36779 -8.51618,0 -11.40222,4.3054 -11.40222,9.36779 0,3.69035 4.92046,8.65812 11.40222,8.65812 z"
           style="font-style:normal;font-variant:normal;font-weight:normal;font-stretch:normal;font-size:medium;line-height:125%;font-family:Kavoon;-inkscape-font-specification:Kavoon;letter-spacing:0px;word-spacing:0px;fill:#2e3436;fill-opacity:1;stroke:none;stroke-width:1px;stroke-linecap:butt;stroke-linejoin:miter;stroke-opacity:1"
           inkscape:connector-curvature="0" />
        <path
           id="path161256"
           d="m 363.14289,559.44917 c 0,8.6108 4.87315,10.88178 10.1721,10.88178 10.07748,0 15.51837,-9.22586 15.51837,-9.22586 -0.3785,-3.35916 -1.5613,-5.8667 -4.11615,-8.04306 l -7.00219,2.55486 -0.0946,-0.0946 c 2.12905,-4.82583 6.19789,-21.9055 6.19789,-29.94855 0,-8.18499 -3.16991,-12.25383 -12.20652,-12.25383 -6.48176,0 -12.01727,3.35915 -13.86245,5.67745 0,0.47312 -0.0473,0.89893 -0.0473,1.32474 0,2.7441 0.28388,5.06239 1.08818,8.2323 l 5.91401,0.99355 c -1.13549,10.36135 -1.5613,21.38507 -1.5613,29.90125 z"
           style="font-style:normal;font-variant:normal;font-weight:normal;font-stretch:normal;font-size:medium;line-height:125%;font-family:Kavoon;-inkscape-font-specification:Kavoon;letter-spacing:0px;word-spacing:0px;fill:#2e3436;fill-opacity:1;stroke:none;stroke-width:1px;stroke-linecap:butt;stroke-linejoin:miter;stroke-opacity:1"
           inkscape:connector-curvature="0" />
        <path
           d="m 393.65919,562.66639 c 3.78497,6.24519 12.15921,7.71187 16.84311,7.71187 5.06239,0 8.80005,-0.47312 12.15921,-1.70324 5.86669,-2.17635 10.69253,-7.33337 10.69253,-14.76137 0,-5.39358 -3.26454,-9.65167 -7.8065,-12.77426 -3.87959,-2.64948 -8.75273,-4.35272 -12.58501,-6.00864 -1.84518,-0.80431 -4.25809,-1.70324 -4.25809,-3.9269 0,-1.5613 0.8043,-2.83873 2.08173,-3.16991 4.49465,0.89893 11.30759,4.3054 17.17429,6.19788 2.79141,-2.7441 4.44734,-9.22586 4.44734,-14.24094 0,-1.27743 -0.0946,-2.46023 -0.33119,-3.45378 -6.86025,-3.21722 -16.27536,-3.21722 -19.20871,-3.21722 -14.61943,0 -19.91839,7.8538 -19.91839,17.69472 0,14.66675 13.34201,17.55278 23.75067,23.23024 0.85162,0.47312 1.08818,1.04086 1.08818,1.56129 0,0.56775 -0.18925,1.18281 -0.3785,1.41937 -0.33118,0.14193 -1.08818,0.23656 -1.89248,0.23656 -6.38713,0 -12.44308,-2.50754 -18.16784,-4.77852 -3.1226,3.97421 -3.64304,6.48175 -3.69035,9.98285 z"
           style="font-style:normal;font-variant:normal;font-weight:normal;font-stretch:normal;font-size:medium;line-height:125%;font-family:Kavoon;-inkscape-font-specification:Kavoon;letter-spacing:0px;word-spacing:0px;fill:#2e3436;fill-opacity:1;stroke:none;stroke-width:1px;stroke-linecap:butt;stroke-linejoin:miter;stroke-opacity:1"
           id="path161258"
           inkscape:connector-curvature="0" />
        <path
           d="m 442.34333,567.77609 c 0,0 1.51399,2.55486 9.41511,2.55486 5.39358,0 8.94199,-1.75055 10.03016,-3.78497 -1.37205,-4.58927 -2.46023,-10.64522 -2.46023,-13.81513 0,-0.47312 0.0473,-0.94624 0.0946,-1.27743 1.37205,-3.35916 6.95488,-14.90331 9.41511,-18.07322 0.99355,0.0473 2.03442,0.33119 3.02797,1.41937 -0.47312,5.72476 -1.13549,18.30977 -1.13549,24.88616 0,8.42155 4.92046,10.64522 10.1721,10.64522 10.07747,0 15.70761,-9.22586 15.70761,-9.22586 -0.37849,-3.35916 -1.75054,-6.2452 -4.3054,-8.42155 l -7.00219,2.93335 -0.0946,-0.0946 c 1.51399,-4.49465 5.77207,-15.13987 5.77207,-25.97434 0,-8.18499 -3.26453,-16.22804 -14.19362,-16.22804 -13.24739,0 -16.89042,15.32911 -19.44527,25.50121 -0.0946,0.23656 -0.33119,0.33119 -0.56775,0.33119 -0.47312,0 -1.04086,-0.33119 -1.04086,-0.757 2.60216,-11.59146 3.9269,-28.90768 3.9269,-33.68621 0,-8.18499 -3.73766,-12.11189 -11.49684,-12.11189 -5.53551,0 -11.11834,3.97421 -12.30114,5.53551 0,3.21723 0.33118,6.29251 1.13549,9.3678 l 5.34626,0.94624 c -0.70968,6.86025 -0.85161,19.68183 -0.85161,30.18511 0,6.10326 0.0473,11.44953 0.0473,14.28826 0,9.46241 0.8043,14.85599 0.8043,14.85599 z"
           style="font-style:normal;font-variant:normal;font-weight:normal;font-stretch:normal;font-size:medium;line-height:125%;font-family:Kavoon;-inkscape-font-specification:Kavoon;letter-spacing:0px;word-spacing:0px;fill:#2e3436;fill-opacity:1;stroke:none;stroke-width:1px;stroke-linecap:butt;stroke-linejoin:miter;stroke-opacity:1"
           id="path161260"
           inkscape:connector-curvature="0" />
      </g>
      <g
         id="g161262">
        <g
           style="font-style:normal;font-variant:normal;font-weight:normal;font-stretch:normal;font-size:83.68031311px;line-height:125%;font-family:Kavoon;-inkscape-font-specification:Kavoon;letter-spacing:0px;word-spacing:0px;fill:#2e3436;fill-opacity:1;stroke:none;stroke-width:1px;stroke-linecap:butt;stroke-linejoin:miter;stroke-opacity:1"
           id="g161264">
          <path
             d="m -887.40097,1125.1851 c 3.92252,6.3332 12.25786,7.845 16.95671,7.845 5.35259,0 9.35683,-0.5312 12.87075,-1.9204 5.96549,-2.329 10.78691,-7.845 10.78691,-15.8943 0,-10.5827 -8.21276,-14.9138 -17.07928,-19.5718 -3.51392,-1.8386 -8.90738,-3.5139 -8.90738,-8.1719 0,-1.9612 0.44946,-3.8816 2.61501,-4.9031 0.81719,-0.041 4.98487,0.2452 8.62136,1.2258 l 1.26665,8.4988 c 1.18493,0.6946 2.45157,1.0623 4.90314,1.0623 2.24728,0 3.67736,-0.286 4.90315,-0.8989 2.28813,-2.5741 4.12681,-10.5418 4.12681,-16.3029 -2.16556,-2.9011 -4.45369,-4.5763 -7.02784,-6.129 -5.51604,-1.144 -12.25786,-1.1032 -14.42341,-1.1032 -15.03631,0 -20.42977,8.4988 -20.42977,19.2857 0,12.8299 9.39769,17.6513 18.63195,22.3502 2.86016,1.4709 8.5805,3.473 8.41706,7.1504 -0.0409,0.5312 -0.16344,1.5527 -0.44946,2.1655 -0.73547,0.3678 -2.12469,0.6129 -3.2279,0.6129 -6.98698,0 -13.40192,-2.6967 -19.53085,-5.3934 -2.28814,2.615 -3.18705,5.6386 -3.18705,8.2127 0,0.6538 0.0409,1.3076 0.16344,1.8796 z"
             id="path161266"
             inkscape:connector-curvature="0" />
          <path
             d="m -841.76087,1119.1787 c 0,8.9483 6.12892,13.8923 11.84926,13.8923 4.53541,0 11.35895,-1.5527 13.07505,-11.1955 l 1.22578,0.3677 c -0.36773,1.2666 -0.53117,2.4924 -0.53117,3.6365 0,4.0042 2.16555,7.1913 6.8644,7.1913 6.6601,0 12.05356,-6.0064 12.99333,-7.9676 -0.36774,-3.4731 -1.96126,-5.8838 -3.26876,-7.273 l -5.92463,2.5333 c -0.0409,0 3.18704,-11.7676 3.18704,-19.49 0,-14.7095 -10.7052,-17.0385 -20.5932,-17.0385 -11.48153,0 -16.75241,4.8623 -17.12015,5.1483 -0.0817,0.5312 -0.12257,1.0624 -0.12257,1.5527 0,3.7182 1.87953,7.3547 3.67735,10.3375 2.86017,-0.8989 6.94612,-2.1656 10.62348,-2.1656 6.12893,0 7.51815,1.7161 7.76331,2.1656 0.16344,0.7354 0.24516,3.3913 0.24516,4.8623 l 0,1.2666 c -2.98275,-0.8581 -7.273,-1.6752 -10.7052,-1.6752 -8.53964,0 -13.23848,4.7397 -13.23848,13.8513 z m 15.11802,-1.8386 c 0,-1.5936 0.69461,-2.5742 1.30751,-3.2688 0.57203,-0.2452 1.59352,-0.3269 2.86016,-0.3269 1.43009,0 3.06447,0.082 4.61713,0.286 l 0.24516,0.9807 c -0.44946,2.4924 -4.20854,5.516 -6.25151,5.8837 -2.08384,-0.2043 -2.77845,-2.0838 -2.77845,-3.5547 z"
             id="path161268"
             inkscape:connector-curvature="0" />
          <path
             d="m -791.42194,1123.1421 c -0.20429,7.8859 4.29025,9.9289 8.94824,9.9289 8.70308,0 13.56536,-7.9676 13.56536,-7.9676 -0.32687,-2.9011 -1.5118,-5.3935 -3.71821,-7.273 l -6.04721,2.5333 -0.0817,-0.082 c 3.10532,-14.2191 4.86228,-36.7327 4.98486,-43.7605 0.16344,-7.0687 -3.71822,-10.5826 -10.58262,-10.5826 -5.59775,0 -10.37832,2.901 -11.97184,4.9031 -0.0817,2.9828 0.2043,4.7806 0.98063,7.9676 l 5.02572,0.8581 c -1.22578,18.1416 -0.93977,36.0789 -1.10321,43.4745 z"
             id="path161270"
             inkscape:connector-curvature="0" />
          <path
             d="m -765.76215,1119.1787 c 0,8.9483 6.12893,13.8923 11.84926,13.8923 4.53541,0 11.35895,-1.5527 13.07505,-11.1955 l 1.22579,0.3677 c -0.36774,1.2666 -0.53118,2.4924 -0.53118,3.6365 0,4.0042 2.16556,7.1913 6.8644,7.1913 6.6601,0 12.05356,-6.0064 12.99333,-7.9676 -0.36773,-3.4731 -1.96126,-5.8838 -3.26876,-7.273 l -5.92463,2.5333 c -0.0409,0 3.18704,-11.7676 3.18704,-19.49 0,-14.7095 -10.7052,-17.0385 -20.5932,-17.0385 -11.48153,0 -16.75241,4.8623 -17.12014,5.1483 -0.0817,0.5312 -0.12258,1.0624 -0.12258,1.5527 0,3.7182 1.87954,7.3547 3.67736,10.3375 2.86016,-0.8989 6.94612,-2.1656 10.62347,-2.1656 6.12893,0 7.51816,1.7161 7.76331,2.1656 0.16344,0.7354 0.24516,3.3913 0.24516,4.8623 l 0,1.2666 c -2.98275,-0.8581 -7.273,-1.6752 -10.7052,-1.6752 -8.53964,0 -13.23848,4.7397 -13.23848,13.8513 z m 15.11802,-1.8386 c 0,-1.5936 0.69461,-2.5742 1.30751,-3.2688 0.57203,-0.2452 1.59352,-0.3269 2.86016,-0.3269 1.43009,0 3.06447,0.082 4.61713,0.286 l 0.24516,0.9807 c -0.44946,2.4924 -4.20853,5.516 -6.25151,5.8837 -2.08384,-0.2043 -2.77845,-2.0838 -2.77845,-3.5547 z"
             id="path161272"
             inkscape:connector-curvature="0" />
          <path
             d="m -703.53309,1133.071 c 6.74182,0 11.23637,-4.658 14.01482,-14.4234 l 1.22579,0.3677 c -0.36774,1.2666 -1.14407,5.7203 -1.14407,6.8644 0,4.0042 2.32899,7.1913 7.02784,7.1913 6.6601,0 12.05356,-6.0064 12.99333,-7.9676 -0.36774,-3.4731 -1.96126,-5.8838 -3.26876,-7.273 l -4.73971,2.0429 0.16344,-0.6946 c 1.55266,-9.3568 2.49243,-25.7415 2.49243,-36.2015 0,-11.645 -1.38922,-17.0384 -10.0923,-17.0384 -4.78057,0 -10.5009,1.1032 -13.97396,3.5547 -0.36774,1.1441 -0.49032,2.4108 -0.49032,3.5957 0,1.9612 0.4086,4.1677 1.22579,5.1891 l 8.29448,0.5312 c 0.69462,2.5742 1.10321,5.8021 1.18493,8.6622 l -0.65375,0.4086 c -4.16767,-2.901 -8.21277,-4.0451 -12.17614,-4.0451 -12.0127,0 -16.62983,13.3202 -16.62983,24.8426 0,10.9504 2.94189,24.3932 14.54599,24.3932 z m 3.79994,-12.5439 c -1.30751,-2.6559 -1.96126,-7.8042 -1.96126,-12.3804 0,-4.3311 0.65375,-8.5397 1.79782,-9.6429 0.49031,-0.082 1.26665,-0.2043 2.28813,-0.2043 1.75696,0 5.02573,0.4086 7.4773,2.1656 0.16344,0.6129 0.32687,2.2881 0.32687,4.0451 0,1.1849 -0.0817,2.4515 -0.24515,3.4322 -2.45158,5.5977 -8.37621,12.5847 -9.68371,12.5847 z"
             id="path161274"
             inkscape:connector-curvature="0" />
        </g>
        <g
           style="font-style:normal;font-variant:normal;font-weight:normal;font-stretch:normal;font-size:27.73532486px;line-height:125%;font-family:Kavoon;-inkscape-font-specification:Kavoon;letter-spacing:0px;word-spacing:0px;fill:#84c915;fill-opacity:1;stroke:none;stroke-width:1px;stroke-linecap:butt;stroke-linejoin:miter;stroke-opacity:1"
           id="g161276">
          <path
             d="m -668.34249,1130.1052 c 0,1.6116 1.70637,2.9658 3.42629,2.9658 1.71991,0 3.42629,-1.3542 3.42629,-2.9658 0,-1.3949 -0.86673,-2.7356 -3.42629,-2.7356 -2.55956,0 -3.42629,1.3407 -3.42629,2.7356 z"
             id="path161278"
             inkscape:connector-curvature="0" />
          <path
             d="m -652.45697,1133.071 c 3.25023,0 5.49831,-2.3429 6.08064,-3.02 -0.13542,-1.3542 -0.62296,-2.0314 -1.25946,-2.6679 -1.36781,0.5959 -2.64082,1.3001 -3.99508,1.3001 -2.27516,0 -2.4783,-2.1533 -2.4783,-3.5617 0,-1.3136 0.21668,-2.7627 0.6365,-3.643 0.0813,-0.014 0.20314,-0.027 0.35211,-0.027 0.69067,0 1.96368,0.1761 2.26162,0.5147 l 0.28439,2.5053 c 0.29794,0.1761 0.93445,0.2709 1.55741,0.2709 0.56879,0 1.13758,-0.068 1.44906,-0.2302 0.58233,-0.6501 1.25947,-4.3337 1.25947,-5.7963 -0.55525,-0.7448 -0.93445,-0.9615 -1.78763,-1.5574 -1.44907,-0.2979 -3.0471,-0.4063 -4.02217,-0.4063 -5.11911,0 -7.32656,3.6566 -7.32656,8.1798 0,4.4962 2.39704,8.1391 6.988,8.1391 z"
             id="path161280"
             inkscape:connector-curvature="0" />
          <path
             d="m -637.6955,1133.071 c 4.92952,0 7.31303,-3.5752 7.31303,-8.1391 0,-4.8076 -1.40844,-8.1798 -7.02863,-8.1798 -5.06495,0 -7.31303,3.2909 -7.2724,8.1798 0.0406,4.4691 1.78763,8.1391 6.988,8.1391 z m -1.15112,-4.3201 c -0.2844,-1.0157 -0.52816,-2.4512 -0.52816,-3.8325 0,-1.2189 0.18959,-2.3971 0.67713,-3.2367 0.17605,-0.1084 0.62296,-0.1625 1.09695,-0.149 0.59588,0.014 1.21884,0.1219 1.42198,0.3521 0.33857,0.7178 0.51462,2.072 0.51462,3.4398 0,1.4491 -0.20314,2.9252 -0.6365,3.6701 -0.0948,0.068 -0.43337,0.1083 -0.83965,0.1083 -0.65004,0 -1.47615,-0.1083 -1.70637,-0.3521 z"
             id="path161282"
             inkscape:connector-curvature="0" />
          <path
             d="m -627.0239,1132.3397 c 0,0 0.43337,0.7313 2.69499,0.7313 1.54386,0 2.55956,-0.5011 2.87104,-1.0834 -0.39274,-1.3136 -0.70422,-3.0471 -0.70422,-3.9544 0,-0.1355 0.0135,-0.2709 0.0271,-0.3657 0.39273,-0.9615 2.35642,-4.916 2.69498,-5.1733 0.29794,0.014 0.48754,0.081 0.63651,0.2032 0,1.6386 -0.32503,3.5075 -0.32503,5.3899 0,2.7086 0.23023,4.2524 0.23023,4.2524 0,0 0.29794,0.7313 2.55956,0.7313 1.54386,0 2.55955,-0.5011 2.87104,-1.0834 -0.24377,-0.8125 -0.46045,-1.7876 -0.58234,-2.6273 0.27085,-1.6792 1.92306,-6.0264 2.78979,-6.8661 0.29793,0.014 0.48753,0.081 0.6365,0.2032 -0.20314,2.1668 -0.29794,4.9837 -0.29794,7.3265 0,2.4106 1.40844,3.0471 2.91167,3.0471 2.88458,0 4.49616,-2.6408 4.49616,-2.6408 -0.10835,-0.9615 -0.50108,-1.7876 -1.23238,-2.4106 l -2.00432,0.8397 -0.0271,-0.027 c 0.43336,-1.2866 1.53032,-4.3337 1.53032,-7.4349 0,-2.3429 -0.90736,-4.6181 -3.84611,-4.6181 -3.67006,0 -4.40136,4.442 -5.13266,7.3537 -0.0271,0.068 -0.0948,0.095 -0.16251,0.095 -0.13543,0 -0.29794,-0.095 -0.29794,-0.1896 0.29794,-1.0834 0.48753,-2.1939 0.48753,-3.2232 0,-2.2345 -0.90735,-4.0357 -3.62942,-4.0357 -3.94091,0 -4.17114,4.3608 -4.90244,7.2724 -0.0271,0.068 -0.0948,0.095 -0.16251,0.095 -0.13543,0 -0.29794,-0.095 -0.29794,-0.1896 0,-0.014 0.0271,-0.2573 0.37919,-2.2616 0.13543,-0.7855 0.23023,-1.5032 0.23023,-2.1262 0,-1.7741 -0.7313,-2.8169 -3.00647,-2.8169 -1.58449,0 -3.00646,0.8126 -3.34503,1.1105 0,1.3543 0.0542,2.1127 0.46045,3.3586 l 1.5574,0.2032 c -0.32502,3.0741 -0.33856,3.9002 -0.33856,6.6629 0,2.7086 0.23022,4.2524 0.23022,4.2524 z"
             id="path161284"
             inkscape:connector-curvature="0" />
        </g>
      </g>
    </g>
  </g>
</svg>
