<?xml version="1.0" encoding="UTF-8" standalone="no"?>
<!-- Created with Inkscape (http://www.inkscape.org/) -->

<svg
   xmlns:dc="http://purl.org/dc/elements/1.1/"
   xmlns:cc="http://creativecommons.org/ns#"
   xmlns:rdf="http://www.w3.org/1999/02/22-rdf-syntax-ns#"
   xmlns:svg="http://www.w3.org/2000/svg"
   xmlns="http://www.w3.org/2000/svg"
   xmlns:sodipodi="http://sodipodi.sourceforge.net/DTD/sodipodi-0.dtd"
   xmlns:inkscape="http://www.inkscape.org/namespaces/inkscape"
   width="600"
   height="120"
   viewBox="0 0 600.00005 120"
   id="svg64170"
   version="1.1"
   inkscape:version="0.91 r13725"
   sodipodi:docname="logo_small.svg">
  <defs
     id="defs64172" />
  <sodipodi:namedview
     id="base"
     pagecolor="#ffffff"
     bordercolor="#666666"
     borderopacity="1.0"
     inkscape:pageopacity="0.0"
     inkscape:pageshadow="2"
     inkscape:zoom="1.5992398"
     inkscape:cx="214.64695"
     inkscape:cy="54.997623"
     inkscape:document-units="px"
     inkscape:current-layer="layer1"
     showgrid="false"
     inkscape:window-width="1920"
     inkscape:window-height="1032"
     inkscape:window-x="1920"
     inkscape:window-y="0"
     inkscape:window-maximized="1"
     units="px" />
  <metadata
     id="metadata64175">
    <rdf:RDF>
      <cc:Work
         rdf:about="">
        <dc:format>image/svg+xml</dc:format>
        <dc:type
           rdf:resource="http://purl.org/dc/dcmitype/StillImage" />
        <dc:title></dc:title>
      </cc:Work>
    </rdf:RDF>
  </metadata>
  <g
     inkscape:label="Layer 1"
     inkscape:groupmode="layer"
     id="layer1"
     transform="translate(0,-932.36228)">
    <g
       id="g162049"
       transform="matrix(1.09143,0,0,1.09143,-1520.7907,248.26046)">
      <g
         transform="matrix(0.5331745,0,0,0.5331745,857.89099,464.81946)"
         id="g162051">
        <g
           id="g162053"
           transform="translate(-0.02798276,0)">
          <path
             style="font-style:normal;font-variant:normal;font-weight:normal;font-stretch:normal;font-size:medium;line-height:125%;font-family:Kavoon;-inkscape-font-specification:Kavoon;letter-spacing:0px;word-spacing:0px;fill:#f57900;fill-opacity:1;stroke:none;stroke-width:1px;stroke-linecap:butt;stroke-linejoin:miter;stroke-opacity:1"
             d="m 1136.0527,324.44733 c -12.4496,0 -24.8993,6.45152 -28.4433,10.90429 0,5.66718 0.1521,9.90283 1.4687,15.70508 l 55.0547,4.49414 0,-8.38476 c -0.2726,-15.17579 -12.8134,-22.71875 -28.0801,-22.71875 z"
             id="path162055"
             inkscape:connector-curvature="0" />
          <path
             style="font-style:normal;font-variant:normal;font-weight:normal;font-stretch:normal;font-size:medium;line-height:125%;font-family:Kavoon;-inkscape-font-specification:Kavoon;letter-spacing:0px;word-spacing:0px;fill:#f57900;fill-opacity:1;stroke:none;stroke-width:1px;stroke-linecap:butt;stroke-linejoin:miter;stroke-opacity:1"
             d="m 1204.6621,324.44733 c -12.4496,0 -25.081,6.45152 -28.625,10.90429 0,6.36111 0.1806,10.90514 1.9981,17.90235 l 10.7226,1.72656 c -0.012,0.76289 -0.05,1.68201 -0.086,2.57422 l 38.9687,3.17969 c 0.4728,-4.17355 0.7383,-8.00704 0.7383,-11.29688 0,-16.99324 -7.9958,-24.99023 -23.7168,-24.99023 z"
             id="path162057"
             inkscape:connector-curvature="0" />
          <path
             style="font-style:normal;font-variant:normal;font-weight:normal;font-stretch:normal;font-size:medium;line-height:125%;font-family:Kavoon;-inkscape-font-specification:Kavoon;letter-spacing:0px;word-spacing:0px;fill:#ce5c00;fill-opacity:1;stroke:none;stroke-width:1px;stroke-linecap:butt;stroke-linejoin:miter;stroke-opacity:1"
             d="m 1072.5332,324.62897 c -11.3591,0 -24.0821,5.7254 -27.3535,16.17578 0.1806,1.72828 0.4018,3.42429 0.666,5.08984 l 51.5293,4.20508 c -1.391,-5.00722 -3.015,-9.51429 -5.0332,-13.29297 -4.9071,-9.08729 -12.2661,-12.17773 -19.8086,-12.17773 z"
             id="path162059"
             inkscape:connector-curvature="0" />
          <path
             style="font-style:normal;font-variant:normal;font-weight:normal;font-stretch:normal;font-size:medium;line-height:125%;font-family:Kavoon;-inkscape-font-specification:Kavoon;letter-spacing:0px;word-spacing:0px;fill:#75507b;fill-opacity:1;stroke:none;stroke-width:1px;stroke-linecap:butt;stroke-linejoin:miter;stroke-opacity:1"
             d="m 1046.6055,349.96881 c 0.5915,2.72147 1.34,5.34036 2.3007,7.83008 l 9.086,0.63476 c 2.8474,4.18205 7.3497,19.81172 11.8125,37.02149 l 34.8808,-2.9375 c -0.8168,-7.33555 -1.889,-15.30462 -3.3457,-23.9961 -0.8762,-5.03825 -1.8203,-9.83995 -2.9023,-14.32031 l -51.832,-4.23242 z"
             id="path162061"
             inkscape:connector-curvature="0" />
          <path
             style="font-style:normal;font-variant:normal;font-weight:normal;font-stretch:normal;font-size:medium;line-height:125%;font-family:Kavoon;-inkscape-font-specification:Kavoon;letter-spacing:0px;word-spacing:0px;fill:#ad7fa8;fill-opacity:1;stroke:none;stroke-width:1px;stroke-linecap:butt;stroke-linejoin:miter;stroke-opacity:1"
             d="m 1121.0234,356.04498 c -0.2014,7.72889 -1.4454,21.3121 -3.1582,35.36328 l 51.6055,-4.3457 c -1.5611,-9.23531 -3.346,-18.12171 -5.3379,-25.90234 l 0,-1.59766 -43.1094,-3.51758 z"
             id="path162063"
             inkscape:connector-curvature="0" />
          <path
             style="font-style:normal;font-variant:normal;font-weight:normal;font-stretch:normal;font-size:medium;line-height:125%;font-family:Kavoon;-inkscape-font-specification:Kavoon;letter-spacing:0px;word-spacing:0px;fill:#75507b;fill-opacity:1;stroke:none;stroke-width:1px;stroke-linecap:butt;stroke-linejoin:miter;stroke-opacity:1"
             d="m 1188.4609,361.54889 c -0.4105,6.49813 -1.2588,15.07191 -2.3164,24.10937 l 37.7657,-3.17968 c 1.3567,-6.19721 2.4641,-12.23583 3.2285,-17.77149 l -38.6778,-3.1582 z"
             id="path162065"
             inkscape:connector-curvature="0" />
          <path
             style="font-style:normal;font-variant:normal;font-weight:normal;font-stretch:normal;font-size:medium;line-height:125%;font-family:Kavoon;-inkscape-font-specification:Kavoon;letter-spacing:0px;word-spacing:0px;fill:#59b007;fill-opacity:1;stroke:none;stroke-width:1px;stroke-linecap:butt;stroke-linejoin:miter;stroke-opacity:1"
             d="m 1222.9707,386.57233 -37.3105,3.14257 c -2.2919,18.66031 -5.4471,38.47237 -8.0704,46.89063 l 27.9532,1.46484 c 3.279,-7.13933 6.0638,-14.4697 8.8418,-22.20508 3.3089,-9.13731 6.2484,-19.33348 8.5859,-29.29296 z"
             id="path162067"
             inkscape:connector-curvature="0" />
          <path
             style="font-style:normal;font-variant:normal;font-weight:normal;font-stretch:normal;font-size:medium;line-height:125%;font-family:Kavoon;-inkscape-font-specification:Kavoon;letter-spacing:0px;word-spacing:0px;fill:#84c915;fill-opacity:1;stroke:none;stroke-width:1px;stroke-linecap:butt;stroke-linejoin:miter;stroke-opacity:1"
             d="m 1170.123,391.0235 -28.6289,2.41015 c 0.665,6.18244 2.1384,15.20007 2.5547,17.61524 l 4.6367,24.04101 26.8809,1.40821 c -1.0852,-13.54921 -2.9356,-29.84503 -5.4434,-45.47461 z"
             id="path162069"
             inkscape:connector-curvature="0" />
          <path
             style="font-style:normal;font-variant:normal;font-weight:normal;font-stretch:normal;font-size:medium;line-height:125%;font-family:Kavoon;-inkscape-font-specification:Kavoon;letter-spacing:0px;word-spacing:0px;fill:#59b007;fill-opacity:1;stroke:none;stroke-width:1px;stroke-linecap:butt;stroke-linejoin:miter;stroke-opacity:1"
             d="m 1140.0977,393.55084 -22.7344,1.91406 c -1.8629,14.58717 -4.1776,29.10594 -6.334,37.65235 l 22.0977,1.1582 c 2.7055,-9.6959 4.9558,-20.27967 6.7421,-31.04101 l 0.2286,-9.6836 z"
             id="path162071"
             inkscape:connector-curvature="0" />
          <path
             style="font-style:normal;font-variant:normal;font-weight:normal;font-stretch:normal;font-size:medium;line-height:125%;font-family:Kavoon;-inkscape-font-specification:Kavoon;letter-spacing:0px;word-spacing:0px;fill:#b7d216;fill-opacity:1;stroke:none;stroke-width:1px;stroke-linecap:butt;stroke-linejoin:miter;stroke-opacity:1"
             d="m 1105.1152,396.49615 -34.3066,2.88868 c 2.8861,11.28902 5.6583,22.732 7.9414,32.04101 l 28.7598,1.50586 c -0.4214,-9.61437 -0.8739,-21.53155 -2.3946,-36.43555 z"
             id="path162073"
             inkscape:connector-curvature="0" />
          <path
             style="font-style:normal;font-variant:normal;font-weight:normal;font-stretch:normal;font-size:medium;line-height:125%;font-family:Kavoon;-inkscape-font-specification:Kavoon;letter-spacing:0px;word-spacing:0px;fill:#84c915;fill-opacity:1;stroke:none;stroke-width:1px;stroke-linecap:butt;stroke-linejoin:miter;stroke-opacity:1"
             d="m 1079.75,435.48444 c 0.7245,2.93331 1.3972,5.63856 1.9609,7.82421 l -2,17.08399 c 5.9068,5.27063 16.2657,6.8164 26.2618,6.8164 5.1797,0 12.8131,-1.09122 16.7207,-5.45312 3.5118,-6.52796 6.6055,-14.58768 9.291,-23.53516 -20.0189,-1.04839 -32.1573,-1.68532 -52.2344,-2.73632 z"
             id="path162075"
             inkscape:connector-curvature="0"
             sodipodi:nodetypes="cccsccc" />
          <path
             style="font-style:normal;font-variant:normal;font-weight:normal;font-stretch:normal;font-size:medium;line-height:125%;font-family:Kavoon;-inkscape-font-specification:Kavoon;letter-spacing:0px;word-spacing:0px;fill:#b7d216;fill-opacity:1;stroke:none;stroke-width:1px;stroke-linecap:butt;stroke-linejoin:miter;stroke-opacity:1"
             d="m 1149.4668,439.13678 0.4883,2.53711 -2.4531,18.6289 c 6.5428,5.27062 16.4492,6.90625 26.4453,6.90625 5.2706,0 13.4476,-0.8186 17.9004,-5.45312 4.756,-6.56978 8.5623,-13.10467 11.8437,-19.77734 l -54.2246,-2.8418 z"
             id="path162077"
             inkscape:connector-curvature="0" />
        </g>
        <path
           style="opacity:1;fill:#2e3436;fill-opacity:1;fill-rule:nonzero;stroke:none;stroke-width:10;stroke-linejoin:round;stroke-miterlimit:4;stroke-dasharray:none"
           d="m 1136.7513,493.21695 c -94.0737,0 -91.3494,-85.73625 -91.3494,-85.73625 0,0 3.889,23.66967 17.2522,43.33934 13.3632,19.66968 36.2006,35.33935 74.0972,35.33935 37.8964,0 60.7338,-15.66967 74.097,-35.33935 13.3632,-19.66967 17.2523,-43.33934 17.2523,-43.33934 0,0 2.7242,85.73625 -91.3493,85.73625 z"
           id="path162079"
           inkscape:connector-curvature="0"
           sodipodi:nodetypes="zcssscz" />
      </g>
      <g
         id="g162081">
        <g
           transform="matrix(0.863617,0,0,0.863617,1207.9372,221.3044)"
           id="g162083">
          <path
             inkscape:connector-curvature="0"
             style="font-style:normal;font-variant:normal;font-weight:normal;font-stretch:normal;font-size:medium;line-height:125%;font-family:Kavoon;-inkscape-font-specification:Kavoon;letter-spacing:0px;word-spacing:0px;fill:#2e3436;fill-opacity:1;stroke:none;stroke-width:1px;stroke-linecap:butt;stroke-linejoin:miter;stroke-opacity:1"
             d="m 372.51069,510.14997 c 5.72476,0 11.40221,-3.73766 11.40221,-8.65812 0,-5.06239 -2.88604,-9.36779 -11.40221,-9.36779 -8.51618,0 -11.40222,4.3054 -11.40222,9.36779 0,3.69035 4.92046,8.65812 11.40222,8.65812 z"
             id="path162085" />
          <path
             inkscape:connector-curvature="0"
             style="font-style:normal;font-variant:normal;font-weight:normal;font-stretch:normal;font-size:medium;line-height:125%;font-family:Kavoon;-inkscape-font-specification:Kavoon;letter-spacing:0px;word-spacing:0px;fill:#2e3436;fill-opacity:1;stroke:none;stroke-width:1px;stroke-linecap:butt;stroke-linejoin:miter;stroke-opacity:1"
             d="m 363.14289,559.44917 c 0,8.6108 4.87315,10.88178 10.1721,10.88178 10.07748,0 15.51837,-9.22586 15.51837,-9.22586 -0.3785,-3.35916 -1.5613,-5.8667 -4.11615,-8.04306 l -7.00219,2.55486 -0.0946,-0.0946 c 2.12905,-4.82583 6.19789,-21.9055 6.19789,-29.94855 0,-8.18499 -3.16991,-12.25383 -12.20652,-12.25383 -6.48176,0 -12.01727,3.35915 -13.86245,5.67745 0,0.47312 -0.0473,0.89893 -0.0473,1.32474 0,2.7441 0.28388,5.06239 1.08818,8.2323 l 5.91401,0.99355 c -1.13549,10.36135 -1.5613,21.38507 -1.5613,29.90125 z"
             id="path162087" />
          <path
             inkscape:connector-curvature="0"
             id="path162089"
             style="font-style:normal;font-variant:normal;font-weight:normal;font-stretch:normal;font-size:medium;line-height:125%;font-family:Kavoon;-inkscape-font-specification:Kavoon;letter-spacing:0px;word-spacing:0px;fill:#2e3436;fill-opacity:1;stroke:none;stroke-width:1px;stroke-linecap:butt;stroke-linejoin:miter;stroke-opacity:1"
             d="m 393.65919,562.66639 c 3.78497,6.24519 12.15921,7.71187 16.84311,7.71187 5.06239,0 8.80005,-0.47312 12.15921,-1.70324 5.86669,-2.17635 10.69253,-7.33337 10.69253,-14.76137 0,-5.39358 -3.26454,-9.65167 -7.8065,-12.77426 -3.87959,-2.64948 -8.75273,-4.35272 -12.58501,-6.00864 -1.84518,-0.80431 -4.25809,-1.70324 -4.25809,-3.9269 0,-1.5613 0.8043,-2.83873 2.08173,-3.16991 4.49465,0.89893 11.30759,4.3054 17.17429,6.19788 2.79141,-2.7441 4.44734,-9.22586 4.44734,-14.24094 0,-1.27743 -0.0946,-2.46023 -0.33119,-3.45378 -6.86025,-3.21722 -16.27536,-3.21722 -19.20871,-3.21722 -14.61943,0 -19.91839,7.8538 -19.91839,17.69472 0,14.66675 13.34201,17.55278 23.75067,23.23024 0.85162,0.47312 1.08818,1.04086 1.08818,1.56129 0,0.56775 -0.18925,1.18281 -0.3785,1.41937 -0.33118,0.14193 -1.08818,0.23656 -1.89248,0.23656 -6.38713,0 -12.44308,-2.50754 -18.16784,-4.77852 -3.1226,3.97421 -3.64304,6.48175 -3.69035,9.98285 z" />
          <path
             inkscape:connector-curvature="0"
             id="path162091"
             style="font-style:normal;font-variant:normal;font-weight:normal;font-stretch:normal;font-size:medium;line-height:125%;font-family:Kavoon;-inkscape-font-specification:Kavoon;letter-spacing:0px;word-spacing:0px;fill:#2e3436;fill-opacity:1;stroke:none;stroke-width:1px;stroke-linecap:butt;stroke-linejoin:miter;stroke-opacity:1"
             d="m 442.34333,567.77609 c 0,0 1.51399,2.55486 9.41511,2.55486 5.39358,0 8.94199,-1.75055 10.03016,-3.78497 -1.37205,-4.58927 -2.46023,-10.64522 -2.46023,-13.81513 0,-0.47312 0.0473,-0.94624 0.0946,-1.27743 1.37205,-3.35916 6.95488,-14.90331 9.41511,-18.07322 0.99355,0.0473 2.03442,0.33119 3.02797,1.41937 -0.47312,5.72476 -1.13549,18.30977 -1.13549,24.88616 0,8.42155 4.92046,10.64522 10.1721,10.64522 10.07747,0 15.70761,-9.22586 15.70761,-9.22586 -0.37849,-3.35916 -1.75054,-6.2452 -4.3054,-8.42155 l -7.00219,2.93335 -0.0946,-0.0946 c 1.51399,-4.49465 5.77207,-15.13987 5.77207,-25.97434 0,-8.18499 -3.26453,-16.22804 -14.19362,-16.22804 -13.24739,0 -16.89042,15.32911 -19.44527,25.50121 -0.0946,0.23656 -0.33119,0.33119 -0.56775,0.33119 -0.47312,0 -1.04086,-0.33119 -1.04086,-0.757 2.60216,-11.59146 3.9269,-28.90768 3.9269,-33.68621 0,-8.18499 -3.73766,-12.11189 -11.49684,-12.11189 -5.53551,0 -11.11834,3.97421 -12.30114,5.53551 0,3.21723 0.33118,6.29251 1.13549,9.3678 l 5.34626,0.94624 c -0.70968,6.86025 -0.85161,19.68183 -0.85161,30.18511 0,6.10326 0.0473,11.44953 0.0473,14.28826 0,9.46241 0.8043,14.85599 0.8043,14.85599 z" />
        </g>
        <g
           id="g162093">
          <g
             id="g162095">
            <path
               d="m 1642.0327,706.00686 c 3.9226,6.33323 12.2579,7.84503 16.9568,7.84503 5.3526,0 9.3568,-0.53117 12.8707,-1.9204 5.9655,-2.32899 10.7869,-7.84502 10.7869,-15.89435 0,-10.58262 -8.2127,-14.91373 -17.0793,-19.57172 -3.5139,-1.83867 -8.9073,-3.51391 -8.9073,-8.1719 0,-1.96126 0.4494,-3.88166 2.615,-4.90314 0.8172,-0.0409 4.9848,0.24515 8.6213,1.22578 l 1.2667,8.49878 c 1.1849,0.69462 2.4515,1.06235 4.9031,1.06235 2.2473,0 3.6774,-0.28602 4.9032,-0.89891 2.2881,-2.57415 4.1268,-10.54176 4.1268,-16.30295 -2.1656,-2.90103 -4.4537,-4.57627 -7.0279,-6.12893 -5.516,-1.14407 -12.2578,-1.10321 -14.4234,-1.10321 -15.0363,0 -20.4297,8.49879 -20.4297,19.2857 0,12.82989 9.3976,17.65132 18.6319,22.35016 2.8602,1.47095 8.5805,3.47306 8.4171,7.15042 -0.041,0.53117 -0.1635,1.55266 -0.4495,2.16555 -0.7355,0.36774 -2.1247,0.6129 -3.2279,0.6129 -6.987,0 -13.4019,-2.69673 -19.5308,-5.39346 -2.2882,2.61501 -3.1871,5.63861 -3.1871,8.21276 0,0.65376 0.041,1.30751 0.1634,1.87954 z"
               style="font-style:normal;font-variant:normal;font-weight:normal;font-stretch:normal;font-size:medium;line-height:125%;font-family:Kavoon;-inkscape-font-specification:Kavoon;letter-spacing:0px;word-spacing:0px;fill:#2e3436;fill-opacity:1;stroke:none;stroke-width:1px;stroke-linecap:butt;stroke-linejoin:miter;stroke-opacity:1"
               id="path162097"
               inkscape:connector-curvature="0" />
            <path
               d="m 1687.6728,700.00051 c 0,8.94824 6.129,13.89224 11.8493,13.89224 4.5354,0 11.359,-1.55266 13.0751,-11.19551 l 1.2257,0.36774 c -0.3677,1.26664 -0.5311,2.49243 -0.5311,3.6365 0,4.00423 2.1655,7.19127 6.8644,7.19127 6.6601,0 12.0535,-6.00635 12.9933,-7.96761 -0.3677,-3.47306 -1.9613,-5.88377 -3.2688,-7.27299 l -5.9246,2.53329 c -0.041,0 3.187,-11.76755 3.187,-19.49 0,-14.70943 -10.7052,-17.03842 -20.5932,-17.03842 -11.4815,0 -16.7524,4.86228 -17.1201,5.1483 -0.082,0.53118 -0.1226,1.06235 -0.1226,1.55266 0,3.71822 1.8796,7.35472 3.6774,10.33746 2.8601,-0.89891 6.9461,-2.16555 10.6235,-2.16555 6.1289,0 7.5181,1.7161 7.7633,2.16555 0.1634,0.73548 0.2451,3.39134 0.2451,4.86229 l 0,1.26664 c -2.9827,-0.85805 -7.273,-1.67524 -10.7052,-1.67524 -8.5396,0 -13.2385,4.73971 -13.2385,13.85138 z m 15.1181,-1.83868 c 0,-1.59352 0.6946,-2.57415 1.3075,-3.26876 0.572,-0.24516 1.5935,-0.32687 2.8601,-0.32687 1.4301,0 3.0645,0.0817 4.6172,0.28601 l 0.2451,0.98063 c -0.4494,2.49243 -4.2085,5.51604 -6.2515,5.88377 -2.0838,-0.20429 -2.7784,-2.08383 -2.7784,-3.55478 z"
               style="font-style:normal;font-variant:normal;font-weight:normal;font-stretch:normal;font-size:medium;line-height:125%;font-family:Kavoon;-inkscape-font-specification:Kavoon;letter-spacing:0px;word-spacing:0px;fill:#2e3436;fill-opacity:1;stroke:none;stroke-width:1px;stroke-linecap:butt;stroke-linejoin:miter;stroke-opacity:1"
               id="path162099"
               inkscape:connector-curvature="0" />
            <path
               d="m 1738.0118,703.96389 c -0.2043,7.88589 4.2902,9.92886 8.9482,9.92886 8.7031,0 13.5654,-7.96761 13.5654,-7.96761 -0.3269,-2.90102 -1.5118,-5.39345 -3.7182,-7.27299 l -6.0472,2.53329 -0.082,-0.0817 c 3.1054,-14.21912 4.8623,-36.73272 4.9849,-43.76055 0.1634,-7.0687 -3.7182,-10.58262 -10.5826,-10.58262 -5.5978,0 -10.3783,2.90102 -11.9719,4.90314 -0.082,2.98275 0.2043,4.78057 0.9807,7.96761 l 5.0257,0.85805 c -1.2258,18.14163 -0.9398,36.07896 -1.1032,43.47454 z"
               style="font-style:normal;font-variant:normal;font-weight:normal;font-stretch:normal;font-size:medium;line-height:125%;font-family:Kavoon;-inkscape-font-specification:Kavoon;letter-spacing:0px;word-spacing:0px;fill:#2e3436;fill-opacity:1;stroke:none;stroke-width:1px;stroke-linecap:butt;stroke-linejoin:miter;stroke-opacity:1"
               id="path162101"
               inkscape:connector-curvature="0" />
            <path
               d="m 1763.6716,700.00051 c 0,8.94824 6.1289,13.89224 11.8492,13.89224 4.5354,0 11.359,-1.55266 13.0751,-11.19551 l 1.2258,0.36774 c -0.3678,1.26664 -0.5312,2.49243 -0.5312,3.6365 0,4.00423 2.1655,7.19127 6.8644,7.19127 6.6601,0 12.0535,-6.00635 12.9933,-7.96761 -0.3677,-3.47306 -1.9612,-5.88377 -3.2687,-7.27299 l -5.9247,2.53329 c -0.041,0 3.1871,-11.76755 3.1871,-19.49 0,-14.70943 -10.7052,-17.03842 -20.5932,-17.03842 -11.4816,0 -16.7524,4.86228 -17.1202,5.1483 -0.082,0.53118 -0.1226,1.06235 -0.1226,1.55266 0,3.71822 1.8796,7.35472 3.6774,10.33746 2.8602,-0.89891 6.9461,-2.16555 10.6235,-2.16555 6.1289,0 7.5181,1.7161 7.7633,2.16555 0.1634,0.73548 0.2451,3.39134 0.2451,4.86229 l 0,1.26664 c -2.9827,-0.85805 -7.2729,-1.67524 -10.7051,-1.67524 -8.5397,0 -13.2385,4.73971 -13.2385,13.85138 z m 15.118,-1.83868 c 0,-1.59352 0.6946,-2.57415 1.3075,-3.26876 0.572,-0.24516 1.5935,-0.32687 2.8602,-0.32687 1.43,0 3.0644,0.0817 4.6171,0.28601 l 0.2451,0.98063 c -0.4494,2.49243 -4.2085,5.51604 -6.2515,5.88377 -2.0838,-0.20429 -2.7784,-2.08383 -2.7784,-3.55478 z"
               style="font-style:normal;font-variant:normal;font-weight:normal;font-stretch:normal;font-size:medium;line-height:125%;font-family:Kavoon;-inkscape-font-specification:Kavoon;letter-spacing:0px;word-spacing:0px;fill:#2e3436;fill-opacity:1;stroke:none;stroke-width:1px;stroke-linecap:butt;stroke-linejoin:miter;stroke-opacity:1"
               id="path162103"
               inkscape:connector-curvature="0" />
            <path
               d="m 1825.9006,713.89275 c 6.7419,0 11.2364,-4.65798 14.0148,-14.42341 l 1.2258,0.36773 c -0.3677,1.26665 -1.144,5.72034 -1.144,6.86441 0,4.00423 2.329,7.19127 7.0278,7.19127 6.6601,0 12.0536,-6.00635 12.9933,-7.96761 -0.3677,-3.47306 -1.9612,-5.88377 -3.2687,-7.27299 l -4.7397,2.04297 0.1634,-0.69461 c 1.5527,-9.35683 2.4924,-25.7415 2.4924,-36.20154 0,-11.64496 -1.3892,-17.03842 -10.0923,-17.03842 -4.7805,0 -10.5009,1.10321 -13.9739,3.55478 -0.3678,1.14406 -0.4903,2.41071 -0.4903,3.59564 0,1.96125 0.4086,4.16767 1.2257,5.18916 l 8.2945,0.53117 c 0.6946,2.57415 1.1032,5.80205 1.185,8.66222 l -0.6538,0.40859 c -4.1677,-2.90102 -8.2128,-4.04509 -12.1761,-4.04509 -12.0127,0 -16.6299,13.32021 -16.6299,24.84259 0,10.95036 2.9419,24.39314 14.546,24.39314 z m 3.8,-12.54387 c -1.3075,-2.65587 -1.9613,-7.80417 -1.9613,-12.38044 0,-4.33111 0.6538,-8.53964 1.7978,-9.64285 0.4903,-0.0817 1.2667,-0.2043 2.2882,-0.2043 1.7569,0 5.0257,0.4086 7.4773,2.16556 0.1634,0.61289 0.3268,2.28813 0.3268,4.04509 0,1.18493 -0.082,2.45157 -0.2451,3.4322 -2.4516,5.59776 -8.3762,12.58474 -9.6837,12.58474 z"
               style="font-style:normal;font-variant:normal;font-weight:normal;font-stretch:normal;font-size:medium;line-height:125%;font-family:Kavoon;-inkscape-font-specification:Kavoon;letter-spacing:0px;word-spacing:0px;fill:#2e3436;fill-opacity:1;stroke:none;stroke-width:1px;stroke-linecap:butt;stroke-linejoin:miter;stroke-opacity:1"
               id="path162105"
               inkscape:connector-curvature="0" />
          </g>
          <g
             style="font-style:normal;font-variant:normal;font-weight:normal;font-stretch:normal;font-size:27.73532486px;line-height:125%;font-family:Kavoon;-inkscape-font-specification:Kavoon;letter-spacing:0px;word-spacing:0px;fill:#84c915;fill-opacity:1;stroke:none;stroke-width:1px;stroke-linecap:butt;stroke-linejoin:miter;stroke-opacity:1"
             id="g162107">
            <path
               d="m 1861.0913,710.9269 c 0,1.61158 1.7064,2.96584 3.4263,2.96584 1.7199,0 3.4263,-1.35426 3.4263,-2.96584 0,-1.39489 -0.8668,-2.73561 -3.4263,-2.73561 -2.5596,0 -3.4263,1.34072 -3.4263,2.73561 z"
               id="path162109"
               inkscape:connector-curvature="0" />
            <path
               d="m 1876.9768,713.89274 c 3.2502,0 5.4983,-2.34288 6.0806,-3.02001 -0.1354,-1.35426 -0.6229,-2.03139 -1.2594,-2.6679 -1.3678,0.59588 -2.6408,1.30009 -3.9951,1.30009 -2.2752,0 -2.4783,-2.15327 -2.4783,-3.56171 0,-1.31364 0.2167,-2.7627 0.6365,-3.64297 0.081,-0.0135 0.2031,-0.0271 0.3521,-0.0271 0.6907,0 1.9637,0.17605 2.2616,0.51462 l 0.2844,2.50538 c 0.298,0.17606 0.9345,0.27086 1.5574,0.27086 0.5688,0 1.1376,-0.0677 1.4491,-0.23023 0.5823,-0.65004 1.2595,-4.33364 1.2595,-5.79625 -0.5553,-0.74484 -0.9345,-0.96152 -1.7877,-1.5574 -1.449,-0.29794 -3.0471,-0.40628 -4.0221,-0.40628 -5.1191,0 -7.3266,3.65651 -7.3266,8.17975 0,4.49616 2.397,8.13913 6.988,8.13913 z"
               id="path162111"
               inkscape:connector-curvature="0" />
            <path
               d="m 1891.7383,713.89274 c 4.9295,0 7.313,-3.57526 7.313,-8.13913 0,-4.80763 -1.4084,-8.17975 -7.0286,-8.17975 -5.065,0 -7.313,3.29086 -7.2724,8.17975 0.041,4.46907 1.7876,8.13913 6.988,8.13913 z m -1.1511,-4.3201 c -0.2844,-1.0157 -0.5282,-2.45122 -0.5282,-3.83257 0,-1.21884 0.1896,-2.39705 0.6771,-3.23669 0.1761,-0.10834 0.623,-0.16251 1.097,-0.14897 0.5959,0.0135 1.2188,0.12189 1.422,0.35211 0.3385,0.71776 0.5146,2.07202 0.5146,3.43983 0,1.44906 -0.2032,2.92521 -0.6365,3.67006 -0.095,0.0677 -0.4334,0.10834 -0.8397,0.10834 -0.65,0 -1.4761,-0.10834 -1.7063,-0.35211 z"
               id="path162113"
               inkscape:connector-curvature="0" />
            <path
               d="m 1902.4099,713.16144 c 0,0 0.4333,0.7313 2.695,0.7313 1.5438,0 2.5595,-0.50108 2.871,-1.08341 -0.3927,-1.31364 -0.7042,-3.04709 -0.7042,-3.95445 0,-0.13543 0.014,-0.27085 0.027,-0.36565 0.3927,-0.96153 2.3564,-4.91598 2.695,-5.17329 0.2979,0.0135 0.4875,0.0813 0.6365,0.20314 0,1.63866 -0.3251,3.50754 -0.3251,5.38997 0,2.70853 0.2303,4.25239 0.2303,4.25239 0,0 0.2979,0.7313 2.5595,0.7313 1.5439,0 2.5596,-0.50108 2.8711,-1.08341 -0.2438,-0.81256 -0.4605,-1.78763 -0.5824,-2.62727 0.2709,-1.67929 1.9231,-6.02648 2.7898,-6.86612 0.298,0.0135 0.4875,0.0813 0.6365,0.20314 -0.2031,2.16682 -0.2979,4.98369 -0.2979,7.32657 0,2.41059 1.4084,3.04709 2.9116,3.04709 2.8846,0 4.4962,-2.64081 4.4962,-2.64081 -0.1083,-0.96153 -0.5011,-1.78763 -1.2324,-2.41059 l -2.0043,0.83964 -0.027,-0.0271 c 0.4334,-1.28655 1.5303,-4.33364 1.5303,-7.4349 0,-2.34288 -0.9073,-4.61804 -3.8461,-4.61804 -3.67,0 -4.4013,4.44198 -5.1326,7.35365 -0.027,0.0677 -0.095,0.0948 -0.1625,0.0948 -0.1355,0 -0.298,-0.0948 -0.298,-0.1896 0.298,-1.08341 0.4876,-2.19391 0.4876,-3.22315 0,-2.23453 -0.9074,-4.0357 -3.6295,-4.0357 -3.9409,0 -4.1711,4.36072 -4.9024,7.27239 -0.027,0.0677 -0.095,0.0948 -0.1625,0.0948 -0.1354,0 -0.298,-0.0948 -0.298,-0.1896 0,-0.0135 0.027,-0.25731 0.3792,-2.26162 0.1355,-0.78547 0.2303,-1.50323 0.2303,-2.12619 0,-1.77409 -0.7313,-2.81687 -3.0065,-2.81687 -1.5845,0 -3.0065,0.81256 -3.345,1.1105 0,1.35426 0.054,2.11265 0.4604,3.35857 l 1.5574,0.20314 c -0.325,3.07418 -0.3385,3.90028 -0.3385,6.66298 0,2.70853 0.2302,4.25239 0.2302,4.25239 z"
               id="path162115"
               inkscape:connector-curvature="0" />
          </g>
        </g>
      </g>
    </g>
  </g>
</svg>
