<?xml version="1.0" encoding="UTF-8" standalone="no"?>
<!-- Created with Inkscape (http://www.inkscape.org/) -->

<svg
   xmlns:dc="http://purl.org/dc/elements/1.1/"
   xmlns:cc="http://creativecommons.org/ns#"
   xmlns:rdf="http://www.w3.org/1999/02/22-rdf-syntax-ns#"
   xmlns:svg="http://www.w3.org/2000/svg"
   xmlns="http://www.w3.org/2000/svg"
   xmlns:xlink="http://www.w3.org/1999/xlink"
   xmlns:sodipodi="http://sodipodi.sourceforge.net/DTD/sodipodi-0.dtd"
   xmlns:inkscape="http://www.inkscape.org/namespaces/inkscape"
   width="450"
   height="300"
   viewBox="0 0 450 300"
   id="svg163537"
   version="1.1"
   inkscape:version="0.91 r13725"
   sodipodi:docname="logo.svg">
  <defs
     id="defs163539">
    <symbol
       id="angle-double-down"
       class="Directional-Icons">
      <title
         id="title34404">Angle Double Down</title>
      <path
         transform="matrix(0.05,0,0,-0.05,0,76.8)"
         d="M1075 672q0 -13 -10 -23l-466 -466q-10 -10 -23 -10t-23 10l-466 466q-10 10 -10 23t10 23l50 50q10 10 23 10t23 -10l393 -393l393 393q10 10 23 10t23 -10l50 -50q10 -10 10 -23zM1075 1056q0 -13 -10 -23l-466 -466q-10 -10 -23 -10t-23 10l-466 466q-10 10 -10 23 t10 23l50 50q10 10 23 10t23 -10l393 -393l393 393q10 10 23 10t23 -10l50 -50q10 -10 10 -23z"
         id="path34406" />
    </symbol>
  </defs>
  <sodipodi:namedview
     id="base"
     pagecolor="#ffffff"
     bordercolor="#666666"
     borderopacity="1.0"
     inkscape:pageopacity="0.0"
     inkscape:pageshadow="2"
     inkscape:zoom="2.3953243"
     inkscape:cx="223.29836"
     inkscape:cy="130.4527"
     inkscape:document-units="px"
     inkscape:current-layer="layer1"
     showgrid="false"
     units="px"
     inkscape:window-width="1920"
     inkscape:window-height="1032"
     inkscape:window-x="1920"
     inkscape:window-y="0"
     inkscape:window-maximized="1" />
  <metadata
     id="metadata163542">
    <rdf:RDF>
      <cc:Work
         rdf:about="">
        <dc:format>image/svg+xml</dc:format>
        <dc:type
           rdf:resource="http://purl.org/dc/dcmitype/StillImage" />
        <dc:title></dc:title>
      </cc:Work>
    </rdf:RDF>
  </metadata>
  <g
     inkscape:label="Layer 1"
     inkscape:groupmode="layer"
     id="layer1"
     transform="translate(0,-752.36216)">
    <g
       id="w"
       transform="matrix(0.82522222,0,0,0.82522222,-833.33934,508.34068)"
       inkscape:label="#g161220">
      <g
         transform="translate(-0.02798276,0)"
         id="g161222">
        <path
           inkscape:connector-curvature="0"
           id="w2"
           d="m 1136.0527,324.44733 c -12.4496,0 -24.8993,6.45152 -28.4433,10.90429 0,5.66718 0.1521,9.90283 1.4687,15.70508 l 55.0547,4.49414 0,-8.38476 c -0.2726,-15.17579 -12.8134,-22.71875 -28.0801,-22.71875 z"
           style="font-style:normal;font-variant:normal;font-weight:normal;font-stretch:normal;font-size:medium;line-height:125%;font-family:Kavoon;-inkscape-font-specification:Kavoon;letter-spacing:0px;word-spacing:0px;fill:#f57900;fill-opacity:1;stroke:none;stroke-width:1px;stroke-linecap:butt;stroke-linejoin:miter;stroke-opacity:1"
           inkscape:label="#path161224" />
        <path
           inkscape:connector-curvature="0"
           id="w3"
           d="m 1204.6621,324.44733 c -12.4496,0 -25.081,6.45152 -28.625,10.90429 0,6.36111 0.1806,10.90514 1.9981,17.90235 l 10.7226,1.72656 c -0.012,0.76289 -0.05,1.68201 -0.086,2.57422 l 38.9687,3.17969 c 0.4728,-4.17355 0.7383,-8.00704 0.7383,-11.29688 0,-16.99324 -7.9958,-24.99023 -23.7168,-24.99023 z"
           style="font-style:normal;font-variant:normal;font-weight:normal;font-stretch:normal;font-size:medium;line-height:125%;font-family:Kavoon;-inkscape-font-specification:Kavoon;letter-spacing:0px;word-spacing:0px;fill:#f57900;fill-opacity:1;stroke:none;stroke-width:1px;stroke-linecap:butt;stroke-linejoin:miter;stroke-opacity:1"
           inkscape:label="#path161226" />
        <path
           inkscape:connector-curvature="0"
           id="w1"
           d="m 1072.5332,324.62897 c -11.3591,0 -24.0821,5.7254 -27.3535,16.17578 0.1806,1.72828 0.4018,3.42429 0.666,5.08984 l 51.5293,4.20508 c -1.391,-5.00722 -3.015,-9.51429 -5.0332,-13.29297 -4.9071,-9.08729 -12.2661,-12.17773 -19.8086,-12.17773 z"
           style="font-style:normal;font-variant:normal;font-weight:normal;font-stretch:normal;font-size:medium;line-height:125%;font-family:Kavoon;-inkscape-font-specification:Kavoon;letter-spacing:0px;word-spacing:0px;fill:#ce5c00;fill-opacity:1;stroke:none;stroke-width:1px;stroke-linecap:butt;stroke-linejoin:miter;stroke-opacity:1"
           inkscape:label="#path161228" />
        <path
           inkscape:connector-curvature="0"
           id="w4"
           d="m 1046.6055,349.96881 c 0.5915,2.72147 1.34,5.34036 2.3007,7.83008 l 9.086,0.63476 c 2.8474,4.18205 7.3497,19.81172 11.8125,37.02149 l 34.8808,-2.9375 c -0.8168,-7.33555 -1.889,-15.30462 -3.3457,-23.9961 -0.8762,-5.03825 -1.8203,-9.83995 -2.9023,-14.32031 l -51.832,-4.23242 z"
           style="font-style:normal;font-variant:normal;font-weight:normal;font-stretch:normal;font-size:medium;line-height:125%;font-family:Kavoon;-inkscape-font-specification:Kavoon;letter-spacing:0px;word-spacing:0px;fill:#75507b;fill-opacity:1;stroke:none;stroke-width:1px;stroke-linecap:butt;stroke-linejoin:miter;stroke-opacity:1"
           inkscape:label="#path161230" />
        <path
           inkscape:connector-curvature="0"
           id="w5"
           d="m 1121.0234,356.04498 c -0.2014,7.72889 -1.4454,21.3121 -3.1582,35.36328 l 51.6055,-4.3457 c -1.5611,-9.23531 -3.346,-18.12171 -5.3379,-25.90234 l 0,-1.59766 -43.1094,-3.51758 z"
           style="font-style:normal;font-variant:normal;font-weight:normal;font-stretch:normal;font-size:medium;line-height:125%;font-family:Kavoon;-inkscape-font-specification:Kavoon;letter-spacing:0px;word-spacing:0px;fill:#ad7fa8;fill-opacity:1;stroke:none;stroke-width:1px;stroke-linecap:butt;stroke-linejoin:miter;stroke-opacity:1"
           inkscape:label="#path161232" />
        <path
           inkscape:connector-curvature="0"
           id="w6"
           d="m 1188.4609,361.54889 c -0.4105,6.49813 -1.2588,15.07191 -2.3164,24.10937 l 37.7657,-3.17968 c 1.3567,-6.19721 2.4641,-12.23583 3.2285,-17.77149 l -38.6778,-3.1582 z"
           style="font-style:normal;font-variant:normal;font-weight:normal;font-stretch:normal;font-size:medium;line-height:125%;font-family:Kavoon;-inkscape-font-specification:Kavoon;letter-spacing:0px;word-spacing:0px;fill:#75507b;fill-opacity:1;stroke:none;stroke-width:1px;stroke-linecap:butt;stroke-linejoin:miter;stroke-opacity:1"
           inkscape:label="#path161234" />
        <path
           inkscape:connector-curvature="0"
           id="w10"
           d="m 1222.9707,386.57233 -37.3105,3.14257 c -2.2919,18.66031 -5.4471,38.47237 -8.0704,46.89063 l 27.9532,1.46484 c 3.279,-7.13933 6.0638,-14.4697 8.8418,-22.20508 3.3089,-9.13731 6.2484,-19.33348 8.5859,-29.29296 z"
           style="font-style:normal;font-variant:normal;font-weight:normal;font-stretch:normal;font-size:medium;line-height:125%;font-family:Kavoon;-inkscape-font-specification:Kavoon;letter-spacing:0px;word-spacing:0px;fill:#59b007;fill-opacity:1;stroke:none;stroke-width:1px;stroke-linecap:butt;stroke-linejoin:miter;stroke-opacity:1"
           inkscape:label="#path161236" />
        <path
           inkscape:connector-curvature="0"
           id="w9"
           d="m 1170.123,391.0235 -28.6289,2.41015 c 0.665,6.18244 2.1384,15.20007 2.5547,17.61524 l 4.6367,24.04101 26.8809,1.40821 c -1.0852,-13.54921 -2.9356,-29.84503 -5.4434,-45.47461 z"
           style="font-style:normal;font-variant:normal;font-weight:normal;font-stretch:normal;font-size:medium;line-height:125%;font-family:Kavoon;-inkscape-font-specification:Kavoon;letter-spacing:0px;word-spacing:0px;fill:#84c915;fill-opacity:1;stroke:none;stroke-width:1px;stroke-linecap:butt;stroke-linejoin:miter;stroke-opacity:1"
           inkscape:label="#path161238" />
        <path
           inkscape:connector-curvature="0"
           id="w8"
           d="m 1140.0977,393.55084 -22.7344,1.91406 c -1.8629,14.58717 -4.1776,29.10594 -6.334,37.65235 l 22.0977,1.1582 c 2.7055,-9.6959 4.9558,-20.27967 6.7421,-31.04101 l 0.2286,-9.6836 z"
           style="font-style:normal;font-variant:normal;font-weight:normal;font-stretch:normal;font-size:medium;line-height:125%;font-family:Kavoon;-inkscape-font-specification:Kavoon;letter-spacing:0px;word-spacing:0px;fill:#59b007;fill-opacity:1;stroke:none;stroke-width:1px;stroke-linecap:butt;stroke-linejoin:miter;stroke-opacity:1"
           inkscape:label="#path161240" />
        <path
           inkscape:connector-curvature="0"
           id="w7"
           d="m 1105.1152,396.49615 -34.3066,2.88868 c 2.8861,11.28902 5.6583,22.732 7.9414,32.04101 l 28.7598,1.50586 c -0.4214,-9.61437 -0.8739,-21.53155 -2.3946,-36.43555 z"
           style="font-style:normal;font-variant:normal;font-weight:normal;font-stretch:normal;font-size:medium;line-height:125%;font-family:Kavoon;-inkscape-font-specification:Kavoon;letter-spacing:0px;word-spacing:0px;fill:#b7d216;fill-opacity:1;stroke:none;stroke-width:1px;stroke-linecap:butt;stroke-linejoin:miter;stroke-opacity:1"
           inkscape:label="#path161242" />
        <path
           sodipodi:nodetypes="cccsccc"
           inkscape:connector-curvature="0"
           id="w11"
           d="m 1079.75,435.48444 c 0.7245,2.93331 1.3972,5.63856 1.9609,7.82421 l -2,17.08399 c 5.9068,5.27063 16.2657,6.8164 26.2618,6.8164 5.1797,0 12.8131,-1.09122 16.7207,-5.45312 3.5118,-6.52796 6.6055,-14.58768 9.291,-23.53516 -20.0189,-1.04839 -32.1573,-1.68532 -52.2344,-2.73632 z"
           style="font-style:normal;font-variant:normal;font-weight:normal;font-stretch:normal;font-size:medium;line-height:125%;font-family:Kavoon;-inkscape-font-specification:Kavoon;letter-spacing:0px;word-spacing:0px;fill:#84c915;fill-opacity:1;stroke:none;stroke-width:1px;stroke-linecap:butt;stroke-linejoin:miter;stroke-opacity:1"
           inkscape:label="#path161244" />
        <path
           inkscape:connector-curvature="0"
           id="w12"
           d="m 1149.4668,439.13678 0.4883,2.53711 -2.4531,18.6289 c 6.5428,5.27062 16.4492,6.90625 26.4453,6.90625 5.2706,0 13.4476,-0.8186 17.9004,-5.45312 4.756,-6.56978 8.5623,-13.10467 11.8437,-19.77734 l -54.2246,-2.8418 z"
           style="font-style:normal;font-variant:normal;font-weight:normal;font-stretch:normal;font-size:medium;line-height:125%;font-family:Kavoon;-inkscape-font-specification:Kavoon;letter-spacing:0px;word-spacing:0px;fill:#b7d216;fill-opacity:1;stroke:none;stroke-width:1px;stroke-linecap:butt;stroke-linejoin:miter;stroke-opacity:1"
           inkscape:label="#path161246" />
      </g>
      <path
         sodipodi:nodetypes="zcssscz"
         inkscape:connector-curvature="0"
         id="path161248"
         d="m 1136.7513,493.21695 c -94.0737,0 -91.3494,-85.73625 -91.3494,-85.73625 0,0 3.889,23.66967 17.2522,43.33934 13.3632,19.66968 36.2006,35.33935 74.0972,35.33935 37.8964,0 60.7338,-15.66967 74.097,-35.33935 13.3632,-19.66967 17.2523,-43.33934 17.2523,-43.33934 0,0 2.7242,85.73625 -91.3493,85.73625 z"
         style="opacity:1;fill:#2e3436;fill-opacity:1;fill-rule:nonzero;stroke:none;stroke-width:10;stroke-linejoin:round;stroke-miterlimit:4;stroke-dasharray:none" />
    </g>
    <g
       transform="matrix(0.59551104,0,0,0.59551104,788.54224,219.2005)"
       id="ws"
       inkscape:label="#g161250">
      <g
         id="g161252"
         transform="matrix(0.863617,0,0,0.863617,-1321.4966,640.48265)">
        <path
           id="path161254"
           d="m 372.51069,510.14997 c 5.72476,0 11.40221,-3.73766 11.40221,-8.65812 0,-5.06239 -2.88604,-9.36779 -11.40221,-9.36779 -8.51618,0 -11.40222,4.3054 -11.40222,9.36779 0,3.69035 4.92046,8.65812 11.40222,8.65812 z"
           style="font-style:normal;font-variant:normal;font-weight:normal;font-stretch:normal;font-size:medium;line-height:125%;font-family:Kavoon;-inkscape-font-specification:Kavoon;letter-spacing:0px;word-spacing:0px;fill:#2e3436;fill-opacity:1;stroke:none;stroke-width:1px;stroke-linecap:butt;stroke-linejoin:miter;stroke-opacity:1"
           inkscape:connector-curvature="0" />
        <path
           id="path161256"
           d="m 363.14289,559.44917 c 0,8.6108 4.87315,10.88178 10.1721,10.88178 10.07748,0 15.51837,-9.22586 15.51837,-9.22586 -0.3785,-3.35916 -1.5613,-5.8667 -4.11615,-8.04306 l -7.00219,2.55486 -0.0946,-0.0946 c 2.12905,-4.82583 6.19789,-21.9055 6.19789,-29.94855 0,-8.18499 -3.16991,-12.25383 -12.20652,-12.25383 -6.48176,0 -12.01727,3.35915 -13.86245,5.67745 0,0.47312 -0.0473,0.89893 -0.0473,1.32474 0,2.7441 0.28388,5.06239 1.08818,8.2323 l 5.91401,0.99355 c -1.13549,10.36135 -1.5613,21.38507 -1.5613,29.90125 z"
           style="font-style:normal;font-variant:normal;font-weight:normal;font-stretch:normal;font-size:medium;line-height:125%;font-family:Kavoon;-inkscape-font-specification:Kavoon;letter-spacing:0px;word-spacing:0px;fill:#2e3436;fill-opacity:1;stroke:none;stroke-width:1px;stroke-linecap:butt;stroke-linejoin:miter;stroke-opacity:1"
           inkscape:connector-curvature="0" />
        <path
           d="m 393.65919,562.66639 c 3.78497,6.24519 12.15921,7.71187 16.84311,7.71187 5.06239,0 8.80005,-0.47312 12.15921,-1.70324 5.86669,-2.17635 10.69253,-7.33337 10.69253,-14.76137 0,-5.39358 -3.26454,-9.65167 -7.8065,-12.77426 -3.87959,-2.64948 -8.75273,-4.35272 -12.58501,-6.00864 -1.84518,-0.80431 -4.25809,-1.70324 -4.25809,-3.9269 0,-1.5613 0.8043,-2.83873 2.08173,-3.16991 4.49465,0.89893 11.30759,4.3054 17.17429,6.19788 2.79141,-2.7441 4.44734,-9.22586 4.44734,-14.24094 0,-1.27743 -0.0946,-2.46023 -0.33119,-3.45378 -6.86025,-3.21722 -16.27536,-3.21722 -19.20871,-3.21722 -14.61943,0 -19.91839,7.8538 -19.91839,17.69472 0,14.66675 13.34201,17.55278 23.75067,23.23024 0.85162,0.47312 1.08818,1.04086 1.08818,1.56129 0,0.56775 -0.18925,1.18281 -0.3785,1.41937 -0.33118,0.14193 -1.08818,0.23656 -1.89248,0.23656 -6.38713,0 -12.44308,-2.50754 -18.16784,-4.77852 -3.1226,3.97421 -3.64304,6.48175 -3.69035,9.98285 z"
           style="font-style:normal;font-variant:normal;font-weight:normal;font-stretch:normal;font-size:medium;line-height:125%;font-family:Kavoon;-inkscape-font-specification:Kavoon;letter-spacing:0px;word-spacing:0px;fill:#2e3436;fill-opacity:1;stroke:none;stroke-width:1px;stroke-linecap:butt;stroke-linejoin:miter;stroke-opacity:1"
           id="path161258"
           inkscape:connector-curvature="0" />
        <path
           d="m 442.34333,567.77609 c 0,0 1.51399,2.55486 9.41511,2.55486 5.39358,0 8.94199,-1.75055 10.03016,-3.78497 -1.37205,-4.58927 -2.46023,-10.64522 -2.46023,-13.81513 0,-0.47312 0.0473,-0.94624 0.0946,-1.27743 1.37205,-3.35916 6.95488,-14.90331 9.41511,-18.07322 0.99355,0.0473 2.03442,0.33119 3.02797,1.41937 -0.47312,5.72476 -1.13549,18.30977 -1.13549,24.88616 0,8.42155 4.92046,10.64522 10.1721,10.64522 10.07747,0 15.70761,-9.22586 15.70761,-9.22586 -0.37849,-3.35916 -1.75054,-6.2452 -4.3054,-8.42155 l -7.00219,2.93335 -0.0946,-0.0946 c 1.51399,-4.49465 5.77207,-15.13987 5.77207,-25.97434 0,-8.18499 -3.26453,-16.22804 -14.19362,-16.22804 -13.24739,0 -16.89042,15.32911 -19.44527,25.50121 -0.0946,0.23656 -0.33119,0.33119 -0.56775,0.33119 -0.47312,0 -1.04086,-0.33119 -1.04086,-0.757 2.60216,-11.59146 3.9269,-28.90768 3.9269,-33.68621 0,-8.18499 -3.73766,-12.11189 -11.49684,-12.11189 -5.53551,0 -11.11834,3.97421 -12.30114,5.53551 0,3.21723 0.33118,6.29251 1.13549,9.3678 l 5.34626,0.94624 c -0.70968,6.86025 -0.85161,19.68183 -0.85161,30.18511 0,6.10326 0.0473,11.44953 0.0473,14.28826 0,9.46241 0.8043,14.85599 0.8043,14.85599 z"
           style="font-style:normal;font-variant:normal;font-weight:normal;font-stretch:normal;font-size:medium;line-height:125%;font-family:Kavoon;-inkscape-font-specification:Kavoon;letter-spacing:0px;word-spacing:0px;fill:#2e3436;fill-opacity:1;stroke:none;stroke-width:1px;stroke-linecap:butt;stroke-linejoin:miter;stroke-opacity:1"
           id="path161260"
           inkscape:connector-curvature="0" />
      </g>
      <g
         id="g161262">
        <g
           style="font-style:normal;font-variant:normal;font-weight:normal;font-stretch:normal;font-size:83.68031311px;line-height:125%;font-family:Kavoon;-inkscape-font-specification:Kavoon;letter-spacing:0px;word-spacing:0px;fill:#2e3436;fill-opacity:1;stroke:none;stroke-width:1px;stroke-linecap:butt;stroke-linejoin:miter;stroke-opacity:1"
           id="g161264">
          <path
             d="m -887.40097,1125.1851 c 3.92252,6.3332 12.25786,7.845 16.95671,7.845 5.35259,0 9.35683,-0.5312 12.87075,-1.9204 5.96549,-2.329 10.78691,-7.845 10.78691,-15.8943 0,-10.5827 -8.21276,-14.9138 -17.07928,-19.5718 -3.51392,-1.8386 -8.90738,-3.5139 -8.90738,-8.1719 0,-1.9612 0.44946,-3.8816 2.61501,-4.9031 0.81719,-0.041 4.98487,0.2452 8.62136,1.2258 l 1.26665,8.4988 c 1.18493,0.6946 2.45157,1.0623 4.90314,1.0623 2.24728,0 3.67736,-0.286 4.90315,-0.8989 2.28813,-2.5741 4.12681,-10.5418 4.12681,-16.3029 -2.16556,-2.9011 -4.45369,-4.5763 -7.02784,-6.129 -5.51604,-1.144 -12.25786,-1.1032 -14.42341,-1.1032 -15.03631,0 -20.42977,8.4988 -20.42977,19.2857 0,12.8299 9.39769,17.6513 18.63195,22.3502 2.86016,1.4709 8.5805,3.473 8.41706,7.1504 -0.0409,0.5312 -0.16344,1.5527 -0.44946,2.1655 -0.73547,0.3678 -2.12469,0.6129 -3.2279,0.6129 -6.98698,0 -13.40192,-2.6967 -19.53085,-5.3934 -2.28814,2.615 -3.18705,5.6386 -3.18705,8.2127 0,0.6538 0.0409,1.3076 0.16344,1.8796 z"
             id="path161266"
             inkscape:connector-curvature="0" />
          <path
             d="m -841.76087,1119.1787 c 0,8.9483 6.12892,13.8923 11.84926,13.8923 4.53541,0 11.35895,-1.5527 13.07505,-11.1955 l 1.22578,0.3677 c -0.36773,1.2666 -0.53117,2.4924 -0.53117,3.6365 0,4.0042 2.16555,7.1913 6.8644,7.1913 6.6601,0 12.05356,-6.0064 12.99333,-7.9676 -0.36774,-3.4731 -1.96126,-5.8838 -3.26876,-7.273 l -5.92463,2.5333 c -0.0409,0 3.18704,-11.7676 3.18704,-19.49 0,-14.7095 -10.7052,-17.0385 -20.5932,-17.0385 -11.48153,0 -16.75241,4.8623 -17.12015,5.1483 -0.0817,0.5312 -0.12257,1.0624 -0.12257,1.5527 0,3.7182 1.87953,7.3547 3.67735,10.3375 2.86017,-0.8989 6.94612,-2.1656 10.62348,-2.1656 6.12893,0 7.51815,1.7161 7.76331,2.1656 0.16344,0.7354 0.24516,3.3913 0.24516,4.8623 l 0,1.2666 c -2.98275,-0.8581 -7.273,-1.6752 -10.7052,-1.6752 -8.53964,0 -13.23848,4.7397 -13.23848,13.8513 z m 15.11802,-1.8386 c 0,-1.5936 0.69461,-2.5742 1.30751,-3.2688 0.57203,-0.2452 1.59352,-0.3269 2.86016,-0.3269 1.43009,0 3.06447,0.082 4.61713,0.286 l 0.24516,0.9807 c -0.44946,2.4924 -4.20854,5.516 -6.25151,5.8837 -2.08384,-0.2043 -2.77845,-2.0838 -2.77845,-3.5547 z"
             id="path161268"
             inkscape:connector-curvature="0" />
          <path
             d="m -791.42194,1123.1421 c -0.20429,7.8859 4.29025,9.9289 8.94824,9.9289 8.70308,0 13.56536,-7.9676 13.56536,-7.9676 -0.32687,-2.9011 -1.5118,-5.3935 -3.71821,-7.273 l -6.04721,2.5333 -0.0817,-0.082 c 3.10532,-14.2191 4.86228,-36.7327 4.98486,-43.7605 0.16344,-7.0687 -3.71822,-10.5826 -10.58262,-10.5826 -5.59775,0 -10.37832,2.901 -11.97184,4.9031 -0.0817,2.9828 0.2043,4.7806 0.98063,7.9676 l 5.02572,0.8581 c -1.22578,18.1416 -0.93977,36.0789 -1.10321,43.4745 z"
             id="path161270"
             inkscape:connector-curvature="0" />
          <path
             d="m -765.76215,1119.1787 c 0,8.9483 6.12893,13.8923 11.84926,13.8923 4.53541,0 11.35895,-1.5527 13.07505,-11.1955 l 1.22579,0.3677 c -0.36774,1.2666 -0.53118,2.4924 -0.53118,3.6365 0,4.0042 2.16556,7.1913 6.8644,7.1913 6.6601,0 12.05356,-6.0064 12.99333,-7.9676 -0.36773,-3.4731 -1.96126,-5.8838 -3.26876,-7.273 l -5.92463,2.5333 c -0.0409,0 3.18704,-11.7676 3.18704,-19.49 0,-14.7095 -10.7052,-17.0385 -20.5932,-17.0385 -11.48153,0 -16.75241,4.8623 -17.12014,5.1483 -0.0817,0.5312 -0.12258,1.0624 -0.12258,1.5527 0,3.7182 1.87954,7.3547 3.67736,10.3375 2.86016,-0.8989 6.94612,-2.1656 10.62347,-2.1656 6.12893,0 7.51816,1.7161 7.76331,2.1656 0.16344,0.7354 0.24516,3.3913 0.24516,4.8623 l 0,1.2666 c -2.98275,-0.8581 -7.273,-1.6752 -10.7052,-1.6752 -8.53964,0 -13.23848,4.7397 -13.23848,13.8513 z m 15.11802,-1.8386 c 0,-1.5936 0.69461,-2.5742 1.30751,-3.2688 0.57203,-0.2452 1.59352,-0.3269 2.86016,-0.3269 1.43009,0 3.06447,0.082 4.61713,0.286 l 0.24516,0.9807 c -0.44946,2.4924 -4.20853,5.516 -6.25151,5.8837 -2.08384,-0.2043 -2.77845,-2.0838 -2.77845,-3.5547 z"
             id="path161272"
             inkscape:connector-curvature="0" />
          <path
             d="m -703.53309,1133.071 c 6.74182,0 11.23637,-4.658 14.01482,-14.4234 l 1.22579,0.3677 c -0.36774,1.2666 -1.14407,5.7203 -1.14407,6.8644 0,4.0042 2.32899,7.1913 7.02784,7.1913 6.6601,0 12.05356,-6.0064 12.99333,-7.9676 -0.36774,-3.4731 -1.96126,-5.8838 -3.26876,-7.273 l -4.73971,2.0429 0.16344,-0.6946 c 1.55266,-9.3568 2.49243,-25.7415 2.49243,-36.2015 0,-11.645 -1.38922,-17.0384 -10.0923,-17.0384 -4.78057,0 -10.5009,1.1032 -13.97396,3.5547 -0.36774,1.1441 -0.49032,2.4108 -0.49032,3.5957 0,1.9612 0.4086,4.1677 1.22579,5.1891 l 8.29448,0.5312 c 0.69462,2.5742 1.10321,5.8021 1.18493,8.6622 l -0.65375,0.4086 c -4.16767,-2.901 -8.21277,-4.0451 -12.17614,-4.0451 -12.0127,0 -16.62983,13.3202 -16.62983,24.8426 0,10.9504 2.94189,24.3932 14.54599,24.3932 z m 3.79994,-12.5439 c -1.30751,-2.6559 -1.96126,-7.8042 -1.96126,-12.3804 0,-4.3311 0.65375,-8.5397 1.79782,-9.6429 0.49031,-0.082 1.26665,-0.2043 2.28813,-0.2043 1.75696,0 5.02573,0.4086 7.4773,2.1656 0.16344,0.6129 0.32687,2.2881 0.32687,4.0451 0,1.1849 -0.0817,2.4515 -0.24515,3.4322 -2.45158,5.5977 -8.37621,12.5847 -9.68371,12.5847 z"
             id="path161274"
             inkscape:connector-curvature="0" />
        </g>
        <g
           style="font-style:normal;font-variant:normal;font-weight:normal;font-stretch:normal;font-size:27.73532486px;line-height:125%;font-family:Kavoon;-inkscape-font-specification:Kavoon;letter-spacing:0px;word-spacing:0px;fill:#84c915;fill-opacity:1;stroke:none;stroke-width:1px;stroke-linecap:butt;stroke-linejoin:miter;stroke-opacity:1"
           id="g161276">
          <path
             d="m -668.34249,1130.1052 c 0,1.6116 1.70637,2.9658 3.42629,2.9658 1.71991,0 3.42629,-1.3542 3.42629,-2.9658 0,-1.3949 -0.86673,-2.7356 -3.42629,-2.7356 -2.55956,0 -3.42629,1.3407 -3.42629,2.7356 z"
             id="path161278"
             inkscape:connector-curvature="0" />
          <path
             d="m -652.45697,1133.071 c 3.25023,0 5.49831,-2.3429 6.08064,-3.02 -0.13542,-1.3542 -0.62296,-2.0314 -1.25946,-2.6679 -1.36781,0.5959 -2.64082,1.3001 -3.99508,1.3001 -2.27516,0 -2.4783,-2.1533 -2.4783,-3.5617 0,-1.3136 0.21668,-2.7627 0.6365,-3.643 0.0813,-0.014 0.20314,-0.027 0.35211,-0.027 0.69067,0 1.96368,0.1761 2.26162,0.5147 l 0.28439,2.5053 c 0.29794,0.1761 0.93445,0.2709 1.55741,0.2709 0.56879,0 1.13758,-0.068 1.44906,-0.2302 0.58233,-0.6501 1.25947,-4.3337 1.25947,-5.7963 -0.55525,-0.7448 -0.93445,-0.9615 -1.78763,-1.5574 -1.44907,-0.2979 -3.0471,-0.4063 -4.02217,-0.4063 -5.11911,0 -7.32656,3.6566 -7.32656,8.1798 0,4.4962 2.39704,8.1391 6.988,8.1391 z"
             id="path161280"
             inkscape:connector-curvature="0" />
          <path
             d="m -637.6955,1133.071 c 4.92952,0 7.31303,-3.5752 7.31303,-8.1391 0,-4.8076 -1.40844,-8.1798 -7.02863,-8.1798 -5.06495,0 -7.31303,3.2909 -7.2724,8.1798 0.0406,4.4691 1.78763,8.1391 6.988,8.1391 z m -1.15112,-4.3201 c -0.2844,-1.0157 -0.52816,-2.4512 -0.52816,-3.8325 0,-1.2189 0.18959,-2.3971 0.67713,-3.2367 0.17605,-0.1084 0.62296,-0.1625 1.09695,-0.149 0.59588,0.014 1.21884,0.1219 1.42198,0.3521 0.33857,0.7178 0.51462,2.072 0.51462,3.4398 0,1.4491 -0.20314,2.9252 -0.6365,3.6701 -0.0948,0.068 -0.43337,0.1083 -0.83965,0.1083 -0.65004,0 -1.47615,-0.1083 -1.70637,-0.3521 z"
             id="path161282"
             inkscape:connector-curvature="0" />
          <path
             d="m -627.0239,1132.3397 c 0,0 0.43337,0.7313 2.69499,0.7313 1.54386,0 2.55956,-0.5011 2.87104,-1.0834 -0.39274,-1.3136 -0.70422,-3.0471 -0.70422,-3.9544 0,-0.1355 0.0135,-0.2709 0.0271,-0.3657 0.39273,-0.9615 2.35642,-4.916 2.69498,-5.1733 0.29794,0.014 0.48754,0.081 0.63651,0.2032 0,1.6386 -0.32503,3.5075 -0.32503,5.3899 0,2.7086 0.23023,4.2524 0.23023,4.2524 0,0 0.29794,0.7313 2.55956,0.7313 1.54386,0 2.55955,-0.5011 2.87104,-1.0834 -0.24377,-0.8125 -0.46045,-1.7876 -0.58234,-2.6273 0.27085,-1.6792 1.92306,-6.0264 2.78979,-6.8661 0.29793,0.014 0.48753,0.081 0.6365,0.2032 -0.20314,2.1668 -0.29794,4.9837 -0.29794,7.3265 0,2.4106 1.40844,3.0471 2.91167,3.0471 2.88458,0 4.49616,-2.6408 4.49616,-2.6408 -0.10835,-0.9615 -0.50108,-1.7876 -1.23238,-2.4106 l -2.00432,0.8397 -0.0271,-0.027 c 0.43336,-1.2866 1.53032,-4.3337 1.53032,-7.4349 0,-2.3429 -0.90736,-4.6181 -3.84611,-4.6181 -3.67006,0 -4.40136,4.442 -5.13266,7.3537 -0.0271,0.068 -0.0948,0.095 -0.16251,0.095 -0.13543,0 -0.29794,-0.095 -0.29794,-0.1896 0.29794,-1.0834 0.48753,-2.1939 0.48753,-3.2232 0,-2.2345 -0.90735,-4.0357 -3.62942,-4.0357 -3.94091,0 -4.17114,4.3608 -4.90244,7.2724 -0.0271,0.068 -0.0948,0.095 -0.16251,0.095 -0.13543,0 -0.29794,-0.095 -0.29794,-0.1896 0,-0.014 0.0271,-0.2573 0.37919,-2.2616 0.13543,-0.7855 0.23023,-1.5032 0.23023,-2.1262 0,-1.7741 -0.7313,-2.8169 -3.00647,-2.8169 -1.58449,0 -3.00646,0.8126 -3.34503,1.1105 0,1.3543 0.0542,2.1127 0.46045,3.3586 l 1.5574,0.2032 c -0.32502,3.0741 -0.33856,3.9002 -0.33856,6.6629 0,2.7086 0.23022,4.2524 0.23022,4.2524 z"
             id="path161284"
             inkscape:connector-curvature="0" />
        </g>
      </g>
    </g>
    <g
       id="motto1"
       inkscape:label="#g62522"
       transform="translate(0,-46)">
      <path
         d="m 53.18614,977.53677 0,15.52821 3.463713,0 q 3.955187,0 5.792359,-1.87228 1.848874,-1.87228 1.848874,-5.90938 0,-4.01369 -1.848874,-5.88597 -1.837172,-1.86058 -5.792359,-1.86058 l -3.463713,0 z m -1.193577,-0.99464 4.294537,0 q 4.774307,0 7.009339,2.11801 2.235031,2.10631 2.235031,6.59978 0,4.51687 -2.246733,6.63488 -2.246733,2.11802 -6.997637,2.11802 l -4.294537,0 0,-17.47069 z"
         style="font-style:normal;font-variant:normal;font-weight:200;font-stretch:normal;font-size:23.96515274px;line-height:125%;font-family:'DejaVu Sans';-inkscape-font-specification:'DejaVu Sans Ultra-Light';text-align:center;letter-spacing:-2.722054px;word-spacing:0px;text-anchor:middle;fill:#000000;fill-opacity:1;stroke:none;stroke-width:1px;stroke-linecap:butt;stroke-linejoin:miter;stroke-opacity:1"
         id="path62393"
         inkscape:connector-curvature="0" />
      <path
         d="m 78.793987,979.32714 q -1.68505,-2.18822 -4.551975,-2.18822 -2.866925,0 -4.563676,2.18822 -1.68505,2.18822 -1.68505,5.96789 0,3.75625 1.68505,5.94448 1.696751,2.18822 4.563676,2.18822 2.866925,0 4.551975,-2.18822 1.673348,-2.18823 1.673348,-5.94448 0,-3.77967 -1.673348,-5.96789 z m -4.551975,-3.10096 q 3.393503,0 5.429605,2.45736 2.036102,2.46907 2.036102,6.61149 0,4.13071 -2.036102,6.58807 -2.036102,2.46907 -5.429605,2.46907 -3.405205,0 -5.453008,-2.45737 -2.036102,-2.45736 -2.036102,-6.59977 0,-4.14242 2.036102,-6.61149 2.047803,-2.45736 5.453008,-2.45736 z"
         style="font-style:normal;font-variant:normal;font-weight:200;font-stretch:normal;font-size:23.96515274px;line-height:125%;font-family:'DejaVu Sans';-inkscape-font-specification:'DejaVu Sans Ultra-Light';text-align:center;letter-spacing:-2.722054px;word-spacing:0px;text-anchor:middle;fill:#000000;fill-opacity:1;stroke:none;stroke-width:1px;stroke-linecap:butt;stroke-linejoin:miter;stroke-opacity:1"
         id="path62395"
         inkscape:connector-curvature="0" />
      <path
         d="m 89.697203,976.54213 1.626541,0 4.85622,12.95382 4.879626,-12.95382 1.61484,0 0,17.47069 -1.19358,0 0,-15.34098 -4.493466,11.98258 -1.61484,0 -4.481764,-11.98258 0,15.34098 -1.193577,0 0,-17.47069 z"
         style="font-style:normal;font-variant:normal;font-weight:200;font-stretch:normal;font-size:23.96515274px;line-height:125%;font-family:'DejaVu Sans';-inkscape-font-specification:'DejaVu Sans Ultra-Light';text-align:center;letter-spacing:-2.722054px;word-spacing:0px;text-anchor:middle;fill:#000000;fill-opacity:1;stroke:none;stroke-width:1px;stroke-linecap:butt;stroke-linejoin:miter;stroke-opacity:1"
         id="path62397"
         inkscape:connector-curvature="0" />
      <path
         d="m 117.80922,979.32714 q -1.68505,-2.18822 -4.55197,-2.18822 -2.86693,0 -4.56368,2.18822 -1.68505,2.18822 -1.68505,5.96789 0,3.75625 1.68505,5.94448 1.69675,2.18822 4.56368,2.18822 2.86692,0 4.55197,-2.18822 1.67335,-2.18823 1.67335,-5.94448 0,-3.77967 -1.67335,-5.96789 z m -4.55197,-3.10096 q 3.3935,0 5.4296,2.45736 2.0361,2.46907 2.0361,6.61149 0,4.13071 -2.0361,6.58807 -2.0361,2.46907 -5.4296,2.46907 -3.40521,0 -5.45301,-2.45737 -2.0361,-2.45736 -2.0361,-6.59977 0,-4.14242 2.0361,-6.61149 2.0478,-2.45736 5.45301,-2.45736 z"
         style="font-style:normal;font-variant:normal;font-weight:200;font-stretch:normal;font-size:23.96515274px;line-height:125%;font-family:'DejaVu Sans';-inkscape-font-specification:'DejaVu Sans Ultra-Light';text-align:center;letter-spacing:-2.722054px;word-spacing:0px;text-anchor:middle;fill:#000000;fill-opacity:1;stroke:none;stroke-width:1px;stroke-linecap:butt;stroke-linejoin:miter;stroke-opacity:1"
         id="path62399"
         inkscape:connector-curvature="0" />
      <path
         d="m 130.10049,985.8216 q 0.72551,0.25744 1.40421,1.09997 0.47977,0.60849 1.36911,2.31694 l 2.44566,4.77431 -1.25209,0 -2.49247,-4.79771 q -0.97124,-1.88398 -1.86057,-2.49247 -0.91274,-0.60849 -2.46907,-0.60849 l -3.17117,0 0,7.89867 -1.17017,0 0,-17.47069 4.7392,0 q 2.6797,0 4.00199,1.25208 1.3223,1.25209 1.3223,3.77966 0,1.62654 -0.6904,2.73821 -0.6553,1.08826 -2.17653,1.50952 z m -6.02639,-8.31993 0,7.64123 3.86157,0 q 1.87228,0 2.83182,-0.97124 0.95955,-0.97125 0.95955,-2.86693 0,-1.88398 -0.95955,-2.84352 -0.95954,-0.95954 -2.83182,-0.95954 l -3.86157,0 z"
         style="font-style:normal;font-variant:normal;font-weight:200;font-stretch:normal;font-size:23.96515274px;line-height:125%;font-family:'DejaVu Sans';-inkscape-font-specification:'DejaVu Sans Ultra-Light';text-align:center;letter-spacing:-2.722054px;word-spacing:0px;text-anchor:middle;fill:#000000;fill-opacity:1;stroke:none;stroke-width:1px;stroke-linecap:butt;stroke-linejoin:miter;stroke-opacity:1"
         id="path62401"
         inkscape:connector-curvature="0" />
      <path
         d="m 136.81004,976.54213 9.87626,0 0,0.97124 -8.68269,0 0,6.7051 8.31994,0 0,0.94784 -8.31994,0 0,7.89867 8.89332,0 0,0.94784 -10.08689,0 0,-17.47069 z"
         style="font-style:normal;font-variant:normal;font-weight:200;font-stretch:normal;font-size:23.96515274px;line-height:125%;font-family:'DejaVu Sans';-inkscape-font-specification:'DejaVu Sans Ultra-Light';text-align:center;letter-spacing:-2.722054px;word-spacing:0px;text-anchor:middle;fill:#000000;fill-opacity:1;stroke:none;stroke-width:1px;stroke-linecap:butt;stroke-linejoin:miter;stroke-opacity:1"
         id="path62403"
         inkscape:connector-curvature="0" />
      <path
         d="m 152.90882,976.54213 1.20528,0 3.99029,16.08988 3.97859,-16.08988 1.47442,0 3.95518,15.99627 3.97859,-15.99627 1.20528,0 -4.34134,17.47069 -1.67335,0 -3.86157,-15.56331 -3.84987,15.56331 -1.73186,0 -4.32964,-17.47069 z"
         style="font-style:normal;font-variant:normal;font-weight:200;font-stretch:normal;font-size:23.96515274px;line-height:125%;font-family:'DejaVu Sans';-inkscape-font-specification:'DejaVu Sans Ultra-Light';text-align:center;letter-spacing:-2.722054px;word-spacing:0px;text-anchor:middle;fill:#000000;fill-opacity:1;stroke:none;stroke-width:1px;stroke-linecap:butt;stroke-linejoin:miter;stroke-opacity:1"
         id="path62405"
         inkscape:connector-curvature="0" />
      <path
         d="m 175.11146,976.54213 1.21698,0 0,17.47069 -1.21698,0 0,-17.47069 z"
         style="font-style:normal;font-variant:normal;font-weight:200;font-stretch:normal;font-size:23.96515274px;line-height:125%;font-family:'DejaVu Sans';-inkscape-font-specification:'DejaVu Sans Ultra-Light';text-align:center;letter-spacing:-2.722054px;word-spacing:0px;text-anchor:middle;fill:#000000;fill-opacity:1;stroke:none;stroke-width:1px;stroke-linecap:butt;stroke-linejoin:miter;stroke-opacity:1"
         id="path62407"
         inkscape:connector-curvature="0" />
      <path
         d="m 177.0818,976.54213 13.58572,0 0,0.95954 -6.20192,0 0,16.51115 -1.18188,0 0,-16.51115 -6.20192,0 0,-0.95954 z"
         style="font-style:normal;font-variant:normal;font-weight:200;font-stretch:normal;font-size:23.96515274px;line-height:125%;font-family:'DejaVu Sans';-inkscape-font-specification:'DejaVu Sans Ultra-Light';text-align:center;letter-spacing:-2.722054px;word-spacing:0px;text-anchor:middle;fill:#000000;fill-opacity:1;stroke:none;stroke-width:1px;stroke-linecap:butt;stroke-linejoin:miter;stroke-opacity:1"
         id="path62409"
         inkscape:connector-curvature="0" />
      <path
         d="m 191.39747,976.54213 1.18188,0 0,7.67634 9.77094,0 0,-7.67634 1.18188,0 0,17.47069 -1.18188,0 0,-8.84651 -9.77094,0 0,8.84651 -1.18188,0 0,-17.47069 z"
         style="font-style:normal;font-variant:normal;font-weight:200;font-stretch:normal;font-size:23.96515274px;line-height:125%;font-family:'DejaVu Sans';-inkscape-font-specification:'DejaVu Sans Ultra-Light';text-align:center;letter-spacing:-2.722054px;word-spacing:0px;text-anchor:middle;fill:#000000;fill-opacity:1;stroke:none;stroke-width:1px;stroke-linecap:butt;stroke-linejoin:miter;stroke-opacity:1"
         id="path62411"
         inkscape:connector-curvature="0" />
      <path
         d="m 209.22812,976.54213 1.3574,0 5.44131,8.05079 5.4062,-8.05079 1.334,0 -6.17852,9.15075 0,8.31994 -1.18188,0 0,-8.31994 -6.17851,-9.15075 z"
         style="font-style:normal;font-variant:normal;font-weight:200;font-stretch:normal;font-size:23.96515274px;line-height:125%;font-family:'DejaVu Sans';-inkscape-font-specification:'DejaVu Sans Ultra-Light';text-align:center;letter-spacing:-2.722054px;word-spacing:0px;text-anchor:middle;fill:#000000;fill-opacity:1;stroke:none;stroke-width:1px;stroke-linecap:butt;stroke-linejoin:miter;stroke-opacity:1"
         id="path62413"
         inkscape:connector-curvature="0" />
      <path
         d="m 233.30303,979.32714 q -1.68505,-2.18822 -4.55197,-2.18822 -2.86693,0 -4.56368,2.18822 -1.68505,2.18822 -1.68505,5.96789 0,3.75625 1.68505,5.94448 1.69675,2.18822 4.56368,2.18822 2.86692,0 4.55197,-2.18822 1.67335,-2.18823 1.67335,-5.94448 0,-3.77967 -1.67335,-5.96789 z m -4.55197,-3.10096 q 3.3935,0 5.4296,2.45736 2.03611,2.46907 2.03611,6.61149 0,4.13071 -2.03611,6.58807 -2.0361,2.46907 -5.4296,2.46907 -3.40521,0 -5.45301,-2.45737 -2.0361,-2.45736 -2.0361,-6.59977 0,-4.14242 2.0361,-6.61149 2.0478,-2.45736 5.45301,-2.45736 z"
         style="font-style:normal;font-variant:normal;font-weight:200;font-stretch:normal;font-size:23.96515274px;line-height:125%;font-family:'DejaVu Sans';-inkscape-font-specification:'DejaVu Sans Ultra-Light';text-align:center;letter-spacing:-2.722054px;word-spacing:0px;text-anchor:middle;fill:#000000;fill-opacity:1;stroke:none;stroke-width:1px;stroke-linecap:butt;stroke-linejoin:miter;stroke-opacity:1"
         id="path62415"
         inkscape:connector-curvature="0" />
      <path
         d="m 238.1286,976.54213 1.17017,0 0,10.61347 q 0,3.32329 1.17018,4.78601 1.15847,1.45102 3.75625,1.45102 2.58609,0 3.74456,-1.45102 1.17017,-1.46272 1.17017,-4.78601 l 0,-10.61347 1.17018,0 0,10.90601 q 0,3.41691 -1.54463,5.16047 -1.53293,1.74356 -4.54028,1.74356 -3.01904,0 -4.55197,-1.74356 -1.54463,-1.74356 -1.54463,-5.16047 l 0,-10.90601 z"
         style="font-style:normal;font-variant:normal;font-weight:200;font-stretch:normal;font-size:23.96515274px;line-height:125%;font-family:'DejaVu Sans';-inkscape-font-specification:'DejaVu Sans Ultra-Light';text-align:center;letter-spacing:-2.722054px;word-spacing:0px;text-anchor:middle;fill:#000000;fill-opacity:1;stroke:none;stroke-width:1px;stroke-linecap:butt;stroke-linejoin:miter;stroke-opacity:1"
         id="path62417"
         inkscape:connector-curvature="0" />
      <path
         d="m 260.42486,985.8216 q 0.72551,0.25744 1.40421,1.09997 0.47977,0.60849 1.3691,2.31694 l 2.44566,4.77431 -1.25208,0 -2.49247,-4.79771 q -0.97125,-1.88398 -1.86058,-2.49247 -0.91273,-0.60849 -2.46907,-0.60849 l -3.17117,0 0,7.89867 -1.17017,0 0,-17.47069 4.7392,0 q 2.6797,0 4.002,1.25208 1.32229,1.25209 1.32229,3.77966 0,1.62654 -0.6904,2.73821 -0.6553,1.08826 -2.17652,1.50952 z m -6.0264,-8.31993 0,7.64123 3.86158,0 q 1.87227,0 2.83182,-0.97124 0.95954,-0.97125 0.95954,-2.86693 0,-1.88398 -0.95954,-2.84352 -0.95955,-0.95954 -2.83182,-0.95954 l -3.86158,0 z"
         style="font-style:normal;font-variant:normal;font-weight:200;font-stretch:normal;font-size:23.96515274px;line-height:125%;font-family:'DejaVu Sans';-inkscape-font-specification:'DejaVu Sans Ultra-Light';text-align:center;letter-spacing:-2.722054px;word-spacing:0px;text-anchor:middle;fill:#000000;fill-opacity:1;stroke:none;stroke-width:1px;stroke-linecap:butt;stroke-linejoin:miter;stroke-opacity:1"
         id="path62419"
         inkscape:connector-curvature="0" />
      <path
         d="m 272.03018,976.54213 1.21698,0 0,17.47069 -1.21698,0 0,-17.47069 z"
         style="font-style:normal;font-variant:normal;font-weight:200;font-stretch:normal;font-size:23.96515274px;line-height:125%;font-family:'DejaVu Sans';-inkscape-font-specification:'DejaVu Sans Ultra-Light';text-align:center;letter-spacing:-2.722054px;word-spacing:0px;text-anchor:middle;fill:#000000;fill-opacity:1;stroke:none;stroke-width:1px;stroke-linecap:butt;stroke-linejoin:miter;stroke-opacity:1"
         id="path62421"
         inkscape:connector-curvature="0" />
      <path
         d="m 276.37597,976.54213 1.73186,0 8.47206,15.97287 0,-15.97287 1.17017,0 0,17.47069 -1.66165,0 -8.51886,-16.07819 0,16.07819 -1.19358,0 0,-17.47069 z"
         style="font-style:normal;font-variant:normal;font-weight:200;font-stretch:normal;font-size:23.96515274px;line-height:125%;font-family:'DejaVu Sans';-inkscape-font-specification:'DejaVu Sans Ultra-Light';text-align:center;letter-spacing:-2.722054px;word-spacing:0px;text-anchor:middle;fill:#000000;fill-opacity:1;stroke:none;stroke-width:1px;stroke-linecap:butt;stroke-linejoin:miter;stroke-opacity:1"
         id="path62423"
         inkscape:connector-curvature="0" />
      <path
         d="m 291.60438,976.54213 8.85821,0 0,0.97124 -7.67634,0 0,6.7051 6.92743,0 0,0.94784 -6.92743,0 0,8.84651 -1.18187,0 0,-17.47069 z"
         style="font-style:normal;font-variant:normal;font-weight:200;font-stretch:normal;font-size:23.96515274px;line-height:125%;font-family:'DejaVu Sans';-inkscape-font-specification:'DejaVu Sans Ultra-Light';text-align:center;letter-spacing:-2.722054px;word-spacing:0px;text-anchor:middle;fill:#000000;fill-opacity:1;stroke:none;stroke-width:1px;stroke-linecap:butt;stroke-linejoin:miter;stroke-opacity:1"
         id="path62425"
         inkscape:connector-curvature="0" />
      <path
         d="m 313.76022,979.32714 q -1.68505,-2.18822 -4.55198,-2.18822 -2.86692,0 -4.56367,2.18822 -1.68505,2.18822 -1.68505,5.96789 0,3.75625 1.68505,5.94448 1.69675,2.18822 4.56367,2.18822 2.86693,0 4.55198,-2.18822 1.67335,-2.18823 1.67335,-5.94448 0,-3.77967 -1.67335,-5.96789 z m -4.55198,-3.10096 q 3.39351,0 5.42961,2.45736 2.0361,2.46907 2.0361,6.61149 0,4.13071 -2.0361,6.58807 -2.0361,2.46907 -5.42961,2.46907 -3.4052,0 -5.45301,-2.45737 -2.0361,-2.45736 -2.0361,-6.59977 0,-4.14242 2.0361,-6.61149 2.04781,-2.45736 5.45301,-2.45736 z"
         style="font-style:normal;font-variant:normal;font-weight:200;font-stretch:normal;font-size:23.96515274px;line-height:125%;font-family:'DejaVu Sans';-inkscape-font-specification:'DejaVu Sans Ultra-Light';text-align:center;letter-spacing:-2.722054px;word-spacing:0px;text-anchor:middle;fill:#000000;fill-opacity:1;stroke:none;stroke-width:1px;stroke-linecap:butt;stroke-linejoin:miter;stroke-opacity:1"
         id="path62427"
         inkscape:connector-curvature="0" />
      <path
         d="m 326.05148,985.8216 q 0.7255,0.25744 1.4042,1.09997 0.47977,0.60849 1.36911,2.31694 l 2.44566,4.77431 -1.25209,0 -2.49247,-4.79771 q -0.97124,-1.88398 -1.86057,-2.49247 -0.91274,-0.60849 -2.46907,-0.60849 l -3.17117,0 0,7.89867 -1.17017,0 0,-17.47069 4.7392,0 q 2.6797,0 4.00199,1.25208 1.3223,1.25209 1.3223,3.77966 0,1.62654 -0.6904,2.73821 -0.6553,1.08826 -2.17652,1.50952 z m -6.0264,-8.31993 0,7.64123 3.86157,0 q 1.87228,0 2.83182,-0.97124 0.95955,-0.97125 0.95955,-2.86693 0,-1.88398 -0.95955,-2.84352 -0.95954,-0.95954 -2.83182,-0.95954 l -3.86157,0 z"
         style="font-style:normal;font-variant:normal;font-weight:200;font-stretch:normal;font-size:23.96515274px;line-height:125%;font-family:'DejaVu Sans';-inkscape-font-specification:'DejaVu Sans Ultra-Light';text-align:center;letter-spacing:-2.722054px;word-spacing:0px;text-anchor:middle;fill:#000000;fill-opacity:1;stroke:none;stroke-width:1px;stroke-linecap:butt;stroke-linejoin:miter;stroke-opacity:1"
         id="path62429"
         inkscape:connector-curvature="0" />
      <path
         d="m 333.69716,976.54213 1.62655,0 4.85622,12.95382 4.87962,-12.95382 1.61484,0 0,17.47069 -1.19358,0 0,-15.34098 -4.49346,11.98258 -1.61484,0 -4.48177,-11.98258 0,15.34098 -1.19358,0 0,-17.47069 z"
         style="font-style:normal;font-variant:normal;font-weight:200;font-stretch:normal;font-size:23.96515274px;line-height:125%;font-family:'DejaVu Sans';-inkscape-font-specification:'DejaVu Sans Ultra-Light';text-align:center;letter-spacing:-2.722054px;word-spacing:0px;text-anchor:middle;fill:#000000;fill-opacity:1;stroke:none;stroke-width:1px;stroke-linecap:butt;stroke-linejoin:miter;stroke-opacity:1"
         id="path62431"
         inkscape:connector-curvature="0" />
      <path
         d="m 355.94661,977.724 -3.74455,9.82946 7.4306,0 -3.68605,-9.82946 z m -0.74891,-1.18187 1.53293,0 6.68169,17.47069 -1.334,0 -2.08291,-5.48812 -8.15611,0 -2.0712,5.48812 -1.24039,0 6.66999,-17.47069 z"
         style="font-style:normal;font-variant:normal;font-weight:200;font-stretch:normal;font-size:23.96515274px;line-height:125%;font-family:'DejaVu Sans';-inkscape-font-specification:'DejaVu Sans Ultra-Light';text-align:center;letter-spacing:-2.722054px;word-spacing:0px;text-anchor:middle;fill:#000000;fill-opacity:1;stroke:none;stroke-width:1px;stroke-linecap:butt;stroke-linejoin:miter;stroke-opacity:1"
         id="path62433"
         inkscape:connector-curvature="0" />
      <path
         d="m 360.1286,976.54213 13.58572,0 0,0.95954 -6.20192,0 0,16.51115 -1.18188,0 0,-16.51115 -6.20192,0 0,-0.95954 z"
         style="font-style:normal;font-variant:normal;font-weight:200;font-stretch:normal;font-size:23.96515274px;line-height:125%;font-family:'DejaVu Sans';-inkscape-font-specification:'DejaVu Sans Ultra-Light';text-align:center;letter-spacing:-2.722054px;word-spacing:0px;text-anchor:middle;fill:#000000;fill-opacity:1;stroke:none;stroke-width:1px;stroke-linecap:butt;stroke-linejoin:miter;stroke-opacity:1"
         id="path62435"
         inkscape:connector-curvature="0" />
      <path
         d="m 374.43255,976.54213 1.21698,0 0,17.47069 -1.21698,0 0,-17.47069 z"
         style="font-style:normal;font-variant:normal;font-weight:200;font-stretch:normal;font-size:23.96515274px;line-height:125%;font-family:'DejaVu Sans';-inkscape-font-specification:'DejaVu Sans Ultra-Light';text-align:center;letter-spacing:-2.722054px;word-spacing:0px;text-anchor:middle;fill:#000000;fill-opacity:1;stroke:none;stroke-width:1px;stroke-linecap:butt;stroke-linejoin:miter;stroke-opacity:1"
         id="path62437"
         inkscape:connector-curvature="0" />
      <path
         d="m 389.87159,979.32714 q -1.68505,-2.18822 -4.55197,-2.18822 -2.86693,0 -4.56368,2.18822 -1.68505,2.18822 -1.68505,5.96789 0,3.75625 1.68505,5.94448 1.69675,2.18822 4.56368,2.18822 2.86692,0 4.55197,-2.18822 1.67335,-2.18823 1.67335,-5.94448 0,-3.77967 -1.67335,-5.96789 z m -4.55197,-3.10096 q 3.3935,0 5.4296,2.45736 2.0361,2.46907 2.0361,6.61149 0,4.13071 -2.0361,6.58807 -2.0361,2.46907 -5.4296,2.46907 -3.40521,0 -5.45301,-2.45737 -2.0361,-2.45736 -2.0361,-6.59977 0,-4.14242 2.0361,-6.61149 2.0478,-2.45736 5.45301,-2.45736 z"
         style="font-style:normal;font-variant:normal;font-weight:200;font-stretch:normal;font-size:23.96515274px;line-height:125%;font-family:'DejaVu Sans';-inkscape-font-specification:'DejaVu Sans Ultra-Light';text-align:center;letter-spacing:-2.722054px;word-spacing:0px;text-anchor:middle;fill:#000000;fill-opacity:1;stroke:none;stroke-width:1px;stroke-linecap:butt;stroke-linejoin:miter;stroke-opacity:1"
         id="path62439"
         inkscape:connector-curvature="0" />
      <path
         d="m 394.91949,976.54213 1.73186,0 8.47205,15.97287 0,-15.97287 1.17018,0 0,17.47069 -1.66165,0 -8.51886,-16.07819 0,16.07819 -1.19358,0 0,-17.47069 z"
         style="font-style:normal;font-variant:normal;font-weight:200;font-stretch:normal;font-size:23.96515274px;line-height:125%;font-family:'DejaVu Sans';-inkscape-font-specification:'DejaVu Sans Ultra-Light';text-align:center;letter-spacing:-2.722054px;word-spacing:0px;text-anchor:middle;fill:#000000;fill-opacity:1;stroke:none;stroke-width:1px;stroke-linecap:butt;stroke-linejoin:miter;stroke-opacity:1"
         id="path62441"
         inkscape:connector-curvature="0" />
    </g>
    <g
       id="motto2"
       inkscape:label="#g62549"
       transform="translate(0,-46)">
      <path
         d="m 113.76479,1014.1602 18.07529,0 0,0.8021 -18.07529,0 0,-0.8021 z"
         style="font-style:normal;font-variant:normal;font-weight:200;font-stretch:normal;font-size:20.03149033px;line-height:125%;font-family:'DejaVu Sans';-inkscape-font-specification:'DejaVu Sans Ultra-Light';text-align:center;letter-spacing:-2.722054px;word-spacing:0px;text-anchor:middle;fill:#000000;fill-opacity:1;stroke:none;stroke-width:1px;stroke-linecap:butt;stroke-linejoin:miter;stroke-opacity:1"
         id="path62443"
         inkscape:connector-curvature="0" />
      <path
         d="m 135.99113,1005.4453 0.9781,0 0,8.8714 q 0,2.7778 0.9781,4.0004 0.96832,1.2129 3.1397,1.2129 2.16161,0 3.12992,-1.2129 0.9781,-1.2226 0.9781,-4.0004 l 0,-8.8714 0.9781,0 0,9.1159 q 0,2.8561 -1.29109,4.3135 -1.28131,1.4573 -3.79503,1.4573 -2.52349,0 -3.80481,-1.4573 -1.29109,-1.4574 -1.29109,-4.3135 l 0,-9.1159 z"
         style="font-style:normal;font-variant:normal;font-weight:200;font-stretch:normal;font-size:20.03149033px;line-height:125%;font-family:'DejaVu Sans';-inkscape-font-specification:'DejaVu Sans Ultra-Light';text-align:center;letter-spacing:-2.722054px;word-spacing:0px;text-anchor:middle;fill:#000000;fill-opacity:1;stroke:none;stroke-width:1px;stroke-linecap:butt;stroke-linejoin:miter;stroke-opacity:1"
         id="path62445"
         inkscape:connector-curvature="0" />
      <path
         d="m 148.12642,1005.4453 1.44759,0 7.08144,13.3511 0,-13.3511 0.9781,0 0,14.6031 -1.3889,0 -7.12057,-13.4391 0,13.4391 -0.99766,0 0,-14.6031 z"
         style="font-style:normal;font-variant:normal;font-weight:200;font-stretch:normal;font-size:20.03149033px;line-height:125%;font-family:'DejaVu Sans';-inkscape-font-specification:'DejaVu Sans Ultra-Light';text-align:center;letter-spacing:-2.722054px;word-spacing:0px;text-anchor:middle;fill:#000000;fill-opacity:1;stroke:none;stroke-width:1px;stroke-linecap:butt;stroke-linejoin:miter;stroke-opacity:1"
         id="path62447"
         inkscape:connector-curvature="0" />
      <path
         d="m 161.3963,1006.2767 0,12.9794 2.89518,0 q 3.30598,0 4.84159,-1.5649 1.5454,-1.565 1.5454,-4.9394 0,-3.3549 -1.5454,-4.9199 -1.53561,-1.5552 -4.84159,-1.5552 l -2.89518,0 z m -0.99766,-0.8314 3.58963,0 q 3.99065,0 5.85882,1.7704 1.86817,1.7606 1.86817,5.5165 0,3.7755 -1.87795,5.5458 -1.87796,1.7704 -5.84904,1.7704 l -3.58963,0 0,-14.6031 z"
         style="font-style:normal;font-variant:normal;font-weight:200;font-stretch:normal;font-size:20.03149033px;line-height:125%;font-family:'DejaVu Sans';-inkscape-font-specification:'DejaVu Sans Ultra-Light';text-align:center;letter-spacing:-2.722054px;word-spacing:0px;text-anchor:middle;fill:#000000;fill-opacity:1;stroke:none;stroke-width:1px;stroke-linecap:butt;stroke-linejoin:miter;stroke-opacity:1"
         id="path62449"
         inkscape:connector-curvature="0" />
      <path
         d="m 173.09144,1005.4453 8.25517,0 0,0.8119 -7.25751,0 0,5.6045 6.9543,0 0,0.7922 -6.9543,0 0,6.6022 7.43356,0 0,0.7923 -8.43122,0 0,-14.6031 z"
         style="font-style:normal;font-variant:normal;font-weight:200;font-stretch:normal;font-size:20.03149033px;line-height:125%;font-family:'DejaVu Sans';-inkscape-font-specification:'DejaVu Sans Ultra-Light';text-align:center;letter-spacing:-2.722054px;word-spacing:0px;text-anchor:middle;fill:#000000;fill-opacity:1;stroke:none;stroke-width:1px;stroke-linecap:butt;stroke-linejoin:miter;stroke-opacity:1"
         id="path62451"
         inkscape:connector-curvature="0" />
      <path
         d="m 189.09023,1013.2017 q 0.60642,0.2152 1.17372,0.9194 0.40102,0.5086 1.14437,1.9366 l 2.04423,3.9907 -1.04657,0 -2.08335,-4.0102 q -0.81182,-1.5748 -1.55518,-2.0834 -0.76292,-0.5086 -2.06379,-0.5086 l -2.65065,0 0,6.6022 -0.9781,0 0,-14.6031 3.9613,0 q 2.23985,0 3.34511,1.0466 1.10525,1.0466 1.10525,3.1593 0,1.3595 -0.57708,2.2887 -0.54773,0.9097 -1.81926,1.2618 z m -5.03722,-6.9543 0,6.387 3.22773,0 q 1.56496,0 2.367,-0.8118 0.80204,-0.8119 0.80204,-2.3964 0,-1.5747 -0.80204,-2.3768 -0.80204,-0.802 -2.367,-0.802 l -3.22773,0 z"
         style="font-style:normal;font-variant:normal;font-weight:200;font-stretch:normal;font-size:20.03149033px;line-height:125%;font-family:'DejaVu Sans';-inkscape-font-specification:'DejaVu Sans Ultra-Light';text-align:center;letter-spacing:-2.722054px;word-spacing:0px;text-anchor:middle;fill:#000000;fill-opacity:1;stroke:none;stroke-width:1px;stroke-linecap:butt;stroke-linejoin:miter;stroke-opacity:1"
         id="path62453"
         inkscape:connector-curvature="0" />
      <path
         d="m 195.43223,1005.4453 2.12247,0 4.04934,6.0056 4.01999,-6.0056 2.12248,0 -5.16437,7.6488 0,6.9543 -1.98555,0 0,-6.9543 -5.16436,-7.6488 z"
         style="font-style:normal;font-variant:normal;font-weight:normal;font-stretch:normal;font-size:20.03149033px;line-height:125%;font-family:'DejaVu Sans';-inkscape-font-specification:'DejaVu Sans';letter-spacing:-1.88764989px;word-spacing:0px;fill:#000000;fill-opacity:1;stroke:none;stroke-width:1px;stroke-linecap:butt;stroke-linejoin:miter;stroke-opacity:1"
         id="path62455"
         inkscape:connector-curvature="0" />
      <path
         d="m 211.7929,1006.7853 q -2.15182,0 -3.42335,1.6041 -1.26175,1.6041 -1.26175,4.3721 0,2.7583 1.26175,4.3624 1.27153,1.604 3.42335,1.604 2.15182,0 3.40379,-1.604 1.26175,-1.6041 1.26175,-4.3624 0,-2.768 -1.26175,-4.3721 -1.25197,-1.6041 -3.40379,-1.6041 z m 0,-1.604 q 3.07123,0 4.91006,2.0638 1.83883,2.054 1.83883,5.5164 0,3.4527 -1.83883,5.5165 -1.83883,2.054 -4.91006,2.054 -3.08101,0 -4.92962,-2.054 -1.83883,-2.054 -1.83883,-5.5165 0,-3.4624 1.83883,-5.5164 1.84861,-2.0638 4.92962,-2.0638 z"
         style="font-style:normal;font-variant:normal;font-weight:normal;font-stretch:normal;font-size:20.03149033px;line-height:125%;font-family:'DejaVu Sans';-inkscape-font-specification:'DejaVu Sans';letter-spacing:-1.88764989px;word-spacing:0px;fill:#000000;fill-opacity:1;stroke:none;stroke-width:1px;stroke-linecap:butt;stroke-linejoin:miter;stroke-opacity:1"
         id="path62457"
         inkscape:connector-curvature="0" />
      <path
         d="m 218.68557,1005.4453 1.98555,0 0,8.8714 q 0,2.3475 0.85094,3.3842 0.85095,1.027 2.75825,1.027 1.89751,0 2.74846,-1.027 0.85094,-1.0367 0.85094,-3.3842 l 0,-8.8714 1.98555,0 0,9.1159 q 0,2.8561 -1.41825,4.3135 -1.40846,1.4573 -4.1667,1.4573 -2.76803,0 -4.18627,-1.4573 -1.40847,-1.4574 -1.40847,-4.3135 l 0,-9.1159 z"
         style="font-style:normal;font-variant:normal;font-weight:normal;font-stretch:normal;font-size:20.03149033px;line-height:125%;font-family:'DejaVu Sans';-inkscape-font-specification:'DejaVu Sans';letter-spacing:-1.88764989px;word-spacing:0px;fill:#000000;fill-opacity:1;stroke:none;stroke-width:1px;stroke-linecap:butt;stroke-linejoin:miter;stroke-opacity:1"
         id="path62459"
         inkscape:connector-curvature="0" />
      <path
         d="m 237.78493,1013.2017 q 0.63577,0.2152 1.23241,0.9194 0.60642,0.7042 1.21284,1.9366 l 2.00511,3.9907 -2.12248,0 -1.86817,-3.7461 q -0.72379,-1.4672 -1.40846,-1.9465 -0.67489,-0.4792 -1.84861,-0.4792 l -2.15182,0 0,6.1718 -1.97577,0 0,-14.6031 4.46014,0 q 2.50394,0 3.73634,1.0466 1.23241,1.0466 1.23241,3.1593 0,1.3791 -0.64555,2.2887 -0.63576,0.9097 -1.85839,1.2618 z m -4.94918,-6.1327 0,5.1839 2.48437,0 q 1.42803,0 2.15182,-0.6553 0.73358,-0.6651 0.73358,-1.9464 0,-1.2813 -0.73358,-1.9269 -0.72379,-0.6553 -2.15182,-0.6553 l -2.48437,0 z"
         style="font-style:normal;font-variant:normal;font-weight:normal;font-stretch:normal;font-size:20.03149033px;line-height:125%;font-family:'DejaVu Sans';-inkscape-font-specification:'DejaVu Sans';letter-spacing:-1.88764989px;word-spacing:0px;fill:#000000;fill-opacity:1;stroke:none;stroke-width:1px;stroke-linecap:butt;stroke-linejoin:miter;stroke-opacity:1"
         id="path62461"
         inkscape:connector-curvature="0" />
      <path
         d="m 256.65639,1006.6582 0,1.1248 q -0.99766,-0.9096 -2.12247,-1.3498 -1.1346,-0.4499 -2.40613,-0.4499 -2.75824,0 -4.21561,1.741 -1.46715,1.741 -1.46715,5.0372 0,3.2962 1.46715,5.047 1.45737,1.7508 4.21561,1.7508 1.27153,0 2.40613,-0.4499 1.12481,-0.4597 2.12247,-1.3693 l 0,1.1835 q -1.03678,0.7042 -2.20072,1.0563 -1.15416,0.3521 -2.44525,0.3521 -3.07124,0 -4.83182,-2.0246 -1.76058,-2.0345 -1.76058,-5.5459 0,-3.5211 1.76058,-5.5458 1.76058,-2.0344 4.83182,-2.0344 1.31065,0 2.46481,0.3716 1.16394,0.3619 2.18116,1.1053 z"
         style="font-style:normal;font-variant:normal;font-weight:200;font-stretch:normal;font-size:20.03149033px;line-height:125%;font-family:'DejaVu Sans';-inkscape-font-specification:'DejaVu Sans Ultra-Light';text-align:center;letter-spacing:-2.722054px;word-spacing:0px;text-anchor:middle;fill:#000000;fill-opacity:1;stroke:none;stroke-width:1px;stroke-linecap:butt;stroke-linejoin:miter;stroke-opacity:1"
         id="path62463"
         inkscape:connector-curvature="0" />
      <path
         d="m 266.73766,1007.7732 q -1.40846,-1.829 -3.80481,-1.829 -2.39634,0 -3.81459,1.829 -1.40846,1.8291 -1.40846,4.9883 0,3.1397 1.40846,4.9688 1.41825,1.829 3.81459,1.829 2.39635,0 3.80481,-1.829 1.39869,-1.8291 1.39869,-4.9688 0,-3.1592 -1.39869,-4.9883 z m -3.80481,-2.5919 q 2.83649,0 4.53839,2.054 1.70189,2.0638 1.70189,5.5262 0,3.4527 -1.70189,5.5067 -1.7019,2.0638 -4.53839,2.0638 -2.84627,0 -4.55794,-2.054 -1.7019,-2.054 -1.7019,-5.5165 0,-3.4624 1.7019,-5.5262 1.71167,-2.054 4.55794,-2.054 z"
         style="font-style:normal;font-variant:normal;font-weight:200;font-stretch:normal;font-size:20.03149033px;line-height:125%;font-family:'DejaVu Sans';-inkscape-font-specification:'DejaVu Sans Ultra-Light';text-align:center;letter-spacing:-2.722054px;word-spacing:0px;text-anchor:middle;fill:#000000;fill-opacity:1;stroke:none;stroke-width:1px;stroke-linecap:butt;stroke-linejoin:miter;stroke-opacity:1"
         id="path62465"
         inkscape:connector-curvature="0" />
      <path
         d="m 270.5102,1005.4453 1.44758,0 7.08145,13.3511 0,-13.3511 0.9781,0 0,14.6031 -1.3889,0 -7.12057,-13.4391 0,13.4391 -0.99766,0 0,-14.6031 z"
         style="font-style:normal;font-variant:normal;font-weight:200;font-stretch:normal;font-size:20.03149033px;line-height:125%;font-family:'DejaVu Sans';-inkscape-font-specification:'DejaVu Sans Ultra-Light';text-align:center;letter-spacing:-2.722054px;word-spacing:0px;text-anchor:middle;fill:#000000;fill-opacity:1;stroke:none;stroke-width:1px;stroke-linecap:butt;stroke-linejoin:miter;stroke-opacity:1"
         id="path62467"
         inkscape:connector-curvature="0" />
      <path
         d="m 280.78709,1005.4453 11.35574,0 0,0.8021 -5.18393,0 0,13.801 -0.98788,0 0,-13.801 -5.18393,0 0,-0.8021 z"
         style="font-style:normal;font-variant:normal;font-weight:200;font-stretch:normal;font-size:20.03149033px;line-height:125%;font-family:'DejaVu Sans';-inkscape-font-specification:'DejaVu Sans Ultra-Light';text-align:center;letter-spacing:-2.722054px;word-spacing:0px;text-anchor:middle;fill:#000000;fill-opacity:1;stroke:none;stroke-width:1px;stroke-linecap:butt;stroke-linejoin:miter;stroke-opacity:1"
         id="path62469"
         inkscape:connector-curvature="0" />
      <path
         d="m 298.35085,1013.2017 q 0.60642,0.2152 1.17372,0.9194 0.40102,0.5086 1.14437,1.9366 l 2.04423,3.9907 -1.04657,0 -2.08335,-4.0102 q -0.81182,-1.5748 -1.55518,-2.0834 -0.76292,-0.5086 -2.06379,-0.5086 l -2.65065,0 0,6.6022 -0.9781,0 0,-14.6031 3.96131,0 q 2.23984,0 3.3451,1.0466 1.10525,1.0466 1.10525,3.1593 0,1.3595 -0.57708,2.2887 -0.54773,0.9097 -1.81926,1.2618 z m -5.03722,-6.9543 0,6.387 3.22773,0 q 1.56496,0 2.367,-0.8118 0.80204,-0.8119 0.80204,-2.3964 0,-1.5747 -0.80204,-2.3768 -0.80204,-0.802 -2.367,-0.802 l -3.22773,0 z"
         style="font-style:normal;font-variant:normal;font-weight:200;font-stretch:normal;font-size:20.03149033px;line-height:125%;font-family:'DejaVu Sans';-inkscape-font-specification:'DejaVu Sans Ultra-Light';text-align:center;letter-spacing:-2.722054px;word-spacing:0px;text-anchor:middle;fill:#000000;fill-opacity:1;stroke:none;stroke-width:1px;stroke-linecap:butt;stroke-linejoin:miter;stroke-opacity:1"
         id="path62471"
         inkscape:connector-curvature="0" />
      <path
         d="m 312.77488,1007.7732 q -1.40846,-1.829 -3.80481,-1.829 -2.39634,0 -3.81459,1.829 -1.40846,1.8291 -1.40846,4.9883 0,3.1397 1.40846,4.9688 1.41825,1.829 3.81459,1.829 2.39635,0 3.80481,-1.829 1.39868,-1.8291 1.39868,-4.9688 0,-3.1592 -1.39868,-4.9883 z m -3.80481,-2.5919 q 2.83649,0 4.53838,2.054 1.7019,2.0638 1.7019,5.5262 0,3.4527 -1.7019,5.5067 -1.70189,2.0638 -4.53838,2.0638 -2.84627,0 -4.55795,-2.054 -1.70189,-2.054 -1.70189,-5.5165 0,-3.4624 1.70189,-5.5262 1.71168,-2.054 4.55795,-2.054 z"
         style="font-style:normal;font-variant:normal;font-weight:200;font-stretch:normal;font-size:20.03149033px;line-height:125%;font-family:'DejaVu Sans';-inkscape-font-specification:'DejaVu Sans Ultra-Light';text-align:center;letter-spacing:-2.722054px;word-spacing:0px;text-anchor:middle;fill:#000000;fill-opacity:1;stroke:none;stroke-width:1px;stroke-linecap:butt;stroke-linejoin:miter;stroke-opacity:1"
         id="path62473"
         inkscape:connector-curvature="0" />
      <path
         d="m 316.56697,1005.4453 0.9781,0 0,13.801 7.11079,0 0,0.8021 -8.08889,0 0,-14.6031 z"
         style="font-style:normal;font-variant:normal;font-weight:200;font-stretch:normal;font-size:20.03149033px;line-height:125%;font-family:'DejaVu Sans';-inkscape-font-specification:'DejaVu Sans Ultra-Light';text-align:center;letter-spacing:-2.722054px;word-spacing:0px;text-anchor:middle;fill:#000000;fill-opacity:1;stroke:none;stroke-width:1px;stroke-linecap:butt;stroke-linejoin:miter;stroke-opacity:1"
         id="path62475"
         inkscape:connector-curvature="0" />
      <path
         d="m 327.18326,1014.1602 18.07529,0 0,0.8021 -18.07529,0 0,-0.8021 z"
         style="font-style:normal;font-variant:normal;font-weight:200;font-stretch:normal;font-size:20.03149033px;line-height:125%;font-family:'DejaVu Sans';-inkscape-font-specification:'DejaVu Sans Ultra-Light';text-align:center;letter-spacing:-2.722054px;word-spacing:0px;text-anchor:middle;fill:#000000;fill-opacity:1;stroke:none;stroke-width:1px;stroke-linecap:butt;stroke-linejoin:miter;stroke-opacity:1"
         id="path62477"
         inkscape:connector-curvature="0" />
    </g>
    <g
       id="scrollSign"
       inkscape:label="#g64166">
      <circle
         r="29.641081"
         cy="1019.4686"
         cx="229.14307"
         id="path64164"
         style="opacity:1;fill:#ffffff;fill-opacity:1;fill-rule:nonzero;stroke:none;stroke-width:4;stroke-linejoin:round;stroke-miterlimit:4;stroke-dasharray:none" />
      <use
         inkscape:label="#use64150"
         style="fill:#d3d7cf"
         height="100%"
         width="100%"
         y="0"
         x="0"
         transform="matrix(0.79255652,0,0,0.79255652,206.31744,986.59615)"
         xlink:href="#angle-double-down"
         id="64150" />
    </g>
  </g>
</svg>
